<?xml version="1.0" encoding="utf-8"?>
<!-- Generator: Adobe Illustrator 21.0.0, SVG Export Plug-In . SVG Version: 6.00 Build 0)  -->
<svg version="1.1" xmlns="http://www.w3.org/2000/svg" xmlns:xlink="http://www.w3.org/1999/xlink" x="0px" y="0px"
	 viewBox="0 0 874.3 874.3" style="enable-background:new 0 0 874.3 874.3;" xml:space="preserve">
<style type="text/css">
	.st0{opacity:0.8;fill:#0C0302;stroke:#000000;stroke-miterlimit:10;}
	.st1{fill:#86EFE9;stroke:#000000;stroke-width:0.25;stroke-miterlimit:10;}
	.st2{stroke:#000000;stroke-width:0.25;stroke-miterlimit:10;}
	.st3{fill:#C1272D;stroke:#000000;stroke-width:0.25;stroke-miterlimit:10;}
</style>
<g id="Слой_2">
	<path class="st0" d="M361.6,87.8c-2.6,1.1-5,1.7-7,2c-1.7,1-3.3,2-5,3c-2.3,1.1-5.6,3-9,6c-12.7,11.4-14.2,28.3-15,37
		c-0.4,4.5-1.3,14.9,2,27c1.1,3.9,1.8,5.1,2,8c0.8,11.2-7.6,20.2-11,24c0,0-16.4,18.5-30,50c-2.8,6.6-10.2,24.3-9,47
		c1.5,27.1,14.5,46.1,20,54c20.3,28.9,48,39.8,59,44c20.2,7.7,37.2,8.4,50,9c24.4,1.1,42.8-2.7,58-6c15.3-3.3,33.4-7.2,55-18
		c14.8-7.4,33.3-16.7,50-37c7.8-9.5,20.5-27.8,26-54c2.4-11.7,7.3-36.8-4-65c-2.8-7-12.5-31.1-36-45c-2.1-1.2-1.3-0.6-32-12
		c-32.7-12.1-36.9-14-43-18c-8.3-5.4-7.4-6.5-25-19c-7.8-5.6-11.5-7.9-17-13c-10-9.3-8.1-11.2-15-17c-14.7-12.3-33.4-12.2-38-12
		c-5.5,0.2-10,1.2-13,2c0.1-1.7,0.3-4.2,1-7c1.6-6.3,4.8-10.5,6-12c2.7-3.4,5.7-5.6,8-7c2.4,1.8,5.8,4.2,10,7c7.7,5,11.6,7.6,16,9
		c7.6,2.5,14.2,0.9,22-1c17-4.2,28.5-12.8,34-17c3.8-2.9,17.1-13.3,25-28c3.9-7.3,5.9-14.5,6-15c1.2-4.3,1.7-8.1,2-11
		c-1.1-0.8-2.8-1.8-5-2c-2.9-0.2-4.9,1.2-7,2c-4.1,1.6-7.5,0.7-12,0c-9.7-1.5-29.8-3.1-40-3c-8.4,0.1-23.7,0.3-38,10
		c0,0-13.8,9.3-19,24c-1.6,4.5-4.2,12-1,16c0.7,0.9,2.4,2.5,2,4c-0.4,1.2-1.9,1.5-3,2c-3.5,1.5-4.6,5.6-7,12c-1.3,3.3-3.2,8.1-6,14
		c-1.9-3.4-4.5-7.5-8-12c-5.5-7.1-10.6-11.8-12-13c-9.1-8.1-17.4-12.2-23-15c-6.8-3.3-10.3-5-15-5c-6.8,0-12.2,3-15,5
		c0.3,2,0.7,4,1,6c0.7-0.3,1.3-0.7,2-1c1-0.9,2.7-2.1,5-3c4.1-1.5,8-1,12,0c10.6,2.7,18.8,8.2,20,9c5.5,3.8,13.4,10.1,21,20
		c1.6,1.9,3.5,4.5,5,8c1,2.2,1.6,4.2,2,6C363,87.1,362.3,87.5,361.6,87.8z"/>
</g>
<g id="Слой_3">
	<path class="st1" d="M397.6,36.8c-1.7-2.1,0.7-6.6,2-9c0.6-1.1,4.8-8.8,7-8c1.8,0.6,1.8,6.5,0,11c-1.2,2.8-4,7.3-7,7
		C399.4,37.8,398.3,37.6,397.6,36.8z"/>
	<path class="st1" d="M421.6,29.8c2.3,0.7,5.7-3.3,7-7c0.2-0.5,1.6-4.8,0-6c-1.8-1.3-7.8,1.4-9,6C418.9,25.5,419.8,29.2,421.6,29.8z
		"/>
	<path class="st1" d="M446.6,22.8c1.3,0.4,3.2-2,4-4c0.7-1.7,1-4.4,0-5c-1.2-0.7-4.2,1.3-5,4C445,19.8,445.4,22.4,446.6,22.8z"/>
	<path class="st1" d="M465.6,15.8c0.5,0.9,2,1.2,3,1c1.7-0.4,3-2.4,3-5c-0.2-0.1-2.2-1-4,0C466.1,12.6,464.9,14.5,465.6,15.8z"/>
	<path class="st1" d="M395.6,51.8c0.9,1.2,6.8-3.4,18-7c7.4-2.4,7.7-1.2,18-4c4.2-1.1,8.8-2.8,18-6c7.4-2.6,11.3-4,16-6
		c6.3-2.7,10.6-4.9,15-8c1.7-1.2,3.1-2.3,4-3c-0.7-0.3-1.3-0.7-2-1c-1.9,0.9-17.5,8.1-29,12c-5.3,1.8-10,3-10,3
		c-0.8,0.2-4.1,1.1-9,2c-7.5,1.4-7.5,1-12,2c-4.2,1-7,2.1-12,4c-7.2,2.8-9,4.2-10,5C397.9,47.1,394.9,50.8,395.6,51.8z"/>
	<path class="st1" d="M480.6,28.8c0.2-2,1.8-3.2,3-3c1.2,0.2,2,1.8,2,3s-0.8,2.8-2,3C482.4,32,480.8,30.7,480.6,28.8z"/>
	<path class="st1" d="M460.6,37.8c0.3,1.7,3.3,2.4,6,3c2.4,0.5,4.3,1,5,0c0.9-1.2-0.9-3.8-1-4c-2.7-2.4-5.9-3.2-8-2
		C461.6,35.3,460.4,36.6,460.6,37.8z"/>
	<path class="st1" d="M446.6,43.8c4,0.8,9.3,3.2,9,5c-0.4,2.5-11.2,2.1-14,2c-2.9-0.1-5.2-0.4-6-2c-0.5-0.9-0.5-2.1,0-3
		C437.1,42.9,443.2,43.1,446.6,43.8z"/>
	<path class="st1" d="M409.6,56.8c0.3-1.6,5.3-2,8-2c7.7,0.1,13.9,4.3,18,8c-3.5,0.9-9.4,1.9-16,0C415.1,61.5,409.3,58.6,409.6,56.8
		z"/>
	<path class="st1" d="M346.6,102.8c1.5-1.1,3.6-1.1,5,0c2.1,1.6,2.2,5.4,0,7c-1.7,1.3-4.6,1-6-1
		C344.2,106.8,344.8,104.1,346.6,102.8z"/>
	<path class="st1" d="M356.6,101.8c-0.9-2.4,6.4-9.3,15-10c2-0.2,7.3-0.6,11,3c4,3.9,4.6,11.3,1,18c-2.5-3.2-6.4-7-12-9
		C363.6,101,357.4,103.8,356.6,101.8z"/>
	<path class="st1" d="M356.6,106.8c1.2-2.3,8.3-1.2,13,1c0.9,0.4,8.5,4.2,11,13c0.5,1.8,2.2,7.7-1,13c-0.4,0.7-3.2,5.5-6,5
		c-3.3-0.6-2.3-7.7-7-17C361.8,112.2,355.3,109.1,356.6,106.8z"/>
	<path class="st1" d="M352.1,112.3c2.6-1.1,9.9,8.8,13,19c1.4,4.5,3,9.9,0,14c-2.4,3.2-6.3,3.9-7,4c-3.1,0.5-7.4-0.1-8-2
		c-0.4-1.2,1-2.1,2-4c2-3.7,0.7-7.7,0-11C350.5,125.2,349.6,113.3,352.1,112.3z"/>
	<path class="st1" d="M345.1,114.3c1.9,0.3,2.6,5.4,3,8c0.2,1.4,0.7,5.9-1,12c-1.5,5.3-2.8,10-7,12c-2.1,1-5.2,1.4-8,0
		c-2.6-1.3-5-4.1-5-7c0-3.6,3.4-4.8,8-10C342.1,121.2,342.7,113.9,345.1,114.3z"/>
	<path class="st1" d="M395.1,114.3c1-3.2,2-6.5,5-9c6-5,14.6-2.1,15-2c7.4,2.6,12.2,10.3,11,12c-0.8,1.2-4.6,0.1-7-1
		c-3.4-1.7-3.6-3.5-6-4c-2.7-0.6-6.6,0.8-8,4c-1.6,3.6,1,7.3,3,9c1.2,1,2.2,1.2,5,2c2.3,0.7,5.7,1.6,10,3c-1.5,1.2-4.2,3.1-8,4
		c-5.2,1.2-9.5-0.2-12-1c-3.8-1.3-6.8-3.2-9-5C393.8,123.7,393.6,119.3,395.1,114.3z"/>
	<path class="st1" d="M425.1,131.3c-0.6-0.6-10.9,4-14,14c-2.1,6.5-1.6,17,6,22c7.8,5.2,19.6,2.1,25-6c7.4-11-1.4-24.1-2-24
		c-0.5,0.1,3.5,10.8-2,18c-2.9,3.7-7,4.8-8,5c-0.5,0.1-8.2,1.7-12-3c-3-3.7-1.8-8.9-1-12C419.3,136.3,425.6,131.8,425.1,131.3z"/>
	<path class="st1" d="M431.1,116.3c-1.7,0.9-1.1,3.2-3,4c-2.9,1.2-5.8-3.6-12-5c-2.8-0.6-5.3-0.4-7,0c0.4,2.1,1.4,5.1,4,7
		c5.2,3.7,11.7-0.8,15,3c2.3,2.7,2.4,8.8,2.3,9.5c0,0.1,0,0.2,0,0.2s-0.1,1.1-0.3,2.3c-0.5,2.1-4.5,8.5-3,11c0.8,1.4,3.6,2,5,1
		c1.7-1.2,0.7-3.9,1-9c0.3-5.2,2-12.5,5-13c1.2-0.2,1.5,0.8,5,2c2.3,0.8,4.5,1.6,5,1C449.4,128.5,436,113.8,431.1,116.3z"/>
	<path class="st1" d="M443.1,136.3c-0.8,2.3,4.3,5.8,6,7c4.2,2.9,8,3.8,9,4c2.3,0.5,9.2,2,11-1c0.8-1.3,0.4-2.9,0-4
		c-1.7,0.8-4.2,1.5-7,1c-7-1.3-9.1-9.3-15-9C445.5,134.3,443.5,135,443.1,136.3z"/>
	<path class="st1" d="M372.1,179.3c-3.3-5.6-3.2-13.2,0-19c3.5-6.3,11.7-12.5,19-10c9.1,3.1,9.1,17.4,9,20c-0.2,6.8-3.2,17.4-10,19
		c-4.6,1.1-9.7-2.4-12-4C376.6,184.2,374,182.5,372.1,179.3z"/>
	<path class="st1" d="M391.1,194.3c3.6-5.7,11-5.9,15-6c4.2-0.1,11.5-0.3,15,5c2.6,3.9,2.3,9.3,0,13c-4.4,6.9-15.2,5.6-20,5
		c-4-0.5-7.7-1-10-4C388.3,203.6,388.8,197.9,391.1,194.3z"/>
	<path class="st1" d="M376.1,219.3c-3.4,3.2-4.7,7.9-4,12c1.3,7.7,9.1,10.8,12,12c2.8,1.1,6.4,2.6,10,1c4.6-2.1,5.7-7.6,6-9
		c1.2-5.9-0.8-14.5-8-18C387.4,215,380.7,215,376.1,219.3z"/>
	<path class="st1" d="M361.1,208.3c-1.1-1.9-3.7-6.5-2-11c2.1-5.7,9.9-8.2,16-7c7.6,1.5,10.8,8.6,11,9c0.5,1.2,3,7,0,12
		c-3.2,5.2-10.2,6.1-15,5C364.8,214.8,361.8,209.5,361.1,208.3z"/>
	<path class="st1" d="M361.1,215.3c-6.8-1.2-12.7,3.3-15,5c-4.2,3.2-11.2,8.4-10,15c0.9,4.6,5.4,8.5,10,9c4.1,0.5,7.7-2.7,15-9
		c7.2-6.2,7.9-9.1,8-11c0-0.7,0-3.6-2-6C365.2,216,362.5,215.5,361.1,215.3z"/>
	<path class="st1" d="M356.1,203.3c-1.3,6.6-7.3,10.6-8,11c-7.8,5-18.3,3.8-25-1c-2.1-1.5-5.9-4.2-6-8c-0.2-5.9,8.5-10.5,13-12
		c5.7-2,11.5-0.6,23,2c0.4,0.1,1.3,0.3,2,1C357.1,198.2,356.4,202,356.1,203.3z"/>
	<path class="st1" d="M361.1,187.3c-1.3,1.5-3.7,3.6-7,4c-5.2,0.6-9.3-3.8-14-9c-4.8-5.2-7.4-8-7-12c0.4-5,5.2-8.6,9-10
		c7.7-2.8,15.9,2.2,20,7c4.4,5.1,7.6,14.1,4,18C365.3,186.1,363.9,187.1,361.1,187.3z"/>
	<path class="st1" d="M325.1,297.3c3.6,1.6-0.7,11.7,3,20c2.6,5.9,9.5,11.7,17,11c9.7-0.9,17-12.4,15-20c-1.6-6.1-9.1-10.3-14-13
		c-1.6-0.9-3-1.6-3-1.6c-5.8-2.7-10-3.1-10-3.4c0.1-0.8,19.9,5.6,29-3c5.5-5.2,6.5-15.4,3-23c-1.2-2.6-4.7-8.7-12-11
		c-5.3-1.7-12.8-1.3-17,3c-5,5.2-5,15.9-5,16c-2.8-9-7.2-14.8-10-18c-2.6-2.9-5-5.5-9-7c-1.5-0.6-10.7-3.8-17,2
		c-5,4.7-4.9,12.2-3,17c3.2,8.3,12.4,10.6,14,11c4.3,1,7.9,0.2,8,1c0.1,0.8-3.7,2.6-8,3c-5.2,0.5-6.5-1.6-10-1c-5,0.8-8.6,6.1-10,10
		c-2.3,6.5-0.4,14.3,5,19c0.3,0.2,7,5.9,14,4c1.6-0.4,3-1.2,12-10c2.5-2.4,4.5-4.5,6-6C323.6,297.1,324.4,297,325.1,297.3z"/>
	<path class="st1" d="M362.1,388.3c-1.9-1.8,0.7-7.3,2-10c5.2-11,16.4-14.5,18-15c0.7-0.2,12.7-3.6,24,3c3.7,2.1,11.3,7.7,10,12
		c-0.9,2.8-5.4,4.6-9,4c-3.6-0.6-4.6-3.4-7-5C390,370.5,366.6,392.5,362.1,388.3z"/>
	<path class="st1" d="M372.1,392.3c0-0.7,5-0.8,16-3c9.4-1.8,12-3,17-2c7,1.4,9.5,5.2,10,6c0.5,0.8,1.7,2.8,1,4
		c-0.8,1.3-3.5,1.1-10,0c-5.7-0.9-8.5-1.4-11-2C381.7,392.1,372.1,393.3,372.1,392.3z"/>
	<path class="st1" d="M356.1,381.3c-3.1,0.3-7.8-10.1-7-20c0.3-3.5,0.8-9.8,6-14c7.9-6.3,18.5-1.3,19-1c1.8,0.9,4.7,2.3,5,5
		c0.2,2-1.2,4.2-3,5c-3,1.2-5.3-2.3-8-2C360.9,355.1,360.9,380.9,356.1,381.3z"/>
	<path class="st1" d="M348.1,382.3c0,0-0.3-0.1-1.7-1.1c-2-1.4-6.6-4.6-10.3-9.9c-3.5-4.9-5.7-8-5-12c0.6-3.3,3.1-6.5,6-8
		c3.1-1.6,5.7-0.9,6-2c0.4-1.4-3.1-4.3-7-5c-3.5-0.6-7.4,0.5-10,3c-4.6,4.4-4.3,12.5-2,18C329.4,377.7,348,382.6,348.1,382.3z"/>
	<path class="st1" d="M431.1,279.3c-2.2-4.6,6.2-15.9,17-18c1.3-0.2,9.6-1.9,14,3c5.3,5.9,1.4,17.8-5,24c-5.4,5.2-14.6,8.3-19,5
		c-1.9-1.4-4-4.8-3-7c0.4-0.9,1.2-1.4,1.6-1.6c2.3-1.4,4.9-0.4,6.4-0.4c2.3-0.1,5.4-2.5,9-13c-4.7,3.7-9.3,7.3-14,11
		C433.4,281.9,431.7,280.6,431.1,279.3z"/>
	<path class="st1" d="M436.1,301.3c0.9-3,8.5-3,9-3c9.1,0.1,15.1,6.9,16,8c2.2,2.6,6.6,7.7,5,13c-1.7,5.7-9,7.5-11,8
		c-6.4,1.6-11.7-0.6-15-2c-3.7-1.6-9.1-3.8-11-9c-1.3-3.6-0.8-8.2,1-9c1-0.4,1.9,0.6,5,2c3,1.3,7.4,2.9,8,2
		C443.9,310,435,304.8,436.1,301.3z"/>
	<path class="st1" d="M410.1,312.3c-1.8-0.5-5.6,5.4-7,11c-0.6,2.6-2.1,8.3,1,14c0.6,1,4.4,8.1,11,8c6.1-0.1,9.7-6.4,10-7
		c3.4-6.3,0.7-13.4-1-18c-1.5-4-3.5-7-5-9c-0.4,4.2-0.3,7.6,0,10c0.5,4.7,1.5,7.3,0,9c-1.1,1.2-3.4,1.8-5,1
		C408.8,328.8,413,313.1,410.1,312.3z"/>
	<path class="st1" d="M415.1,280.3c-0.5,0.1-9.6,3-12,12c-0.4,1.4-2.3,8,2,13c4.2,4.9,10.8,4.2,12,4c5.8-0.8,9.1-4.8,10-6
		c0.9-1.2,3.6-4.9,3-10c-0.4-3.5-2.1-6-3-7c-2,0.5-2.7,1.3-3,2c-0.7,1.5,0.6,2.8,0,5c0,0.2-0.5,1.9-2,3c-1.8,1.3-4.9,1.9-7,0
		c-2.6-2.3-1.8-6.5,0-8c1.4-1.2,3-0.1,6-1c2.3-0.6,3.9-1.9,5-3"/>
	<path class="st1" d="M477.1,189.3c-2.1-0.1-3.7-6.7-4-11c-0.3-4-0.6-9,3-13c4.9-5.4,12.4-4.1,13-4c1.3,0.2,5,0.9,7,4
		c0.8,1.2,2,3.7,1,5c-1.3,1.6-4.6-0.8-8,0C481.2,172,480.6,189.4,477.1,189.3z"/>
	<path class="st1" d="M483.1,189.3c1.2-3.7,4.8-9.5,12-13c2.5-1.2,9.2-4.4,17-2c0.6,0.2,10.1,3.3,12,11c0.7,2.9,0.4,6.5-1,7
		c-1.5,0.5-2.9-3.2-7-5c-3.5-1.5-7-0.7-10,0c-7.6,1.8-9.2,5.9-17,7c-4.4,0.6-5.6-0.4-6-1C482.5,192.4,482.5,191.2,483.1,189.3z"/>
	<path class="st1" d="M487.1,199.3c1.4-4.3,12.7-4.1,21-4c8.7,0.2,13.2,0.3,16,3c4.8,4.6,5.6,13.9,2,17c-1,0.8-2.7,1.6-4,1
		c-2.7-1.1-0.8-5.9-3-9c-5-7-25.5,3.3-31-4C488,203.1,486.5,201.1,487.1,199.3z"/>
	<path class="st1" d="M486.1,208.3c0.9-1.2,3.4-0.6,6,0c4,1,15,3.6,20,14c1.4,2.9,4.8,10.2,1,16c-3.3,5-10.2,6.5-15,5
		c-0.6-0.2-3.9-1.2-4-3c-0.2-2.6,6.4-3.5,7-7c0.4-2.6-2.7-4.1-7-9C489.3,218.9,484.2,210.6,486.1,208.3z"/>
	<path class="st1" d="M475.1,211.3c1.3-0.7,3.3,0.5,4,1c7.5,4.8,11.3,21.8,3,31c-4.4,4.9-13.5,9-20,5c-4.6-2.9-5.7-8.4-6-10
		c0.6,0.5,5.8,4.8,11,3c4.5-1.5,6.2-6.5,7-9C477.5,222.1,472.2,212.9,475.1,211.3z"/>
	<path class="st1" d="M470.1,209.3c0,2.5-0.2,6.6-2,11c-1.1,2.7-4.6,11.4-13,14c-1.4,0.4-7,2.1-12-1c-4.5-2.8-5.6-7.5-6-9
		c-0.5-2-1-4.1,0-5c1.9-1.7,6.7,3.2,12,4C453.8,224,460.6,221.7,470.1,209.3z"/>
	<path class="st1" d="M467.1,203.3c0.7,1.3-3.5,4.9-7,7c-1.5,0.9-11.4,6.5-21,2c-1.6-0.8-6.4-3-8-8c-1.2-3.9-0.3-9.3,2-10
		c0.6-0.2,1.5-0.2,3,1c0.6,2.9,1.8,6.7,5,9C449.8,210.5,465.9,200.8,467.1,203.3z"/>
	<path class="st1" d="M474.1,199.3c1.1-1.8,3.7-3.1,6-2c2.3,1.2,2.9,4.1,2,6c-1.4,2.8-6.2,3.2-8,1
		C473,202.9,473.2,200.8,474.1,199.3z"/>
	<path class="st1" d="M468.1,187.3c-8.7-8.4-9-9.1-9-10c0-3.5,5-4.3,7-11c0.8-2.7,0.3-3.6,0-4c-1.4-1.9-5.7-0.9-8,0
		c-3.9,1.6-8.5,5.7-9,11c-0.8,8.1,8,13.8,13,17c3.2,2,5.7,2.5,8,3c2.6,0.5,2.9,0.1,3,0C473.6,192.5,471.5,190.5,468.1,187.3z"/>
	<path class="st1" d="M447.1,189.3c-0.7-0.9-2.7-3.4-3-7c-0.4-4.4,2.1-6.6,1-8c-1.3-1.6-6.5-1-9,2c-3.3,3.9-0.9,11,2,15
		c3.4,4.7,8.2,6.2,14,8c6.3,2,16.7,3.8,18,1c0.6-1.4-1.1-3.9-3-5c-2.4-1.4-4.1,0.1-8,0C454.7,195.1,450,192.9,447.1,189.3z"/>
	<path class="st1" d="M530.1,310.3c-1.5-0.1-3.3,7.6-4,11c-1.2,6-0.4,7.2-2,10c-1.7,3-5.6,6.6-9,6c-4-0.7-3.9-6.5-9-8
		c-2.1-0.6-5-0.5-6,1c-1.5,2.3,2,7.3,5,10c4.8,4.3,10.8,4.9,14,5c1.8-1.6,4.5-4.2,7-8c1.8-2.8,5.5-8.4,6-16
		C532.5,316.1,531.4,310.4,530.1,310.3z"/>
	<path class="st1" d="M521.1,301.3c-1.6-0.7-3.5,3-8,6c-4.6,3.1-12.7,6.2-17,3c-2.8-2.1-3.7-6.5-4-8c-0.8-3.9,0.2-6.3-1-7
		c-1.2-0.7-3.8,0.9-5,3c-2,3.4,0,7.7,1,10c1.1,2.3,3.2,7.1,8,9c4.2,1.7,8.1,0.1,16-3c5.5-2.2,10-4.1,11-8
		C522.6,304.3,522.3,301.8,521.1,301.3z"/>
	<path class="st1" d="M520.1,294.3c0-1.4-6.3-2.5-9-3c-6.4-1.1-7.8-0.4-10-2c-2.4-1.7-4.2-4.9-4-8c0.2-4.7,4.9-6.5,4-9
		c-0.8-2.2-5.3-3.5-8-2c-3.8,2.1-3.1,9.3-2,13c2.3,7.9,9.6,11.4,11,12c6.5,2.9,12.3,1.4,14,1C517.1,296,520.1,295.3,520.1,294.3z"/>
	<path class="st1" d="M535.1,295.3c-2.2-1.2-4.9,0.9-5,1c-1.3,1-2.8,3.2-2,5c0.6,1.4,2.3,1.8,3,2c0.6,0.2,3.4,0.7,5-1
		C537.9,300.3,537.4,296.5,535.1,295.3z"/>
	<path class="st1" d="M524.1,289.3c-5.2-5.9-8-12.5-9-17c-0.8-3.3-1.3-5.8,0-8c2.2-3.7,7.5-2.8,8-5c0.5-2.3-4.4-6.5-9-6
		c-5.1,0.6-8.1,7.1-9,11c-2.5,10.7,6,21.9,14,26c2.1,1.1,6.5,2.8,7,2C526.4,291.8,525.1,290.4,524.1,289.3z"/>
	<path class="st1" d="M532.1,291.3c0.9-0.4-3.5-8.7-2-20c0.4-3.2,1-7.5,4-9c3.4-1.7,7.2,1.7,9,0c1.5-1.5,0.6-5.8-2-8
		c-2.4-2-5.8-1.9-8-1c-4.5,1.8-5.8,7.3-7,12c-1.9,7.5-0.4,13.5,0,15C527.8,286.5,531.4,291.6,532.1,291.3z"/>
	<path class="st1" d="M539.1,289.3c5.4-7.8,2.7-13.6,7-17c2.7-2.1,7.3-2.5,10-1c1.2,0.7,1.6,1.5,4,3c2.1,1.3,4.2,2.6,5,2
		c1.4-1,0.2-7.8-4-11c-5.3-4.1-14.6-1.7-20,3c-9.2,8.1-7.2,23.4-5,24C536.9,292.5,537.9,291,539.1,289.3z"/>
	<path class="st1" d="M543.1,293.3c-0.7-2.5,5.6-7.2,12-9c3.3-0.9,9.3-2.6,14,1c6.6,5,4.2,15.2,4,16c-0.2,0.8-1.2,4.9-3,5
		c-1.5,0.1-2.9-2.6-5-7c-3-6.2-2.6-7.4-4-8c-3.5-1.6-7.3,4.9-14,4C546.4,295.2,543.5,294.8,543.1,293.3z"/>
	<path class="st1" d="M540.1,300.3c1.6-2.5,10.1-0.1,16,3c3.5,1.9,10.1,5.4,13,13c2.8,7.1,2.1,17.2-3,20c-2.8,1.5-7,0.9-8-1
		c-0.9-1.8,1.5-3.4,2-7c0.9-6.2-4.9-12-6-13c-4.8-4.7-8.4-3.8-12-9C541.2,305,539.1,301.9,540.1,300.3z"/>
	<path class="st1" d="M535.1,307.3c2.1-1.5,10.8,4.5,15,13c2.9,5.9,5.4,16.3,0,23c-2.8,3.4-8.1,6.4-12,5c-1.4-0.5-3.1-1.8-3-3
		c0.1-1.8,4-1.6,6-4c2.3-2.8,0.4-7.3-2-15C535.4,314.4,533.5,308.4,535.1,307.3z"/>
	<path class="st1" d="M466.1,369.3c-1.1,1.3-7.4-2.5-10-4c-4.1-2.4-7.9-4.7-8-8c0-1.4,0.6-3.4,2-4
		C455,351.2,467.8,367.1,466.1,369.3z"/>
	<path class="st1" d="M471.1,368.3c-3.5-1.4-3.6-7.8-3-11c0.7-3.7,3.1-9,6-9c3.3,0,6.2,5.1,6.7,9.2c0.2,1.2,0.5,3.5-0.7,5.8
		C478.4,366.7,474.1,369.5,471.1,368.3z"/>
	<path class="st1" d="M485.1,361.3c0.2-0.4,2.8,1.7,6,1c0.2,0,3.9-0.9,5-4c1.2-3.5-1.5-7.7-4-8c-3.2-0.4-5.1,5.6-8,5
		c-1.9-0.4-3.4-3.5-3-6c0.6-3.7,5.1-5.6,8-6c5.9-0.9,11.4,3.5,14,8c0.3,0.6,4.8,8.5,1,13c-3.2,3.8-9.9,2.3-11,2
		C488.2,365.1,484.9,361.7,485.1,361.3z"/>
	<path class="st1" d="M478.1,371.3c0.9-2.5,9.9-1.3,12-1c4,0.5,6.8,0.9,7,2c0.3,2-8.7,7.2-15,4C479.9,375.1,477.6,372.7,478.1,371.3
		z"/>
	<path class="st1" d="M478.1,377.3c-2-0.1-4,1.3-5,3c-1.4,2.5-0.9,6.3,2,8c3,1.8,6.7,0.3,8-2C485,382.9,481.9,377.5,478.1,377.3z"/>
	<path class="st1" d="M469.1,377.3c2,1.1,2,5.3,1,8c-1.3,3.7-4.7,5.4-6,6c-0.8,0.4-5.4,2.6-7,1c-1.8-1.8,0.7-7.5,4-11
		C461.6,380.8,466.4,375.8,469.1,377.3z"/>
	<path class="st1" d="M462.1,372.3c-0.2-0.7-0.9-1.7-10-3c-5.2-0.7-7-0.7-9,0c-0.6,0.2-4,1.4-4,3c0,1.2,1.8,2,4,3
		c2.4,1.1,5.5,2.5,10,2.4c2.9,0,6.1-0.1,8-2.4C461.4,374.8,462.5,373.5,462.1,372.3z"/>
	<path class="st1" d="M455.1,381.3c0.7,1.4,0.3,3,0,4c-0.9,3.3-3.6,5.1-5,6c-1.7,1.1-7.7,5-12,2c-2.1-1.5-3.4-4.4-3-7
		c0.9-5.2,8.3-6.7,10-7C445.5,379.2,453.2,377.8,455.1,381.3z"/>
	<path class="st1" d="M486.1,379.3c-1.4,1.6-1.5,4.6,0,6c1.3,1.2,3.3,0.7,6,0c0.5-0.1,7.1-1.8,7-4c-0.1-1.9-5.6-2.9-6-3
		C490.7,377.9,487.7,377.4,486.1,379.3z"/>
	<path class="st1" d="M461.1,355.3c-5.7,0.7-9.7-6.4-10-7c-0.8-1.5-3.5-6.4-1-10c2.3-3.3,7.6-3.6,11-2c5.9,2.7,8.2,11.5,5,16
		C464.3,354.8,461.3,355.3,461.1,355.3z"/>
	<path class="st1" d="M442.1,364.3c-1.1,0.4-1.7,0.6-2.3,0.7c-1.6,0.3-3.4,0-4.7-0.7c-3.2-1.8-4.4-7.7-2-10c2.4-2.3,7.5-0.2,10,2
		c1.9,1.6,3.8,4.4,3,6C445.8,362.9,444.6,363.4,442.1,364.3z"/>
	<path class="st1" d="M576.1,208.3c-1.1,0.6,0.2,5.5,2,9c2.5,4.7,6.9,8.7,8,8c1.1-0.7-0.7-5.4-2-8
		C581.7,212.3,577.4,207.6,576.1,208.3z"/>
	<path class="st1" d="M584.1,230.3c1.6-0.7,6.1,4.4,8,10c1.5,4.6,1.6,10.5,0,11c-1.7,0.5-5.3-5.1-7-10
		C583.7,237.2,582.5,231,584.1,230.3z"/>
	<path class="st1" d="M582.1,243.3c3.9-0.2,7.1,5.8,8,10c0.4,2.1,1.1,5.4-1,8c-2.1,2.5-6,3.3-9,2c-3.9-1.6-4.8-5.9-5-7
		c-0.7-3.3,0.5-5.9,1-7C576.6,248.2,578.8,243.5,582.1,243.3z"/>
	<path class="st1" d="M578.1,231.3c2.1,1.2,1.3,6.6,0,10c-2.1,5.3-7.4,10.1-10,9c-2-0.9-2-4.9-2-6c0-4.7,3-7.9,4-9
		C571.8,233.5,575.9,230,578.1,231.3z"/>
	<path class="st1" d="M565.1,234.3c2.3,3.3-0.7,8.4-1,9c-2.2,3.8-6.6,6.1-11,6c-3.8-0.1-9.3-2.2-10-6c-0.8-4.4,5.2-8.5,9-10
		C555.7,231.8,562.6,230.6,565.1,234.3z"/>
	<path class="st1" d="M582.1,226.3c-0.4-1.3-3-2-4-1s-0.3,3.6,1,4C580.5,229.7,582.5,227.6,582.1,226.3z"/>
	<path class="st1" d="M573.1,224.3c-5.5-1.6-9.5-4.6-10-5c-4.3-3.3-6.4-5-7-8c0-0.3-0.7-3.9,1-5c1.9-1.2,5.5,1.5,10,5
		c1.9,1.4,5.4,4.3,8,9c1.5,2.7,1.3,3.6,1,4C575.6,224.9,574.2,224.6,573.1,224.3z"/>
	<path class="st1" d="M549.1,225.3c-0.2,1.1,2.4,2.2,4,3c3.8,1.8,7.3,1.9,14,2c3,0.1,4.4-0.1,5-1c0.6-1.1-0.1-2.9-1-4
		c-2.2-2.7-6.4-2.4-13-2C554.2,223.5,549.3,223.9,549.1,225.3z"/>
	<path class="st1" d="M556.1,217.3c1.1-2.4-4.5-6.9-6-8c-2.6-2-4.8-3.8-7-3c-1.9,0.7-3.1,3-3,5c0.1,3.9,5.2,6.3,8,7
		C550.8,219,555.3,219.1,556.1,217.3z"/>
	<path class="st1" d="M571.1,207.3c-4.2,1.3-8.2-3.1-9-4c-2.7-3-5.2-8.6-3-11c2-2.2,7.2-0.7,10,1c3,1.8,7.2,5.9,6,10
		C574.6,205.2,572.9,206.7,571.1,207.3z"/>
	<path class="st1" d="M420.1,276.3c0.2,0.3,0.7,0.5,1.6,0.8c0,0,1.7,0.5,3.4,0.2c3.3-0.6,4.8-10.9,5-12c1.6-10.7,2.4-16-1-21
		c-0.5-0.7-4.4-6.5-9-6c-6.3,0.7-9.7,13-10,21c-0.2,6,1.1,14.5,4,15c1.9,0.3,4.6-2.8,5-6c0.4-2.7-0.8-5.4-3-7c0.7-2.3,1.3-4.7,2-7
		c1.7,1,3.3,2,5,3c2.3,5.3,1.8,8.8,1,11C422.7,271.9,419.2,274.9,420.1,276.3z"/>
	<path class="st1" d="M407.1,276.3c0-0.5,0.6-11.5-8-17c-4.9-3.1-12.7-4.5-16-1c-4.6,4.8,1.1,17.4,8,24c2.5,2.4,7.7,6.5,10,5
		c1.3-0.8,1.5-3.2,1-5c-1.1-4-5.4-3.8-9-9c-1.2-1.8-2.9-5-2-6c1.5-1.6,9.5,3.7,10,4C403.8,273.1,405.8,275,407.1,276.3z"/>
	<path class="st1" d="M398.1,291.3c2,1.6,2.5,5.6,1,7c-1.6,1.5-4.3-1-9,0c-1.3,0.3-5.4,1.4-7,5c-1.4,3-0.8,7.2,1,8
		c1.5,0.6,2.9-1.3,9-5c4-2.4,6.1-3.6,7-3c1.7,1.2,0.5,7.6-3,12c-0.8,1-5.7,7.1-13,6c-4.4-0.7-8.6-3.8-10-8c-2.8-8.6,8.2-16.6,10-18
		C384.7,294.8,394.1,288.1,398.1,291.3z"/>
</g>
<g id="Слой_4">
	<path class="st2" d="M391.1,397.3c-1.3,2.1,8.7,8.3,17,20c2.9,4.1,7.3,11.3,10,21c3.7,13.6,2,24.9,1,31c-1.8,10.7-5.4,19.5-9,26
		c-103.3-0.3-206.7-0.7-310-1c0,5.7,0,11.3,0,17c227.7,0,455.3,0,683,0c0-5.3,0-10.7,0-16c-105.3,0-210.7,0-316,0
		c-3.3-5.5-7.1-13.7-8-24c-0.9-10,1.2-17.6,3-24c2.8-9.9,6.6-17,10-23c4.2-7.5,8.7-13.9,13-20c2-2.8,5.5-7.8,10-15
		c1.3-2.1,2.3-3.8,3-5c-6,1.3-12,2.7-18,4c-6.3,8-12.7,16-19,24c-2-6-4-12-6-18c-4,1-8,2-12,3c0.4,1.8,1.1,4.6,2,8
		c2.4,9.2,3,10.1,3,13c-0.1,6.2-3.1,10.8-4,12c-1.7,2.4-3.6,4-5,5c-1.5-5-4.1-11.8-9-19c-6.2-9-13.2-14.8-18-18c-4,0-9.5-0.1-16-1
		C393.1,396.9,391.6,396.5,391.1,397.3z"/>
	<path class="st2" d="M783.1,520.3c0,0.7,0,1.3,0,2c0,1,0,2,0,3c-227.7,0-455.3,0-683,0c0-1.7,0-3.3,0-5c61,0,122,0,183,0
		c165,0,330,0,495,0c1,0,2,0,3,0C781.8,520.3,782.4,520.3,783.1,520.3z"/>
	<path class="st2" d="M242.1,542.3c0,6.3,0,12.7,0,19c0,1.3,0,2.7,0,4c2.5,0.6,6,0.9,10,0c2.5-0.6,5.5-1.3,8-4c0.6-0.7,2.8-3.2,3-7
		c0.2-5.1-3.4-8.4-4-9c-3.2-2.8-7-3-8-3c-1,0-2,0-3,0c-0.6,4.5-0.6,6.9,0,7c0.2,0.1,0.6-0.3,1-1c0.3-0.1,2.9-0.7,5,1
		c2,1.6,2,4.1,2,5c0,0.6,0,4.5-3,6c-2.2,1.1-4.6,0.2-5,0c0-3.3,0-6.7,0-10c0-2.7,0-5.3,0-8C246.1,542.3,244.1,542.3,242.1,542.3z"/>
	<path class="st2" d="M272.1,543.3c-0.9,2.4-3.1,9.2,0,16c0.8,1.8,2.1,4.5,5,6c3.6,1.9,8.1,1,11-1c2.3-1.6,3.4-3.7,4-5
		c3.4-7,0.9-14.5,0-17c-2.3,0-4.7,0-7,0c0.4,3.5,0.7,6.2,1,8c0.5,3.8,0.9,5.3,0,7c-0.1,0.2-1.6,3-4,3c-2.4,0-3.9-2.8-4-3
		c-0.7-1.4-0.6-2.6,0-8c0.6-5.2,0.7-6.3,0-7C277.5,541.7,276,541.4,272.1,543.3z"/>
	<path class="st2" d="M304.1,543.3c0,7,0,14,0,21c4.7,0,9.3,0,14,0c0-1.7,0-3.3,0-5c-2.3,0-4.7,0-7,0c0-5.3,0-10.7,0-16
		C308.8,543.3,306.4,543.3,304.1,543.3z"/>
	<path class="st2" d="M338.1,547.3c4.1-0.1,7.3,3.3,7,7c-0.2,3.5-3.5,6.2-7,6c-3.9-0.3-6.9-4.3-6-8c0.7-2.9,3.6-5.1,7-5
		c0.5-2.6,0-4.6-1-5c-0.2-0.1-0.5-0.1-1,0c-6.5,0.7-11.2,6.2-11,12c0.2,6.8,7,11.2,13,11c5.5-0.2,11.2-4.1,12-10
		c0.6-4.3-1.5-8.6-5-11c-3.3-2.3-6.9-2.1-8-2C338.1,543.9,338.1,545.6,338.1,547.3z"/>
	<path class="st2" d="M362.1,543.3c0,7,0,14,0,21c4,0,8,0,12,0c0-1.3,0-2.7,0-4c-2.3,0-4.7,0-7,0c0-1.3,0-2.7,0-4c2.3,0,4.7,0,7,0
		c0-1.7,0-3.3,0-5c-2,0-4,0-6,0c0-1.3,0-2.7,0-4c2,0,4,0,6,0c0-1.3,0-2.7,0-4c-3,0-6,0-9,0C364.1,543.3,363.1,543.3,362.1,543.3z"/>
	<path class="st2" d="M394.1,548.3c-2.8-0.2-6,2-6,5c0,2.9,3,5.3,6,5c3-0.3,5.5-3.2,5-6C398.7,549.9,396.3,548.4,394.1,548.3z"/>
	<path class="st2" d="M427.1,542.3c0,2.7,0,5.3,0,8c-1.8-2-4.8-2.4-7-1c-2.5,1.5-3.1,4.7-2,7c0.7,1.5,2.1,2.7,4,3c3,0.4,4.9-1.9,5-2
		c0,2.3,0,4.7,0,7c-1.1,0.5-4.2,1.9-8,1c-4.4-1-8.1-4.6-9-9c-1.3-6.4,3.7-12.2,9-14C422.5,541.1,425.6,541.8,427.1,542.3z"/>
	<path class="st2" d="M450.1,541.3c-6.4,0.2-11.7,5.5-12,12c-0.3,6.8,5.2,12.7,12,13c7,0.3,13.1-5.7,13-13c-2,0-4,0-6,0
		c-0.1,3.9-3.3,7-7,7c-3.8,0-7.3-3.3-7-7c0.2-3.5,3.6-6,7-6c3.4,0,6.4,2.5,7,6c2,0,4,0,6,0C462.7,546.4,456.8,541,450.1,541.3z"/>
	<path class="st2" d="M472.1,543.3c0,7.3,0,14.7,0,22c2.3,0,4.7,0,7,0c-0.3-2.3-0.7-4.7-1-7c1.7,2.3,3.3,4.7,5,7c2.3,0,4.7,0,7,0
		c-0.3-1-0.7-2-1-3c-1.7-1.7-3.3-3.3-5-5c2.9-1.2,4.9-4,5-7c0.1-3.3-2-5.8-4-7c-1.7-1-3.4-1-6-1
		C476.1,542.3,473.7,542.8,472.1,543.3z"/>
	<path class="st2" d="M500.1,542.3c0,7.7,0,15.3,0,23c2.3,0,4.7,0,7,0c0-4,0-8,0-12c3,4,6,8,9,12c2.3,0,4.7,0,7,0c0-7.7,0-15.3,0-23
		c-2.3,0-4.7,0-7,0c0,4.7,0,9.3,0,14c-3.3-4.7-6.7-9.3-10-14C504.1,542.3,502.1,542.3,500.1,542.3z"/>
	<path class="st2" d="M531.1,542.3c2.7,7.7,5.3,15.3,8,23c2,0,4,0,6,0c1.3-3.7,2.7-7.3,4-11c1,3.7,2,7.3,3,11c2.3,0,4.7,0,7,0
		c2.3-7.7,4.7-15.3,7-23c-2.7,0-5.3,0-8,0c-1,4.7-2,9.3-3,14c-1.3-4.7-2.7-9.3-4-14c-1.7,0-3.3,0-5,0c-1.3,4.3-2.7,8.7-4,13
		c-1-4.3-2-8.7-3-13C536.4,542.3,533.8,542.3,531.1,542.3z"/>
	<path class="st2" d="M571.1,564.3c2.7-7,5.3-14,8-21c2.3,0,4.7,0,7,0c2.3,7,4.7,14,7,21c-2,0-4,0-6,0c0-1.3,0-2.7,0-4
		c-7-0.7-8.9-0.5-9,0c0,0.2,0,1,0,1l0,0c0,0,0,1.1,0,3C575.8,564.3,573.4,564.3,571.1,564.3z"/>
	<path class="st2" d="M604.1,542.3c0,7.7,0,15.3,0,23c4.3,0,8.7,0,13,0c0-2,0-4,0-6c-2.3,0-4.7,0-7,0c0-5.7,0-11.3,0-17
		C608.1,542.3,606.1,542.3,604.1,542.3z"/>
	<path class="st2" d="M627.1,542.3c2.3,0,4.7,0,7,0c0,5.7,0,11.3,0,17c2,0,4,0,6,0c0,2,0,4,0,6c-4.3,0-8.7,0-13,0
		C627.1,557.6,627.1,549.9,627.1,542.3z"/>
	<path class="st2" d="M95.1,814.3c0,2.3,0,4.7,0,7c20.1,0,40.2,0,60.3,0c207.9,0,415.8,0,623.7,0c0-2,0-4,0-6
		C551.1,814.9,323.1,814.6,95.1,814.3z"/>
	<path class="st2" d="M780.1,837.3c0,5,0,10,0,15c-227.7,0.3-455.3,0.7-683,1c0-5.7,0-11.3,0-17
		C324.8,836.6,552.4,836.9,780.1,837.3z"/>
</g>
<g id="Слой_5">
	<path class="st3" d="M175.1,593.3c-0.3,12.3-0.7,24.7-1,37c-0.8-1.5-6.2-11.3-18-14c-1.9-0.4-12-2.5-21,4c-7.4,5.4-9.3,13.2-10,16
		c-0.7,3-2.6,12.5,3,22c1.3,2.3,5.4,9,14,12c12.7,4.4,23.4-3.6,24-4c6-4.6,8.2-10.5,9-13c0,13.7,0,27.3,0,41c-4.9,2.1-13.3,5-24,5
		c-3.2,0-11.8-0.2-22-4c-5.2-1.9-13.4-5.1-21-13c-6.6-6.9-9.4-14-11-18c-1-2.5-3.5-9.5-4-19c-0.3-5-0.8-15.1,4-26
		c7-16,20.9-23.3,26-26c5.2-2.7,15.8-8.1,30-7C163.3,587.1,171,590.8,175.1,593.3z"/>
	<path class="st3" d="M247.1,586.3c0.3,9.7,0.7,19.3,1,29c-15.2-0.2-27.7,12.1-28,27c-0.3,15.3,12.4,27.5,27,28
		c15,0.5,28.7-11.4,29-27c0.2-15.3-12.4-28.1-28-28C247.8,605.6,247.4,595.9,247.1,586.3c30.9,0.3,56.2,22.1,60,49
		c3.5,24.3-11.5,46.5-29,57c-13.1,7.8-25.8,8-30,8c-3.3,0-30.4-0.4-47-22c-8.7-11.2-10.4-22.9-11-27c-2.3-16.3,3-28.6,4-31
		c8.8-20.1,26.9-28,32-30C234.6,587,242.2,586.3,247.1,586.3z"/>
	<path class="st3" d="M318.1,591.3c-0.3,34.7-0.7,69.3-1,104c10.3,0,20.7,0,31,0c0-12.7,0-25.3,0-38c9,13,18,26,27,39
		c11-0.3,22-0.7,33-1c-11-14-22-28-33-42c1.6-0.5,16.8-6,21-21c2.7-9.7-0.7-18-2-21c-1.1-2.6-4.8-10.8-14-16c-5.6-3.2-11-3.8-14-4
		C350.1,591.3,334.1,591.3,318.1,591.3z"/>
	<path class="st3" d="M420.1,591.3c0.3,34.7,0.7,69.3,1,104c9.7,0,19.3,0,29,0c0-19,0-38,0-57c15.3,19.7,30.7,39.3,46,59
		c10,0,20,0,30,0c0-35.7,0-71.3,0-107c-10.7,0-21.3,0-32,0c0,19.7,0,39.3,0,59c-15-19.3-30-38.7-45-58
		C439.4,591.3,429.8,591.3,420.1,591.3z"/>
	<path class="st3" d="M543.1,590.3c0,35.3,0,70.7,0,106c10,0,20,0,30,0c0-35.3,0-70.7,0-106C563.1,590.3,553.1,590.3,543.1,590.3z"
		/>
	<path class="st3" d="M663.1,596.3c-4,8-8,16-12,24c-4.5-6-11.5-9.2-18-8c-4.6,0.8-7.6,3.6-9,5c-0.3,2.8-0.3,6.6,2,9
		c2.6,2.6,6.7,2,10,2c11.2-0.1,21.4,6.9,26,12c9.9,10.8,7.2,26.9,7,28c-3.4,18.7-22,29.5-36,32c-10.9,2-20.2-0.9-24-2
		c-3.9-1.2-10.6-3.3-17-9c-1.3-1.2-2.3-2.2-3-3c4.3-8,8.7-16,13-24c3,3.5,9,9.1,18,11c3.6,0.8,11.1,2.3,15-2c1.9-2.1,2.6-5.2,2-8
		c-0.7-3-2.9-5-6-7c-9-5.7-14.4-3.5-22-7c-7.4-3.4-13.8-10.6-16-19c-2.7-10.5,2-19.3,4-23c7.1-13.2,19.7-17.9,23-19
		c2.2-0.8,12.3-4.1,25-1C653.8,589.4,659.9,593.7,663.1,596.3z"/>
	<path class="st3" d="M681.1,590.3c0,35,0,70,0,105c9.7,0,19.3,0,29,0c0-14,0-28,0-42c12,0,24,0,36,0c0,14,0,28,0,42
		c9.7,0,19.3,0,29,0c0.3-35,0.7-70,1-105c-10,0-20,0-30,0c-0.3,14-0.7,28-1,42c-11.7,0-23.3,0-35,0c0-14,0-28,0-42
		C700.4,590.3,690.8,590.3,681.1,590.3z"/>
	<path class="st3" d="M95.1,760.3c0,8.8,6.3,16,14,17c9.4,1.2,17.5-7.2,18-16c0.6-10.3-9.4-19.8-19-18
		C101.2,744.6,95.5,751.6,95.1,760.3z"/>
	<path class="st3" d="M190.1,740.3c-10.1,0.3-18.2,8-19,17c-0.9,10.8,8.9,20.6,20,20c10.7-0.5,19.5-10.4,18-21
		C207.9,747.5,199.9,740.4,190.1,740.3c0-7,0-14,0-21c23.6-0.2,42.4,19.1,42,41c-0.4,22.2-20.6,38.6-41,39c-23,0.4-44.9-19.4-43-43
		c1.6-19.9,19.6-36.8,42-37C190.1,726.3,190.1,733.3,190.1,740.3z"/>
	<path class="st3" d="M241.1,722.3c0,24.3,0,48.7,0,73c6.7,0,13.3,0,20,0c0-8,0-16,0-24c5.3,8.3,10.7,16.7,16,25c8.7,0,17.3,0,26,0
		c-8.3-10.3-16.7-20.7-25-31c1.3-0.2,6.8-1,11-6c3.5-4.1,3.8-8.6,4-11c0.9-10.7-6.3-18.2-7-19c-4.8-4.9-10.5-6.5-13-7
		C262.4,722.3,251.8,722.3,241.1,722.3z"/>
	<path class="st3" d="M358.1,723.3c0,9.3,0,18.7,0,28c-4-6.9-11.5-10.8-19-10c-6.2,0.7-12.4,4.6-15,11c-3.4,8.6,1,18.9,9,23
		c5.5,2.8,12.6,2.6,18-1c4.5-3,6.4-7.3,7-9c0,9.7,0,19.3,0,29c-3.9,1.5-10.6,3.5-19,3c-11.6-0.8-19.5-6-21-7c-2.6-1.8-8.1-5.6-12-13
		c-3.9-7.4-4-14.1-4-18c0-3.3,0-9.2,3-16c4.8-11.1,13.9-16.3,17-18c6.6-3.7,12.6-4.7,16-5C347.4,719.4,354.6,721.8,358.1,723.3z"/>
	<path class="st3" d="M371.1,722.3c0,24.3,0,48.7,0,73c6.7,0,13.3,0,20,0c0-9.7,0-19.3,0-29c8,0,16,0,24,0c0,9.7,0,19.3,0,29
		c7,0,14,0,21,0c0-24.3,0-48.7,0-73c-7,0-14,0-21,0c0,9,0,18,0,27c-8,0-16,0-24,0c0-9,0-18,0-27
		C384.4,722.3,377.8,722.3,371.1,722.3z"/>
	<path class="st3" d="M443.1,795.3c9.7-24.7,19.3-49.3,29-74c8.3,0,16.7,0,25,0c9,25,18,50,27,75c-7.7,0-15.3,0-23,0
		c-3.2-8.6-4.9-13.4-4.9-13.4l0,0c0,0-5.8-15.7-5.8-15.7l0,0c0,0-6.7-18.2-7.3-19.9c-2,6.7-4,13.3-6,20c4.7,0,9.3,0,14,0
		c2,5.3,4,10.7,6,16c-8.3,0-16.7,0-25,0c-1.7,4-3.3,8-5,12C459.1,795.3,451.1,795.3,443.1,795.3z"/>
	<path class="st3" d="M530.1,721.3c0,24.7,0,49.3,0,74c6.7,0,13.3,0,20,0c0-19,0-38,0-57c6.6-0.6,11.7,3.4,12,7
		c0.4,3.9-4.5,9.3-12,9c0,5,0,10,0,15c5.7,8.7,11.3,17.3,17,26c8.3,0,16.7,0,25,0c-7.7-9.7-15.3-19.3-23-29c9.2-4.1,15.2-12.9,15-22
		c-0.3-11.8-11-22.6-25-23C549.4,721.3,539.8,721.3,530.1,721.3z"/>
	<path class="st3" d="M601.1,722.3c0,24.7,0,49.3,0,74c12,0,24,0,36,0c-2.3-6.3-4.7-12.7-7-19c-3,0-6,0-9,0c0-12.3,0-24.7,0-37
		c11.2-1.9,21.6,5.8,23,16c1.3,8.9-4.6,18.1-14,21c2.3,6.3,4.7,12.7,7,19c18.1-6.1,29.6-23.3,28-41c-1.3-14.7-11.5-27.5-26-33
		C626.4,722.3,613.8,722.3,601.1,722.3z"/>
	<path class="st3" d="M674.1,756.3c2.6,4.4,6.8,6.4,8,7c4.6,2.2,6.2,0.6,11,3c2.3,1.1,6.6,3.3,7,7c0.2,2.3-1.1,4.8-3,6
		c-3.2,2.1-7.4,0.4-11-1c-2.2-0.9-5.6-2.6-9-6c-3,5.3-6,10.7-9,16c1.4,0.8,3.5,1.9,6,3c3.9,1.7,10,4.4,17,5c4.4,0.4,13.4,1.1,21-5
		c7.6-6.1,8.8-15.1,9-17c0.1-1.2,1.3-13.9-6-19c-2.1-1.4-2.3-0.5-13-4c-5.1-1.7-7.4-2.7-9-5c-1.3-1.9-2.4-5.2-1-7
		c1.4-1.9,4.8-1.3,7-1c2.7,0.4,5.1,1.6,10,4c0.8,0.4,1.5,0.8,2,1c3-5.3,6-10.7,9-16c-4.3-2.5-12.1-6.1-22-6c-5.7,0.1-15.1,0.2-21,7
		c-4.2,4.8-4.6,10.8-5,15C671.8,747.1,671.4,751.7,674.1,756.3z"/>
	<path class="st3" d="M753.1,751.3c2.8-3.5,7.7-5.9,13-5c6.5,1.2,9.4,6.7,10,8c0.6,1.2,3.2,7.1,0,13c-3.4,6.2-10.2,6.9-11,7
		c-5,0.5-10.3-1.8-13-6c-2.1-3.2-2-6.6-2-8C750.1,758.8,750.3,754.8,753.1,751.3z"/>
</g>
</svg>
