<?xml version="1.0" encoding="utf-8"?>
<!-- Generator: Adobe Illustrator 21.0.0, SVG Export Plug-In . SVG Version: 6.00 Build 0)  -->
<svg version="1.1" xmlns="http://www.w3.org/2000/svg" xmlns:xlink="http://www.w3.org/1999/xlink" x="0px" y="0px"
	 viewBox="0 0 1000 1000" style="enable-background:new 0 0 1000 1000;" xml:space="preserve">
<style type="text/css">
	.st0{display:none;}
	.st1{display:inline;}
	.st2{clip-path:url(#SVGID_2_);}
	.st3{clip-path:url(#SVGID_4_);}
	.st4{opacity:0.8;clip-path:url(#SVGID_6_);}
	.st5{clip-path:url(#SVGID_8_);fill:#0C0302;}
	.st6{clip-path:url(#SVGID_8_);fill:none;stroke:#000000;stroke-miterlimit:10;}
	.st7{clip-path:url(#SVGID_10_);fill:#86EFE9;}
	.st8{clip-path:url(#SVGID_10_);fill:none;stroke:#000000;stroke-width:0.25;stroke-miterlimit:10;}
	.st9{clip-path:url(#SVGID_12_);}
	.st10{clip-path:url(#SVGID_12_);fill:none;stroke:#000000;stroke-width:0.25;stroke-miterlimit:10;}
	.st11{clip-path:url(#SVGID_14_);fill:#C1272D;}
	.st12{clip-path:url(#SVGID_14_);fill:none;stroke:#000000;stroke-width:0.25;stroke-miterlimit:10;}
	.st13{fill:#070707;stroke:#000000;stroke-miterlimit:10;}
	.st14{fill:#EF2E2E;stroke:#000000;stroke-width:0.5;stroke-miterlimit:10;}
	.st15{fill:#2D2C2C;stroke:#000000;stroke-miterlimit:10;}
	.st16{fill:none;}
	.st17{fill:#ED1C24;}
	.st18{font-family:'LaoMN';}
	.st19{font-size:72px;}
	.st20{fill:#282727;stroke:#000000;stroke-width:0.5;stroke-miterlimit:10;}
</style>
<g id="Слой_1" class="st0">
	<g class="st1">
		<g>
			<defs>
				<rect id="SVGID_1_" x="80.5" y="12.1" width="839" height="839"/>
			</defs>
			<clipPath id="SVGID_2_">
				<use xlink:href="#SVGID_1_"  style="overflow:visible;"/>
			</clipPath>
			<g class="st2">
				<defs>
					<rect id="SVGID_3_" x="80.5" y="12.1" width="839" height="839"/>
				</defs>
				<clipPath id="SVGID_4_">
					<use xlink:href="#SVGID_3_"  style="overflow:visible;"/>
				</clipPath>
				<g class="st3">
					<defs>
						<rect id="SVGID_5_" x="80.5" y="12.1" width="839" height="839"/>
					</defs>
					<clipPath id="SVGID_6_">
						<use xlink:href="#SVGID_5_"  style="overflow:visible;"/>
					</clipPath>
					<g class="st4">
						<g>
							<defs>
								<rect id="SVGID_7_" x="348.2" y="11.4" width="309.3" height="384"/>
							</defs>
							<clipPath id="SVGID_8_">
								<use xlink:href="#SVGID_7_"  style="overflow:visible;"/>
							</clipPath>
							<path class="st5" d="M427.5,96.4c-2.5,1.1-4.8,1.6-6.7,1.9c-1.6,1-3.2,1.9-4.8,2.9c-2.2,1.1-5.4,2.9-8.6,5.8
								c-12.2,10.9-13.6,27.1-14.4,35.5c-0.4,4.3-1.3,14.3,1.9,25.9c1,3.7,1.7,4.9,1.9,7.7c0.8,10.7-7.3,19.4-10.6,23
								c0,0-15.8,17.8-28.8,48c-2.7,6.3-9.8,23.3-8.6,45.1c1.4,26,13.9,44.3,19.2,51.8c19.4,27.7,46.1,38.2,56.6,42.2
								c19.4,7.4,35.7,8.1,48,8.6c23.4,1,41.1-2.6,55.7-5.8c14.7-3.2,32.1-6.9,52.8-17.3c14.2-7.1,31.9-16,48-35.5
								c7.5-9.1,19.7-26.6,25-51.8c2.3-11.2,7-35.3-3.8-62.4c-2.7-6.7-12-29.9-34.5-43.2c-2-1.2-1.2-0.6-30.7-11.5
								c-31.3-11.6-35.4-13.5-41.3-17.3c-8-5.2-7.1-6.2-24-18.2c-7.5-5.4-11-7.6-16.3-12.5c-9.6-8.9-7.8-10.7-14.4-16.3
								c-14.1-11.8-32.1-11.7-36.5-11.5c-5.3,0.2-9.6,1.1-12.5,1.9c0.1-1.7,0.3-4,1-6.7c1.6-6,4.6-10,5.8-11.5
								c2.6-3.2,5.5-5.4,7.7-6.7c2.3,1.7,5.5,4.1,9.6,6.7c7.4,4.8,11.1,7.3,15.4,8.6c7.3,2.4,13.6,0.9,21.1-1
								c16.3-4,27.4-12.3,32.6-16.3c3.7-2.8,16.4-12.7,24-26.9c3.7-7,5.6-13.9,5.8-14.4c1.1-4.2,1.6-7.8,1.9-10.6
								c-1-0.8-2.7-1.8-4.8-1.9c-2.8-0.2-4.7,1.1-6.7,1.9c-3.9,1.5-7.2,0.7-11.5,0c-9.3-1.5-28.6-3-38.4-2.9
								c-8.1,0.1-22.7,0.3-36.5,9.6c0,0-13.2,8.9-18.2,23c-1.5,4.3-4.1,11.5-1,15.4c0.7,0.9,2.4,2.4,1.9,3.8
								c-0.4,1.2-1.9,1.5-2.9,1.9c-3.4,1.5-4.4,5.4-6.7,11.5c-1.2,3.2-3,7.8-5.8,13.4c-1.8-3.2-4.4-7.2-7.7-11.5
								c-5.3-6.8-10.2-11.3-11.5-12.5c-8.7-7.8-16.7-11.7-22.1-14.4c-6.5-3.2-9.8-4.8-14.4-4.8c-6.6,0-11.7,2.9-14.4,4.8
								c0.3,1.9,0.6,3.8,1,5.8c0.6-0.3,1.3-0.6,1.9-1c1-0.9,2.6-2.1,4.8-2.9c3.9-1.5,7.7-1,11.5,0c10.2,2.6,18,7.9,19.2,8.6
								c5.3,3.6,12.9,9.6,20.2,19.2c1.5,1.8,3.3,4.3,4.8,7.7c0.9,2.1,1.5,4.1,1.9,5.8C428.8,95.7,428.2,96.1,427.5,96.4"/>
							<path class="st6" d="M427.5,96.4c-2.5,1.1-4.8,1.6-6.7,1.9c-1.6,1-3.2,1.9-4.8,2.9c-2.2,1.1-5.4,2.9-8.6,5.8
								c-12.2,10.9-13.6,27.1-14.4,35.5c-0.4,4.3-1.3,14.3,1.9,25.9c1,3.7,1.7,4.9,1.9,7.7c0.8,10.7-7.3,19.4-10.6,23
								c0,0-15.8,17.8-28.8,48c-2.7,6.3-9.8,23.3-8.6,45.1c1.4,26,13.9,44.3,19.2,51.8c19.4,27.7,46.1,38.2,56.6,42.2
								c19.4,7.4,35.7,8.1,48,8.6c23.4,1,41.1-2.6,55.7-5.8c14.7-3.2,32.1-6.9,52.8-17.3c14.2-7.1,31.9-16,48-35.5
								c7.5-9.1,19.7-26.6,25-51.8c2.3-11.2,7-35.3-3.8-62.4c-2.7-6.7-12-29.9-34.5-43.2c-2-1.2-1.2-0.6-30.7-11.5
								c-31.3-11.6-35.4-13.5-41.3-17.3c-8-5.2-7.1-6.2-24-18.2c-7.5-5.4-11-7.6-16.3-12.5c-9.6-8.9-7.8-10.7-14.4-16.3
								c-14.1-11.8-32.1-11.7-36.5-11.5c-5.3,0.2-9.6,1.1-12.5,1.9c0.1-1.7,0.3-4,1-6.7c1.6-6,4.6-10,5.8-11.5
								c2.6-3.2,5.5-5.4,7.7-6.7c2.3,1.7,5.5,4.1,9.6,6.7c7.4,4.8,11.1,7.3,15.4,8.6c7.3,2.4,13.6,0.9,21.1-1
								c16.3-4,27.4-12.3,32.6-16.3c3.7-2.8,16.4-12.7,24-26.9c3.7-7,5.6-13.9,5.8-14.4c1.1-4.2,1.6-7.8,1.9-10.6
								c-1-0.8-2.7-1.8-4.8-1.9c-2.8-0.2-4.7,1.1-6.7,1.9c-3.9,1.5-7.2,0.7-11.5,0c-9.3-1.5-28.6-3-38.4-2.9
								c-8.1,0.1-22.7,0.3-36.5,9.6c0,0-13.2,8.9-18.2,23c-1.5,4.3-4.1,11.5-1,15.4c0.7,0.9,2.4,2.4,1.9,3.8
								c-0.4,1.2-1.9,1.5-2.9,1.9c-3.4,1.5-4.4,5.4-6.7,11.5c-1.2,3.2-3,7.8-5.8,13.4c-1.8-3.2-4.4-7.2-7.7-11.5
								c-5.3-6.8-10.2-11.3-11.5-12.5c-8.7-7.8-16.7-11.7-22.1-14.4c-6.5-3.2-9.8-4.8-14.4-4.8c-6.6,0-11.7,2.9-14.4,4.8
								c0.3,1.9,0.6,3.8,1,5.8c0.6-0.3,1.3-0.6,1.9-1c1-0.9,2.6-2.1,4.8-2.9c3.9-1.5,7.7-1,11.5,0c10.2,2.6,18,7.9,19.2,8.6
								c5.3,3.6,12.9,9.6,20.2,19.2c1.5,1.8,3.3,4.3,4.8,7.7c0.9,2.1,1.5,4.1,1.9,5.8C428.8,95.7,428.2,96.1,427.5,96.4z"/>
						</g>
					</g>
				</g>
				<g class="st3">
					<defs>
						<rect id="SVGID_9_" x="80.5" y="12.1" width="839" height="839"/>
					</defs>
					<clipPath id="SVGID_10_">
						<use xlink:href="#SVGID_9_"  style="overflow:visible;"/>
					</clipPath>
					<path class="st7" d="M462.1,47.4c-1.7-2,0.7-6.4,1.9-8.6c0.6-1.1,4.6-8.4,6.7-7.7c1.7,0.6,1.7,6.3,0,10.6
						c-1.1,2.7-3.8,7-6.7,6.7C463.8,48.4,462.7,48.2,462.1,47.4"/>
					<path class="st8" d="M462.1,47.4c-1.7-2,0.7-6.4,1.9-8.6c0.6-1.1,4.6-8.4,6.7-7.7c1.7,0.6,1.7,6.3,0,10.6
						c-1.1,2.7-3.8,7-6.7,6.7C463.8,48.4,462.7,48.2,462.1,47.4z"/>
					<path class="st7" d="M485.1,40.7c2.2,0.7,5.5-3.1,6.7-6.7c0.1-0.4,1.6-4.6,0-5.8c-1.8-1.3-7.5,1.3-8.6,5.8
						C482.5,36.6,483.3,40.1,485.1,40.7"/>
					<path class="st8" d="M485.1,40.7c2.2,0.7,5.5-3.1,6.7-6.7c0.1-0.4,1.6-4.6,0-5.8c-1.8-1.3-7.5,1.3-8.6,5.8
						C482.5,36.6,483.3,40.1,485.1,40.7z"/>
					<path class="st7" d="M509.1,34c1.2,0.4,3.1-1.9,3.8-3.8c0.6-1.6,1-4.2,0-4.8c-1.1-0.6-4,1.3-4.8,3.8
						C507.5,31.1,508,33.6,509.1,34"/>
					<path class="st8" d="M509.1,34c1.2,0.4,3.1-1.9,3.8-3.8c0.6-1.6,1-4.2,0-4.8c-1.1-0.6-4,1.3-4.8,3.8
						C507.5,31.1,508,33.6,509.1,34z"/>
					<path class="st7" d="M527.3,27.3c0.5,0.9,1.9,1.2,2.9,1c1.6-0.4,2.9-2.3,2.9-4.8c-0.2-0.1-2.1-1-3.8,0
						C527.8,24.2,526.7,26.1,527.3,27.3"/>
					<path class="st8" d="M527.3,27.3c0.5,0.9,1.9,1.2,2.9,1c1.6-0.4,2.9-2.3,2.9-4.8c-0.2-0.1-2.1-1-3.8,0
						C527.8,24.2,526.7,26.1,527.3,27.3z"/>
					<path class="st7" d="M460.1,61.8c0.9,1.2,6.6-3.3,17.3-6.7c7.1-2.3,7.4-1.2,17.3-3.8c4-1.1,8.4-2.6,17.3-5.8
						c7.1-2.5,10.8-3.8,15.4-5.8c6-2.6,10.2-4.7,14.4-7.7c1.6-1.1,2.9-2.2,3.8-2.9l-1.9-1c-1.8,0.8-16.7,7.8-27.8,11.5
						c-5.1,1.7-9.6,2.9-9.6,2.9c-0.7,0.2-4,1-8.6,1.9c-7.2,1.4-7.2,0.9-11.5,1.9c-4,0.9-6.7,2-11.5,3.8c-6.9,2.7-8.7,4-9.6,4.8
						C462.3,57.3,459.4,60.9,460.1,61.8"/>
					<path class="st8" d="M460.1,61.8c0.9,1.2,6.6-3.3,17.3-6.7c7.1-2.3,7.4-1.2,17.3-3.8c4-1.1,8.4-2.6,17.3-5.8
						c7.1-2.5,10.8-3.8,15.4-5.8c6-2.6,10.2-4.7,14.4-7.7c1.6-1.1,2.9-2.2,3.8-2.9l-1.9-1c-1.8,0.8-16.7,7.8-27.8,11.5
						c-5.1,1.7-9.6,2.9-9.6,2.9c-0.7,0.2-4,1-8.6,1.9c-7.2,1.4-7.2,0.9-11.5,1.9c-4,0.9-6.7,2-11.5,3.8c-6.9,2.7-8.7,4-9.6,4.8
						C462.3,57.3,459.4,60.9,460.1,61.8z"/>
					<path class="st7" d="M541.7,39.7c0.2-1.9,1.7-3.1,2.9-2.9c1.2,0.2,1.9,1.7,1.9,2.9s-0.7,2.7-1.9,2.9
						C543.4,42.8,541.9,41.6,541.7,39.7"/>
					<path class="st8" d="M541.7,39.7c0.2-1.9,1.7-3.1,2.9-2.9c1.2,0.2,1.9,1.7,1.9,2.9s-0.7,2.7-1.9,2.9
						C543.4,42.8,541.9,41.6,541.7,39.7z"/>
					<path class="st7" d="M522.5,48.4c0.3,1.6,3.2,2.3,5.8,2.9c2.3,0.5,4.1,0.9,4.8,0c0.9-1.2-0.8-3.7-1-3.8
						c-2.6-2.3-5.6-3.1-7.7-1.9C523.5,46,522.3,47.2,522.5,48.4"/>
					<path class="st8" d="M522.5,48.4c0.3,1.6,3.2,2.3,5.8,2.9c2.3,0.5,4.1,0.9,4.8,0c0.9-1.2-0.8-3.7-1-3.8
						c-2.6-2.3-5.6-3.1-7.7-1.9C523.5,46,522.3,47.2,522.5,48.4z"/>
					<path class="st7" d="M509.1,54.1c3.9,0.8,8.9,3.1,8.6,4.8c-0.4,2.4-10.7,2-13.4,1.9c-2.8-0.1-4.9-0.4-5.8-1.9
						c-0.5-0.9-0.4-2,0-2.9C500,53.3,505.8,53.5,509.1,54.1"/>
					<path class="st8" d="M509.1,54.1c3.9,0.8,8.9,3.1,8.6,4.8c-0.4,2.4-10.7,2-13.4,1.9c-2.8-0.1-4.9-0.4-5.8-1.9
						c-0.5-0.9-0.4-2,0-2.9C500,53.3,505.8,53.5,509.1,54.1z"/>
					<path class="st7" d="M473.6,66.6c0.3-1.6,5.1-2,7.7-1.9c7.4,0.1,13.3,4.1,17.3,7.7c-3.4,0.9-9,1.8-15.4,0
						C478.8,71.1,473.2,68.4,473.6,66.6"/>
					<path class="st8" d="M473.6,66.6c0.3-1.6,5.1-2,7.7-1.9c7.4,0.1,13.3,4.1,17.3,7.7c-3.4,0.9-9,1.8-15.4,0
						C478.8,71.1,473.2,68.4,473.6,66.6z"/>
					<path class="st7" d="M413.1,110.8c1.4-1,3.5-1,4.8,0c2,1.5,2.1,5.2,0,6.7c-1.7,1.2-4.4,1-5.8-1
						C410.8,114.6,411.4,112,413.1,110.8"/>
					<path class="st8" d="M413.1,110.8c1.4-1,3.5-1,4.8,0c2,1.5,2.1,5.2,0,6.7c-1.7,1.2-4.4,1-5.8-1
						C410.8,114.6,411.4,112,413.1,110.8z"/>
					<path class="st7" d="M422.7,109.8c-0.9-2.3,6.1-8.9,14.4-9.6c1.9-0.2,7-0.6,10.6,2.9c3.9,3.8,4.4,10.8,1,17.3
						c-2.4-3.1-6.1-6.7-11.5-8.6C429.4,109,423.5,111.7,422.7,109.8"/>
					<path class="st8" d="M422.7,109.8c-0.9-2.3,6.1-8.9,14.4-9.6c1.9-0.2,7-0.6,10.6,2.9c3.9,3.8,4.4,10.8,1,17.3
						c-2.4-3.1-6.1-6.7-11.5-8.6C429.4,109,423.5,111.7,422.7,109.8z"/>
					<path class="st7" d="M422.7,114.6c1.2-2.2,7.9-1.2,12.5,1c0.8,0.4,8.2,4,10.6,12.5c0.5,1.8,2.1,7.4-1,12.5
						c-0.4,0.7-3.1,5.3-5.8,4.8c-3.1-0.5-2.2-7.4-6.7-16.3C427.7,119.8,421.5,116.9,422.7,114.6"/>
					<path class="st8" d="M422.7,114.6c1.2-2.2,7.9-1.2,12.5,1c0.8,0.4,8.2,4,10.6,12.5c0.5,1.8,2.1,7.4-1,12.5
						c-0.4,0.7-3.1,5.3-5.8,4.8c-3.1-0.5-2.2-7.4-6.7-16.3C427.7,119.8,421.5,116.9,422.7,114.6z"/>
					<path class="st7" d="M418.4,119.9c2.5-1,9.5,8.4,12.5,18.2c1.3,4.3,2.9,9.5,0,13.4c-2.3,3.1-6.1,3.7-6.7,3.8
						c-3,0.5-7.1-0.1-7.7-1.9c-0.3-1.1,1-2,1.9-3.8c1.9-3.6,0.7-7.4,0-10.6C416.9,132.3,416,120.9,418.4,119.9"/>
					<path class="st8" d="M418.4,119.9c2.5-1,9.5,8.4,12.5,18.2c1.3,4.3,2.9,9.5,0,13.4c-2.3,3.1-6.1,3.7-6.7,3.8
						c-3,0.5-7.1-0.1-7.7-1.9c-0.3-1.1,1-2,1.9-3.8c1.9-3.6,0.7-7.4,0-10.6C416.9,132.3,416,120.9,418.4,119.9z"/>
					<path class="st7" d="M411.7,121.8c1.9,0.3,2.5,5.2,2.9,7.7c0.2,1.3,0.7,5.6-1,11.5c-1.4,5.1-2.7,9.6-6.7,11.5
						c-2,0.9-5,1.3-7.7,0c-2.5-1.2-4.8-3.9-4.8-6.7c0-3.4,3.3-4.6,7.7-9.6C408.8,128.5,409.4,121.4,411.7,121.8"/>
					<path class="st8" d="M411.7,121.8c1.9,0.3,2.5,5.2,2.9,7.7c0.2,1.3,0.7,5.6-1,11.5c-1.4,5.1-2.7,9.6-6.7,11.5
						c-2,0.9-5,1.3-7.7,0c-2.5-1.2-4.8-3.9-4.8-6.7c0-3.4,3.3-4.6,7.7-9.6C408.8,128.5,409.4,121.4,411.7,121.8z"/>
					<path class="st7" d="M459.7,121.8c1-3.1,1.9-6.3,4.8-8.6c5.8-4.8,14-2.1,14.4-1.9c7.1,2.5,11.7,9.9,10.6,11.5
						c-0.8,1.1-4.5,0.1-6.7-1c-3.3-1.6-3.4-3.3-5.8-3.8c-2.6-0.6-6.3,0.8-7.7,3.8c-1.5,3.4,0.9,7,2.9,8.6c1.1,0.9,2.1,1.2,4.8,1.9
						c2.2,0.6,5.5,1.6,9.6,2.9c-1.4,1.2-4,3-7.7,3.8c-5,1.2-9.1-0.2-11.5-1c-3.7-1.2-6.5-3.1-8.6-4.8
						C458.4,130.8,458.2,126.6,459.7,121.8"/>
					<path class="st8" d="M459.7,121.8c1-3.1,1.9-6.3,4.8-8.6c5.8-4.8,14-2.1,14.4-1.9c7.1,2.5,11.7,9.9,10.6,11.5
						c-0.8,1.1-4.5,0.1-6.7-1c-3.3-1.6-3.4-3.3-5.8-3.8c-2.6-0.6-6.3,0.8-7.7,3.8c-1.5,3.4,0.9,7,2.9,8.6c1.1,0.9,2.1,1.2,4.8,1.9
						c2.2,0.6,5.5,1.6,9.6,2.9c-1.4,1.2-4,3-7.7,3.8c-5,1.2-9.1-0.2-11.5-1c-3.7-1.2-6.5-3.1-8.6-4.8
						C458.4,130.8,458.2,126.6,459.7,121.8z"/>
					<path class="st7" d="M488.5,138.1c-0.6-0.6-10.4,3.9-13.4,13.4c-2,6.3-1.5,16.3,5.8,21.1c7.5,5,18.8,2,24-5.8
						c7.1-10.5-1.4-23.1-1.9-23c-0.5,0.1,3.3,10.4-1.9,17.3c-2.7,3.6-6.7,4.6-7.7,4.8c-0.5,0.1-7.8,1.6-11.5-2.9
						c-2.9-3.6-1.7-8.6-1-11.5C482.9,143,489,138.6,488.5,138.1"/>
					<path class="st8" d="M488.5,138.1c-0.6-0.6-10.4,3.9-13.4,13.4c-2,6.3-1.5,16.3,5.8,21.1c7.5,5,18.8,2,24-5.8
						c7.1-10.5-1.4-23.1-1.9-23c-0.5,0.1,3.3,10.4-1.9,17.3c-2.7,3.6-6.7,4.6-7.7,4.8c-0.5,0.1-7.8,1.6-11.5-2.9
						c-2.9-3.6-1.7-8.6-1-11.5C482.9,143,489,138.6,488.5,138.1z"/>
					<path class="st7" d="M494.2,123.7c-1.6,0.8-1,3.1-2.9,3.8c-2.8,1.1-5.5-3.5-11.5-4.8c-2.7-0.6-5.1-0.3-6.7,0
						c0.4,2,1.4,4.9,3.8,6.7c5,3.6,11.3-0.8,14.4,2.9c2.2,2.6,2.3,8.5,2.2,9.1c0,0.1,0,0.2,0,0.2s-0.1,1.1-0.3,2.2
						c-0.4,2.1-4.3,8.1-2.9,10.6c0.8,1.4,3.4,1.9,4.8,1c1.6-1.1,0.7-3.8,1-8.6c0.3-5,1.9-12,4.8-12.5c1.1-0.2,1.5,0.7,4.8,1.9
						c2.2,0.8,4.4,1.5,4.8,1C511.8,135.5,498.9,121.3,494.2,123.7"/>
					<path class="st8" d="M494.2,123.7c-1.6,0.8-1,3.1-2.9,3.8c-2.8,1.1-5.5-3.5-11.5-4.8c-2.7-0.6-5.1-0.3-6.7,0
						c0.4,2,1.4,4.9,3.8,6.7c5,3.6,11.3-0.8,14.4,2.9c2.2,2.6,2.3,8.5,2.2,9.1c0,0.1,0,0.2,0,0.2s-0.1,1.1-0.3,2.2
						c-0.4,2.1-4.3,8.1-2.9,10.6c0.8,1.4,3.4,1.9,4.8,1c1.6-1.1,0.7-3.8,1-8.6c0.3-5,1.9-12,4.8-12.5c1.1-0.2,1.5,0.7,4.8,1.9
						c2.2,0.8,4.4,1.5,4.8,1C511.8,135.5,498.9,121.3,494.2,123.7z"/>
					<path class="st7" d="M505.7,142.9c-0.7,2.2,4.1,5.6,5.8,6.7c4,2.8,7.7,3.6,8.6,3.8c2.2,0.5,8.8,1.9,10.6-1
						c0.7-1.2,0.4-2.8,0-3.8c-1.7,0.7-4.1,1.4-6.7,1c-6.7-1.2-8.7-8.9-14.4-8.6C508,141.1,506.1,141.7,505.7,142.9"/>
					<path class="st8" d="M505.7,142.9c-0.7,2.2,4.1,5.6,5.8,6.7c4,2.8,7.7,3.6,8.6,3.8c2.2,0.5,8.8,1.9,10.6-1
						c0.7-1.2,0.4-2.8,0-3.8c-1.7,0.7-4.1,1.4-6.7,1c-6.7-1.2-8.7-8.9-14.4-8.6C508,141.1,506.1,141.7,505.7,142.9z"/>
					<path class="st7" d="M437.6,184.2c-3.2-5.3-3.1-12.6,0-18.2c3.4-6.1,11.3-12,18.2-9.6c8.7,3,8.7,16.7,8.6,19.2
						c-0.2,6.5-3,16.7-9.6,18.2c-4.5,1-9.3-2.3-11.5-3.8C441.9,188.9,439.4,187.2,437.6,184.2"/>
					<path class="st8" d="M437.6,184.2c-3.2-5.3-3.1-12.6,0-18.2c3.4-6.1,11.3-12,18.2-9.6c8.7,3,8.7,16.7,8.6,19.2
						c-0.2,6.5-3,16.7-9.6,18.2c-4.5,1-9.3-2.3-11.5-3.8C441.9,188.9,439.4,187.2,437.6,184.2z"/>
					<path class="st7" d="M455.8,198.6c3.4-5.5,10.6-5.7,14.4-5.8c4-0.1,11-0.3,14.4,4.8c2.5,3.7,2.2,9,0,12.5
						c-4.2,6.7-14.6,5.4-19.2,4.8c-3.8-0.5-7.3-0.9-9.6-3.8C453.1,207.5,453.6,202.1,455.8,198.6"/>
					<path class="st8" d="M455.8,198.6c3.4-5.5,10.6-5.7,14.4-5.8c4-0.1,11-0.3,14.4,4.8c2.5,3.7,2.2,9,0,12.5
						c-4.2,6.7-14.6,5.4-19.2,4.8c-3.8-0.5-7.3-0.9-9.6-3.8C453.1,207.5,453.6,202.1,455.8,198.6z"/>
					<path class="st7" d="M441.4,222.6c-3.3,3.1-4.5,7.6-3.8,11.5c1.2,7.3,8.8,10.4,11.5,11.5c2.7,1.1,6.2,2.5,9.6,1
						c4.4-2,5.5-7.3,5.8-8.6c1.2-5.7-0.8-13.9-7.7-17.3C452.3,218.5,445.8,218.4,441.4,222.6"/>
					<path class="st8" d="M441.4,222.6c-3.3,3.1-4.5,7.6-3.8,11.5c1.2,7.3,8.8,10.4,11.5,11.5c2.7,1.1,6.2,2.5,9.6,1
						c4.4-2,5.5-7.3,5.8-8.6c1.2-5.7-0.8-13.9-7.7-17.3C452.3,218.5,445.8,218.4,441.4,222.6z"/>
					<path class="st7" d="M427,212c-1-1.8-3.6-6.2-1.9-10.6c2-5.5,9.5-7.9,15.4-6.7c7.3,1.5,10.4,8.2,10.6,8.6
						c0.5,1.1,2.9,6.7,0,11.5c-3,5-9.8,5.9-14.4,4.8C430.6,218.2,427.7,213.2,427,212"/>
					<path class="st8" d="M427,212c-1-1.8-3.6-6.2-1.9-10.6c2-5.5,9.5-7.9,15.4-6.7c7.3,1.5,10.4,8.2,10.6,8.6
						c0.5,1.1,2.9,6.7,0,11.5c-3,5-9.8,5.9-14.4,4.8C430.6,218.2,427.7,213.2,427,212z"/>
					<path class="st7" d="M427,218.7c-6.5-1.1-12.2,3.1-14.4,4.8c-4.1,3-10.8,8.1-9.6,14.4c0.8,4.4,5.2,8.1,9.6,8.6
						c3.9,0.5,7.4-2.6,14.4-8.6c6.9-6,7.6-8.7,7.7-10.6c0-0.7,0-3.5-1.9-5.8C430.9,219.4,428.4,218.9,427,218.7"/>
					<path class="st8" d="M427,218.7c-6.5-1.1-12.2,3.1-14.4,4.8c-4.1,3-10.8,8.1-9.6,14.4c0.8,4.4,5.2,8.1,9.6,8.6
						c3.9,0.5,7.4-2.6,14.4-8.6c6.9-6,7.6-8.7,7.7-10.6c0-0.7,0-3.5-1.9-5.8C430.9,219.4,428.4,218.9,427,218.7z"/>
					<path class="st7" d="M422.2,207.2c-1.3,6.3-7,10.1-7.7,10.6c-7.5,4.8-17.6,3.6-24-1c-2-1.4-5.6-4-5.8-7.7
						c-0.2-5.7,8.2-10,12.5-11.5c5.4-1.9,11-0.6,22.1,1.9c0.4,0.1,1.2,0.3,1.9,1C423.2,202.3,422.5,206,422.2,207.2"/>
					<path class="st8" d="M422.2,207.2c-1.3,6.3-7,10.1-7.7,10.6c-7.5,4.8-17.6,3.6-24-1c-2-1.4-5.6-4-5.8-7.7
						c-0.2-5.7,8.2-10,12.5-11.5c5.4-1.9,11-0.6,22.1,1.9c0.4,0.1,1.2,0.3,1.9,1C423.2,202.3,422.5,206,422.2,207.2z"/>
					<path class="st7" d="M427,191.8c-1.2,1.4-3.6,3.5-6.7,3.8c-5,0.5-8.9-3.7-13.4-8.6c-4.6-5-7.1-7.7-6.7-11.5
						c0.4-4.8,5-8.3,8.6-9.6c7.4-2.7,15.3,2.1,19.2,6.7c4.2,4.9,7.3,13.5,3.8,17.3C431.1,190.7,429.7,191.7,427,191.8"/>
					<path class="st8" d="M427,191.8c-1.2,1.4-3.6,3.5-6.7,3.8c-5,0.5-8.9-3.7-13.4-8.6c-4.6-5-7.1-7.7-6.7-11.5
						c0.4-4.8,5-8.3,8.6-9.6c7.4-2.7,15.3,2.1,19.2,6.7c4.2,4.9,7.3,13.5,3.8,17.3C431.1,190.7,429.7,191.7,427,191.8z"/>
					<path class="st7" d="M392.5,297.4c3.4,1.5-0.7,11.2,2.9,19.2c2.5,5.6,9.1,11.2,16.3,10.6c9.3-0.8,16.3-11.9,14.4-19.2
						c-1.5-5.8-8.8-9.9-13.4-12.5c-1.5-0.8-2.9-1.5-2.9-1.5c-5.6-2.6-9.6-3-9.6-3.3c0.1-0.8,19.1,5.3,27.8-2.9
						c5.3-5,6.2-14.7,2.9-22.1c-1.1-2.5-4.5-8.4-11.5-10.6c-5.1-1.6-12.3-1.3-16.3,2.9c-4.8,5-4.8,15.3-4.8,15.4
						c-2.7-8.7-6.9-14.2-9.6-17.3c-2.5-2.8-4.8-5.3-8.6-6.7c-1.4-0.5-10.3-3.7-16.3,1.9c-4.8,4.5-4.7,11.7-2.9,16.3
						c3.1,7.9,11.9,10.2,13.4,10.6c4.1,1,7.6,0.2,7.7,1c0.1,0.8-3.6,2.5-7.7,2.9c-5,0.4-6.3-1.5-9.6-1c-4.8,0.8-8.3,5.8-9.6,9.6
						c-2.2,6.3-0.3,13.7,4.8,18.2c0.3,0.2,6.7,5.7,13.4,3.8c1.5-0.4,2.9-1.1,11.5-9.6c2.4-2.3,4.3-4.3,5.8-5.8
						C391.1,297.3,391.8,297.1,392.5,297.4"/>
					<path class="st8" d="M392.5,297.4c3.4,1.5-0.7,11.2,2.9,19.2c2.5,5.6,9.1,11.2,16.3,10.6c9.3-0.8,16.3-11.9,14.4-19.2
						c-1.5-5.8-8.8-9.9-13.4-12.5c-1.5-0.8-2.9-1.5-2.9-1.5c-5.6-2.6-9.6-3-9.6-3.3c0.1-0.8,19.1,5.3,27.8-2.9
						c5.3-5,6.2-14.7,2.9-22.1c-1.1-2.5-4.5-8.4-11.5-10.6c-5.1-1.6-12.3-1.3-16.3,2.9c-4.8,5-4.8,15.3-4.8,15.4
						c-2.7-8.7-6.9-14.2-9.6-17.3c-2.5-2.8-4.8-5.3-8.6-6.7c-1.4-0.5-10.3-3.7-16.3,1.9c-4.8,4.5-4.7,11.7-2.9,16.3
						c3.1,7.9,11.9,10.2,13.4,10.6c4.1,1,7.6,0.2,7.7,1c0.1,0.8-3.6,2.5-7.7,2.9c-5,0.4-6.3-1.5-9.6-1c-4.8,0.8-8.3,5.8-9.6,9.6
						c-2.2,6.3-0.3,13.7,4.8,18.2c0.3,0.2,6.7,5.7,13.4,3.8c1.5-0.4,2.9-1.1,11.5-9.6c2.4-2.3,4.3-4.3,5.8-5.8
						C391.1,297.3,391.8,297.1,392.5,297.4z"/>
					<path class="st7" d="M428,384.7c-1.8-1.7,0.7-7,1.9-9.6c5-10.5,15.7-13.9,17.3-14.4c0.6-0.2,12.2-3.4,23,2.9
						c3.5,2,10.9,7.4,9.6,11.5c-0.8,2.7-5.2,4.4-8.6,3.8c-3.5-0.6-4.5-3.3-6.7-4.8C454.8,367.6,432.3,388.8,428,384.7"/>
					<path class="st8" d="M428,384.7c-1.8-1.7,0.7-7,1.9-9.6c5-10.5,15.7-13.9,17.3-14.4c0.6-0.2,12.2-3.4,23,2.9
						c3.5,2,10.9,7.4,9.6,11.5c-0.8,2.7-5.2,4.4-8.6,3.8c-3.5-0.6-4.5-3.3-6.7-4.8C454.8,367.6,432.3,388.8,428,384.7z"/>
					<path class="st7" d="M437.6,388.6c0-0.7,4.8-0.8,15.4-2.9c9-1.8,11.5-2.9,16.3-1.9c6.7,1.3,9.1,5,9.6,5.8
						c0.5,0.8,1.7,2.7,1,3.8c-0.8,1.3-3.4,1-9.6,0c-5.4-0.9-8.1-1.3-10.6-1.9C446.8,388.4,437.6,389.5,437.6,388.6"/>
					<path class="st8" d="M437.6,388.6c0-0.7,4.8-0.8,15.4-2.9c9-1.8,11.5-2.9,16.3-1.9c6.7,1.3,9.1,5,9.6,5.8
						c0.5,0.8,1.7,2.7,1,3.8c-0.8,1.3-3.4,1-9.6,0c-5.4-0.9-8.1-1.3-10.6-1.9C446.8,388.4,437.6,389.5,437.6,388.6z"/>
					<path class="st7" d="M422.2,378c-3,0.3-7.5-9.7-6.7-19.2c0.3-3.4,0.8-9.4,5.8-13.4c7.5-6.1,17.7-1.2,18.2-1
						c1.7,0.8,4.5,2.2,4.8,4.8c0.2,1.9-1.1,4.1-2.9,4.8c-2.9,1.2-5-2.2-7.7-1.9C426.9,352.9,426.8,377.6,422.2,378"/>
					<path class="st8" d="M422.2,378c-3,0.3-7.5-9.7-6.7-19.2c0.3-3.4,0.8-9.4,5.8-13.4c7.5-6.1,17.7-1.2,18.2-1
						c1.7,0.8,4.5,2.2,4.8,4.8c0.2,1.9-1.1,4.1-2.9,4.8c-2.9,1.2-5-2.2-7.7-1.9C426.9,352.9,426.8,377.6,422.2,378z"/>
					<path class="st7" d="M414.6,379c0,0-0.3-0.1-1.6-1.1c-1.9-1.3-6.3-4.5-9.9-9.5c-3.3-4.7-5.5-7.7-4.8-11.5
						c0.6-3.2,2.9-6.2,5.8-7.7c3-1.6,5.4-0.8,5.8-1.9c0.4-1.4-3-4.1-6.7-4.8c-3.4-0.6-7.1,0.5-9.6,2.9c-4.4,4.2-4.1,12-1.9,17.3
						C396.6,374.6,414.4,379.3,414.6,379"/>
					<path class="st8" d="M414.6,379c0,0-0.3-0.1-1.6-1.1c-1.9-1.3-6.3-4.5-9.9-9.5c-3.3-4.7-5.5-7.7-4.8-11.5
						c0.6-3.2,2.9-6.2,5.8-7.7c3-1.6,5.4-0.8,5.8-1.9c0.4-1.4-3-4.1-6.7-4.8c-3.4-0.6-7.1,0.5-9.6,2.9c-4.4,4.2-4.1,12-1.9,17.3
						C396.6,374.6,414.4,379.3,414.6,379z"/>
					<path class="st7" d="M494.2,280.1c-2.1-4.5,5.9-15.3,16.3-17.3c1.2-0.2,9.3-1.8,13.4,2.9c5.1,5.7,1.3,17.1-4.8,23
						c-5.2,5-14,8-18.2,4.8c-1.8-1.3-3.8-4.6-2.9-6.7c0.4-0.9,1.1-1.3,1.5-1.5c2.2-1.4,4.7-0.3,6.2-0.4c2.2-0.1,5.2-2.4,8.6-12.5
						c-4.5,3.5-9,7-13.4,10.6C496.5,282.7,494.8,281.4,494.2,280.1"/>
					<path class="st8" d="M494.2,280.1c-2.1-4.5,5.9-15.3,16.3-17.3c1.2-0.2,9.3-1.8,13.4,2.9c5.1,5.7,1.3,17.1-4.8,23
						c-5.2,5-14,8-18.2,4.8c-1.8-1.3-3.8-4.6-2.9-6.7c0.4-0.9,1.1-1.3,1.5-1.5c2.2-1.4,4.7-0.3,6.2-0.4c2.2-0.1,5.2-2.4,8.6-12.5
						c-4.5,3.5-9,7-13.4,10.6C496.5,282.7,494.8,281.4,494.2,280.1z"/>
					<path class="st7" d="M499,301.2c0.9-2.9,8.2-2.9,8.6-2.9c8.7,0.1,14.5,6.6,15.4,7.7c2.2,2.5,6.3,7.4,4.8,12.5
						c-1.6,5.5-8.6,7.2-10.6,7.7c-6.2,1.5-11.2-0.6-14.4-1.9c-3.6-1.5-8.7-3.7-10.6-8.6c-1.3-3.4-0.8-7.9,1-8.6
						c1-0.4,1.8,0.5,4.8,1.9c2.8,1.3,7.1,2.7,7.7,1.9C506.5,309.6,498,304.7,499,301.2"/>
					<path class="st8" d="M499,301.2c0.9-2.9,8.2-2.9,8.6-2.9c8.7,0.1,14.5,6.6,15.4,7.7c2.2,2.5,6.3,7.4,4.8,12.5
						c-1.6,5.5-8.6,7.2-10.6,7.7c-6.2,1.5-11.2-0.6-14.4-1.9c-3.6-1.5-8.7-3.7-10.6-8.6c-1.3-3.4-0.8-7.9,1-8.6
						c1-0.4,1.8,0.5,4.8,1.9c2.8,1.3,7.1,2.7,7.7,1.9C506.5,309.6,498,304.7,499,301.2z"/>
					<path class="st7" d="M474.1,311.8c-1.8-0.5-5.3,5.1-6.7,10.6c-0.6,2.5-2,8,1,13.4c0.5,1,4.2,7.8,10.6,7.7
						c5.9-0.1,9.3-6.1,9.6-6.7c3.3-6,0.7-12.9-1-17.3c-1.5-3.9-3.4-6.8-4.8-8.6c-0.4,4-0.3,7.3,0,9.6c0.5,4.5,1.5,7,0,8.6
						c-1.1,1.2-3.3,1.7-4.8,1C472.8,327.6,476.8,312.6,474.1,311.8"/>
					<path class="st8" d="M474.1,311.8c-1.8-0.5-5.3,5.1-6.7,10.6c-0.6,2.5-2,8,1,13.4c0.5,1,4.2,7.8,10.6,7.7
						c5.9-0.1,9.3-6.1,9.6-6.7c3.3-6,0.7-12.9-1-17.3c-1.5-3.9-3.4-6.8-4.8-8.6c-0.4,4-0.3,7.3,0,9.6c0.5,4.5,1.5,7,0,8.6
						c-1.1,1.2-3.3,1.7-4.8,1C472.8,327.6,476.8,312.6,474.1,311.8z"/>
					<path class="st7" d="M478.9,281.1c-0.5,0.1-9.3,2.9-11.5,11.5c-0.4,1.4-2.2,7.7,1.9,12.5c4,4.7,10.4,4,11.5,3.8
						c5.6-0.7,8.8-4.6,9.6-5.8c0.9-1.1,3.4-4.7,2.9-9.6c-0.4-3.4-2.1-5.7-2.9-6.7c-1.9,0.5-2.6,1.3-2.9,1.9c-0.7,1.5,0.6,2.7,0,4.8
						c0,0.2-0.5,1.8-1.9,2.9c-1.7,1.3-4.7,1.8-6.7,0c-2.5-2.2-1.7-6.3,0-7.7c1.4-1.1,2.8-0.1,5.8-1c2.2-0.6,3.7-1.9,4.8-2.9"/>
					<path class="st8" d="M478.9,281.1c-0.5,0.1-9.3,2.9-11.5,11.5c-0.4,1.4-2.2,7.7,1.9,12.5c4,4.7,10.4,4,11.5,3.8
						c5.6-0.7,8.8-4.6,9.6-5.8c0.9-1.1,3.4-4.7,2.9-9.6c-0.4-3.4-2.1-5.7-2.9-6.7c-1.9,0.5-2.6,1.3-2.9,1.9c-0.7,1.5,0.6,2.7,0,4.8
						c0,0.2-0.5,1.8-1.9,2.9c-1.7,1.3-4.7,1.8-6.7,0c-2.5-2.2-1.7-6.3,0-7.7c1.4-1.1,2.8-0.1,5.8-1c2.2-0.6,3.7-1.9,4.8-2.9"/>
					<path class="st7" d="M538.4,193.8c-2.1-0.1-3.6-6.5-3.8-10.6c-0.3-3.8-0.6-8.6,2.9-12.5c4.7-5.2,11.9-3.9,12.5-3.8
						c1.2,0.2,4.8,0.9,6.7,3.8c0.8,1.2,1.9,3.6,1,4.8c-1.2,1.6-4.4-0.7-7.7,0C542.3,177.2,541.7,193.9,538.4,193.8"/>
					<path class="st8" d="M538.4,193.8c-2.1-0.1-3.6-6.5-3.8-10.6c-0.3-3.8-0.6-8.6,2.9-12.5c4.7-5.2,11.9-3.9,12.5-3.8
						c1.2,0.2,4.8,0.9,6.7,3.8c0.8,1.2,1.9,3.6,1,4.8c-1.2,1.6-4.4-0.7-7.7,0C542.3,177.2,541.7,193.9,538.4,193.8z"/>
					<path class="st7" d="M544.1,193.8c1.2-3.6,4.6-9.1,11.5-12.5c2.4-1.1,8.8-4.3,16.3-1.9c0.6,0.2,9.7,3.2,11.5,10.6
						c0.7,2.8,0.4,6.2-1,6.7c-1.5,0.5-2.8-3.1-6.7-4.8c-3.4-1.5-6.7-0.7-9.6,0c-7.3,1.8-8.8,5.6-16.3,6.7c-4.2,0.6-5.3-0.4-5.8-1
						C543.5,196.8,543.5,195.6,544.1,193.8"/>
					<path class="st8" d="M544.1,193.8c1.2-3.6,4.6-9.1,11.5-12.5c2.4-1.1,8.8-4.3,16.3-1.9c0.6,0.2,9.7,3.2,11.5,10.6
						c0.7,2.8,0.4,6.2-1,6.7c-1.5,0.5-2.8-3.1-6.7-4.8c-3.4-1.5-6.7-0.7-9.6,0c-7.3,1.8-8.8,5.6-16.3,6.7c-4.2,0.6-5.3-0.4-5.8-1
						C543.5,196.8,543.5,195.6,544.1,193.8z"/>
					<path class="st7" d="M548,203.4c1.3-4.2,12.2-4,20.2-3.8c8.4,0.1,12.6,0.3,15.4,2.9c4.6,4.4,5.3,13.4,1.9,16.3
						c-0.9,0.8-2.6,1.5-3.8,1c-2.5-1.1-0.8-5.7-2.9-8.6c-4.8-6.7-24.5,3.2-29.7-3.8C548.8,207,547.4,205.1,548,203.4"/>
					<path class="st8" d="M548,203.4c1.3-4.2,12.2-4,20.2-3.8c8.4,0.1,12.6,0.3,15.4,2.9c4.6,4.4,5.3,13.4,1.9,16.3
						c-0.9,0.8-2.6,1.5-3.8,1c-2.5-1.1-0.8-5.7-2.9-8.6c-4.8-6.7-24.5,3.2-29.7-3.8C548.8,207,547.4,205.1,548,203.4z"/>
					<path class="st7" d="M547,212c0.9-1.1,3.3-0.6,5.8,0c3.9,0.9,14.4,3.5,19.2,13.4c1.3,2.8,4.7,9.7,1,15.4
						c-3.1,4.8-9.8,6.3-14.4,4.8c-0.6-0.2-3.7-1.2-3.8-2.9c-0.2-2.5,6.1-3.3,6.7-6.7c0.4-2.5-2.6-3.9-6.7-8.6
						C550.1,222.2,545.2,214.3,547,212"/>
					<path class="st8" d="M547,212c0.9-1.1,3.3-0.6,5.8,0c3.9,0.9,14.4,3.5,19.2,13.4c1.3,2.8,4.7,9.7,1,15.4
						c-3.1,4.8-9.8,6.3-14.4,4.8c-0.6-0.2-3.7-1.2-3.8-2.9c-0.2-2.5,6.1-3.3,6.7-6.7c0.4-2.5-2.6-3.9-6.7-8.6
						C550.1,222.2,545.2,214.3,547,212z"/>
					<path class="st7" d="M536.4,214.9c1.2-0.7,3.1,0.5,3.8,1c7.2,4.6,10.8,20.9,2.9,29.7c-4.2,4.7-12.9,8.7-19.2,4.8
						c-4.4-2.7-5.5-8.1-5.8-9.6c0.6,0.5,5.5,4.6,10.6,2.9c4.3-1.5,5.9-6.3,6.7-8.6C538.7,225.2,533.6,216.5,536.4,214.9"/>
					<path class="st8" d="M536.4,214.9c1.2-0.7,3.1,0.5,3.8,1c7.2,4.6,10.8,20.9,2.9,29.7c-4.2,4.7-12.9,8.7-19.2,4.8
						c-4.4-2.7-5.5-8.1-5.8-9.6c0.6,0.5,5.5,4.6,10.6,2.9c4.3-1.5,5.9-6.3,6.7-8.6C538.7,225.2,533.6,216.5,536.4,214.9z"/>
					<path class="st7" d="M531.6,213c0,2.4-0.2,6.3-1.9,10.6c-1,2.6-4.4,10.9-12.5,13.4c-1.4,0.4-6.7,2-11.5-1
						c-4.3-2.7-5.4-7.2-5.8-8.6c-0.5-1.9-1-3.9,0-4.8c1.8-1.6,6.5,3.1,11.5,3.8C516,227.1,522.5,224.9,531.6,213"/>
					<path class="st8" d="M531.6,213c0,2.4-0.2,6.3-1.9,10.6c-1,2.6-4.4,10.9-12.5,13.4c-1.4,0.4-6.7,2-11.5-1
						c-4.3-2.7-5.4-7.2-5.8-8.6c-0.5-1.9-1-3.9,0-4.8c1.8-1.6,6.5,3.1,11.5,3.8C516,227.1,522.5,224.9,531.6,213z"/>
					<path class="st7" d="M528.8,207.2c0.6,1.3-3.4,4.7-6.7,6.7c-1.4,0.8-10.9,6.3-20.2,1.9c-1.5-0.7-6.2-2.9-7.7-7.7
						c-1.2-3.8-0.3-8.9,1.9-9.6c0.5-0.2,1.5-0.1,2.9,1c0.5,2.8,1.7,6.4,4.8,8.6C512.1,214.2,527.6,204.8,528.8,207.2"/>
					<path class="st8" d="M528.8,207.2c0.6,1.3-3.4,4.7-6.7,6.7c-1.4,0.8-10.9,6.3-20.2,1.9c-1.5-0.7-6.2-2.9-7.7-7.7
						c-1.2-3.8-0.3-8.9,1.9-9.6c0.5-0.2,1.5-0.1,2.9,1c0.5,2.8,1.7,6.4,4.8,8.6C512.1,214.2,527.6,204.8,528.8,207.2z"/>
					<path class="st7" d="M535.5,203.4c1.1-1.8,3.6-3,5.8-1.9c2.2,1.1,2.8,4,1.9,5.8c-1.3,2.7-6,3.1-7.7,1
						C534.4,206.9,534.6,204.8,535.5,203.4"/>
					<path class="st8" d="M535.5,203.4c1.1-1.8,3.6-3,5.8-1.9c2.2,1.1,2.8,4,1.9,5.8c-1.3,2.7-6,3.1-7.7,1
						C534.4,206.9,534.6,204.8,535.5,203.4z"/>
					<path class="st7" d="M529.7,191.8c-8.3-8.1-8.6-8.7-8.6-9.6c0-3.4,4.8-4.1,6.7-10.6c0.8-2.6,0.3-3.4,0-3.8
						c-1.4-1.8-5.5-0.9-7.7,0c-3.8,1.5-8.1,5.4-8.6,10.6c-0.8,7.7,7.7,13.2,12.5,16.3c3,2,5.4,2.4,7.7,2.9c2.5,0.5,2.8,0.1,2.9,0
						C535,196.9,532.9,195,529.7,191.8"/>
					<path class="st8" d="M529.7,191.8c-8.3-8.1-8.6-8.7-8.6-9.6c0-3.4,4.8-4.1,6.7-10.6c0.8-2.6,0.3-3.4,0-3.8
						c-1.4-1.8-5.5-0.9-7.7,0c-3.8,1.5-8.1,5.4-8.6,10.6c-0.8,7.7,7.7,13.2,12.5,16.3c3,2,5.4,2.4,7.7,2.9c2.5,0.5,2.8,0.1,2.9,0
						C535,196.9,532.9,195,529.7,191.8z"/>
					<path class="st7" d="M509.6,193.8c-0.7-0.9-2.6-3.3-2.9-6.7c-0.3-4.2,2-6.3,1-7.7c-1.3-1.6-6.3-0.9-8.6,1.9
						c-3.1,3.8-0.8,10.6,1.9,14.4c3.2,4.5,7.9,5.9,13.4,7.7c6,1.9,16,3.7,17.3,1c0.6-1.4-1-3.8-2.9-4.8c-2.3-1.3-4,0.1-7.7,0
						C516.8,199.4,512.3,197.2,509.6,193.8"/>
					<path class="st8" d="M509.6,193.8c-0.7-0.9-2.6-3.3-2.9-6.7c-0.3-4.2,2-6.3,1-7.7c-1.3-1.6-6.3-0.9-8.6,1.9
						c-3.1,3.8-0.8,10.6,1.9,14.4c3.2,4.5,7.9,5.9,13.4,7.7c6,1.9,16,3.7,17.3,1c0.6-1.4-1-3.8-2.9-4.8c-2.3-1.3-4,0.1-7.7,0
						C516.8,199.4,512.3,197.2,509.6,193.8z"/>
					<path class="st7" d="M589.2,309.9c-1.4-0.1-3.2,7.3-3.8,10.6c-1.1,5.7-0.4,6.9-1.9,9.6c-1.7,2.9-5.3,6.4-8.6,5.8
						c-3.8-0.7-3.7-6.2-8.6-7.7c-2-0.6-4.8-0.5-5.8,1c-1.4,2.2,2,7,4.8,9.6c4.6,4.1,10.3,4.7,13.4,4.8c1.8-1.5,4.3-4.1,6.7-7.7
						c1.8-2.7,5.2-8,5.8-15.4C591.5,315.4,590.4,310,589.2,309.9"/>
					<path class="st8" d="M589.2,309.9c-1.4-0.1-3.2,7.3-3.8,10.6c-1.1,5.7-0.4,6.9-1.9,9.6c-1.7,2.9-5.3,6.4-8.6,5.8
						c-3.8-0.7-3.7-6.2-8.6-7.7c-2-0.6-4.8-0.5-5.8,1c-1.4,2.2,2,7,4.8,9.6c4.6,4.1,10.3,4.7,13.4,4.8c1.8-1.5,4.3-4.1,6.7-7.7
						c1.8-2.7,5.2-8,5.8-15.4C591.5,315.4,590.4,310,589.2,309.9z"/>
					<path class="st7" d="M580.6,301.2c-1.6-0.7-3.4,2.8-7.7,5.8c-4.4,3-12.1,5.9-16.3,2.9c-2.7-2-3.6-6.2-3.8-7.7
						c-0.7-3.7,0.2-6.1-1-6.7c-1.2-0.6-3.6,0.9-4.8,2.9c-1.9,3.3,0,7.4,1,9.6c1,2.3,3.1,6.8,7.7,8.6c4,1.6,7.8,0.1,15.4-2.9
						c5.3-2.1,9.6-3.9,10.6-7.7C582,304.2,581.7,301.7,580.6,301.2"/>
					<path class="st8" d="M580.6,301.2c-1.6-0.7-3.4,2.8-7.7,5.8c-4.4,3-12.1,5.9-16.3,2.9c-2.7-2-3.6-6.2-3.8-7.7
						c-0.7-3.7,0.2-6.1-1-6.7c-1.2-0.6-3.6,0.9-4.8,2.9c-1.9,3.3,0,7.4,1,9.6c1,2.3,3.1,6.8,7.7,8.6c4,1.6,7.8,0.1,15.4-2.9
						c5.3-2.1,9.6-3.9,10.6-7.7C582,304.2,581.7,301.7,580.6,301.2z"/>
					<path class="st7" d="M579.6,294.5c0-1.3-6-2.4-8.6-2.9c-6.1-1.1-7.5-0.4-9.6-1.9c-2.3-1.6-4-4.7-3.8-7.7
						c0.2-4.6,4.7-6.3,3.8-8.6c-0.7-2.1-5.1-3.4-7.7-1.9c-3.6,2-3,8.9-1.9,12.5c2.2,7.6,9.2,10.9,10.6,11.5c6.2,2.8,11.8,1.4,13.4,1
						C576.7,296.2,579.6,295.5,579.6,294.5"/>
					<path class="st8" d="M579.6,294.5c0-1.3-6-2.4-8.6-2.9c-6.1-1.1-7.5-0.4-9.6-1.9c-2.3-1.6-4-4.7-3.8-7.7
						c0.2-4.6,4.7-6.3,3.8-8.6c-0.7-2.1-5.1-3.4-7.7-1.9c-3.6,2-3,8.9-1.9,12.5c2.2,7.6,9.2,10.9,10.6,11.5c6.2,2.8,11.8,1.4,13.4,1
						C576.7,296.2,579.6,295.5,579.6,294.5z"/>
					<path class="st7" d="M594,295.5c-2.1-1.1-4.7,0.9-4.8,1c-1.3,1-2.7,3.1-1.9,4.8c0.6,1.3,2.2,1.7,2.9,1.9c0.6,0.2,3.3,0.7,4.8-1
						C596.7,300.3,596.2,296.6,594,295.5"/>
					<path class="st8" d="M594,295.5c-2.1-1.1-4.7,0.9-4.8,1c-1.3,1-2.7,3.1-1.9,4.8c0.6,1.3,2.2,1.7,2.9,1.9c0.6,0.2,3.3,0.7,4.8-1
						C596.7,300.3,596.2,296.6,594,295.5z"/>
					<path class="st7" d="M583.5,289.7c-5-5.7-7.6-12-8.6-16.3c-0.7-3.2-1.3-5.6,0-7.7c2.1-3.5,7.2-2.7,7.7-4.8
						c0.4-2.2-4.3-6.3-8.6-5.8c-4.9,0.6-7.8,6.8-8.6,10.6c-2.4,10.3,5.7,21,13.4,25c2,1,6.2,2.7,6.7,1.9
						C585.7,292.1,584.5,290.9,583.5,289.7"/>
					<path class="st8" d="M583.5,289.7c-5-5.7-7.6-12-8.6-16.3c-0.7-3.2-1.3-5.6,0-7.7c2.1-3.5,7.2-2.7,7.7-4.8
						c0.4-2.2-4.3-6.3-8.6-5.8c-4.9,0.6-7.8,6.8-8.6,10.6c-2.4,10.3,5.7,21,13.4,25c2,1,6.2,2.7,6.7,1.9
						C585.7,292.1,584.5,290.9,583.5,289.7z"/>
					<path class="st7" d="M591.1,291.7c0.9-0.4-3.3-8.4-1.9-19.2c0.4-3.1,1-7.2,3.8-8.6c3.3-1.6,6.9,1.7,8.6,0
						c1.4-1.4,0.6-5.5-1.9-7.7c-2.3-1.9-5.5-1.8-7.7-1c-4.3,1.7-5.6,7-6.7,11.5c-1.8,7.2-0.4,12.9,0,14.4
						C587,287.1,590.4,292,591.1,291.7"/>
					<path class="st8" d="M591.1,291.7c0.9-0.4-3.3-8.4-1.9-19.2c0.4-3.1,1-7.2,3.8-8.6c3.3-1.6,6.9,1.7,8.6,0
						c1.4-1.4,0.6-5.5-1.9-7.7c-2.3-1.9-5.5-1.8-7.7-1c-4.3,1.7-5.6,7-6.7,11.5c-1.8,7.2-0.4,12.9,0,14.4
						C587,287.1,590.4,292,591.1,291.7z"/>
					<path class="st7" d="M597.9,289.7c5.2-7.5,2.6-13.1,6.7-16.3c2.6-2,7-2.4,9.6-1c1.2,0.7,1.6,1.5,3.8,2.9c2,1.2,4,2.5,4.8,1.9
						c1.3-1,0.2-7.5-3.8-10.6c-5.1-3.9-14-1.7-19.2,2.9c-8.8,7.7-6.9,22.4-4.8,23C595.7,292.8,596.7,291.4,597.9,289.7"/>
					<path class="st8" d="M597.9,289.7c5.2-7.5,2.6-13.1,6.7-16.3c2.6-2,7-2.4,9.6-1c1.2,0.7,1.6,1.5,3.8,2.9c2,1.2,4,2.5,4.8,1.9
						c1.3-1,0.2-7.5-3.8-10.6c-5.1-3.9-14-1.7-19.2,2.9c-8.8,7.7-6.9,22.4-4.8,23C595.7,292.8,596.7,291.4,597.9,289.7z"/>
					<path class="st7" d="M601.7,293.6c-0.7-2.4,5.4-7,11.5-8.6c3.2-0.9,8.9-2.5,13.4,1c6.4,4.8,4,14.5,3.8,15.4
						c-0.2,0.7-1.2,4.7-2.9,4.8c-1.4,0.1-2.7-2.5-4.8-6.7c-2.9-5.9-2.5-7.1-3.8-7.7c-3.3-1.5-7,4.7-13.4,3.8
						C604.8,295.4,602.1,295,601.7,293.6"/>
					<path class="st8" d="M601.7,293.6c-0.7-2.4,5.4-7,11.5-8.6c3.2-0.9,8.9-2.5,13.4,1c6.4,4.8,4,14.5,3.8,15.4
						c-0.2,0.7-1.2,4.7-2.9,4.8c-1.4,0.1-2.7-2.5-4.8-6.7c-2.9-5.9-2.5-7.1-3.8-7.7c-3.3-1.5-7,4.7-13.4,3.8
						C604.8,295.4,602.1,295,601.7,293.6z"/>
					<path class="st7" d="M598.8,300.3c1.5-2.4,9.7-0.1,15.4,2.9c3.4,1.8,9.7,5.2,12.5,12.5c2.6,6.9,2,16.6-2.9,19.2
						c-2.6,1.4-6.7,0.9-7.7-1c-0.9-1.7,1.4-3.3,1.9-6.7c0.9-6-4.7-11.5-5.8-12.5c-4.6-4.5-8.1-3.6-11.5-8.6
						C599.9,304.8,597.8,301.8,598.8,300.3"/>
					<path class="st8" d="M598.8,300.3c1.5-2.4,9.7-0.1,15.4,2.9c3.4,1.8,9.7,5.2,12.5,12.5c2.6,6.9,2,16.6-2.9,19.2
						c-2.6,1.4-6.7,0.9-7.7-1c-0.9-1.7,1.4-3.3,1.9-6.7c0.9-6-4.7-11.5-5.8-12.5c-4.6-4.5-8.1-3.6-11.5-8.6
						C599.9,304.8,597.8,301.8,598.8,300.3z"/>
					<path class="st7" d="M594,307c2-1.5,10.3,4.3,14.4,12.5c2.8,5.7,5.2,15.7,0,22.1c-2.6,3.3-7.7,6.2-11.5,4.8
						c-1.4-0.5-3-1.7-2.9-2.9c0.1-1.7,3.9-1.5,5.8-3.8c2.2-2.7,0.4-7-1.9-14.4C594.3,313.8,592.5,308.1,594,307"/>
					<path class="st8" d="M594,307c2-1.5,10.3,4.3,14.4,12.5c2.8,5.7,5.2,15.7,0,22.1c-2.6,3.3-7.7,6.2-11.5,4.8
						c-1.4-0.5-3-1.7-2.9-2.9c0.1-1.7,3.9-1.5,5.8-3.8c2.2-2.7,0.4-7-1.9-14.4C594.3,313.8,592.5,308.1,594,307z"/>
					<path class="st7" d="M527.8,366.5c-1,1.2-7.1-2.4-9.6-3.8c-3.9-2.3-7.6-4.5-7.7-7.7c0-1.4,0.6-3.3,1.9-3.8
						C517.2,349.1,529.5,364.5,527.8,366.5"/>
					<path class="st8" d="M527.8,366.5c-1,1.2-7.1-2.4-9.6-3.8c-3.9-2.3-7.6-4.5-7.7-7.7c0-1.4,0.6-3.3,1.9-3.8
						C517.2,349.1,529.5,364.5,527.8,366.5z"/>
					<path class="st7" d="M532.6,365.5c-3.4-1.4-3.4-7.5-2.9-10.6c0.6-3.6,3-8.6,5.8-8.6c3.2,0,5.9,4.9,6.5,8.8
						c0.2,1.1,0.4,3.3-0.7,5.6C539.6,364,535.5,366.7,532.6,365.5"/>
					<path class="st8" d="M532.6,365.5c-3.4-1.4-3.4-7.5-2.9-10.6c0.6-3.6,3-8.6,5.8-8.6c3.2,0,5.9,4.9,6.5,8.8
						c0.2,1.1,0.4,3.3-0.7,5.6C539.6,364,535.5,366.7,532.6,365.5z"/>
					<path class="st7" d="M546,358.8c0.2-0.4,2.6,1.6,5.8,1c0.2,0,3.8-0.8,4.8-3.8c1.1-3.3-1.4-7.4-3.8-7.7
						c-3.1-0.4-4.9,5.4-7.7,4.8c-1.9-0.4-3.3-3.4-2.9-5.8c0.6-3.5,4.9-5.4,7.7-5.8c5.7-0.8,10.9,3.4,13.4,7.7
						c0.3,0.6,4.6,8.2,1,12.5c-3.1,3.6-9.5,2.2-10.6,1.9C549,362.5,545.8,359.2,546,358.8"/>
					<path class="st8" d="M546,358.8c0.2-0.4,2.6,1.6,5.8,1c0.2,0,3.8-0.8,4.8-3.8c1.1-3.3-1.4-7.4-3.8-7.7
						c-3.1-0.4-4.9,5.4-7.7,4.8c-1.9-0.4-3.3-3.4-2.9-5.8c0.6-3.5,4.9-5.4,7.7-5.8c5.7-0.8,10.9,3.4,13.4,7.7
						c0.3,0.6,4.6,8.2,1,12.5c-3.1,3.6-9.5,2.2-10.6,1.9C549,362.5,545.8,359.2,546,358.8z"/>
					<path class="st7" d="M539.3,368.4c0.9-2.4,9.5-1.2,11.5-1c3.8,0.5,6.6,0.9,6.7,1.9c0.3,1.9-8.4,7-14.4,3.8
						C541.1,372.1,538.8,369.8,539.3,368.4"/>
					<path class="st8" d="M539.3,368.4c0.9-2.4,9.5-1.2,11.5-1c3.8,0.5,6.6,0.9,6.7,1.9c0.3,1.9-8.4,7-14.4,3.8
						C541.1,372.1,538.8,369.8,539.3,368.4z"/>
					<path class="st7" d="M539.3,374.2c-2-0.1-3.9,1.2-4.8,2.9c-1.3,2.4-0.8,6,1.9,7.7c2.9,1.7,6.4,0.3,7.7-1.9
						C545.9,379.6,542.9,374.4,539.3,374.2"/>
					<path class="st8" d="M539.3,374.2c-2-0.1-3.9,1.2-4.8,2.9c-1.3,2.4-0.8,6,1.9,7.7c2.9,1.7,6.4,0.3,7.7-1.9
						C545.9,379.6,542.9,374.4,539.3,374.2z"/>
					<path class="st7" d="M530.7,374.2c1.9,1.1,1.9,5.1,1,7.7c-1.3,3.6-4.5,5.1-5.8,5.8c-0.8,0.4-5.2,2.5-6.7,1
						c-1.7-1.7,0.7-7.2,3.8-10.6C523.4,377.6,528.1,372.7,530.7,374.2"/>
					<path class="st8" d="M530.7,374.2c1.9,1.1,1.9,5.1,1,7.7c-1.3,3.6-4.5,5.1-5.8,5.8c-0.8,0.4-5.2,2.5-6.7,1
						c-1.7-1.7,0.7-7.2,3.8-10.6C523.4,377.6,528.1,372.7,530.7,374.2z"/>
					<path class="st7" d="M524,369.4c-0.2-0.7-0.9-1.6-9.6-2.9c-4.9-0.7-6.7-0.7-8.6,0c-0.6,0.2-3.8,1.3-3.8,2.9
						c0,1.1,1.7,1.9,3.8,2.9c2.3,1,5.3,2.4,9.6,2.3c2.8,0,5.9-0.1,7.6-2.3C523.3,371.8,524.3,370.6,524,369.4"/>
					<path class="st8" d="M524,369.4c-0.2-0.7-0.9-1.6-9.6-2.9c-4.9-0.7-6.7-0.7-8.6,0c-0.6,0.2-3.8,1.3-3.8,2.9
						c0,1.1,1.7,1.9,3.8,2.9c2.3,1,5.3,2.4,9.6,2.3c2.8,0,5.9-0.1,7.6-2.3C523.3,371.8,524.3,370.6,524,369.4z"/>
					<path class="st7" d="M517.2,378c0.7,1.3,0.3,2.9,0,3.8c-0.9,3.2-3.5,4.9-4.8,5.8c-1.6,1-7.4,4.8-11.5,1.9
						c-2-1.4-3.3-4.2-2.9-6.7c0.8-5,8-6.4,9.6-6.7C508.1,376,515.4,374.7,517.2,378"/>
					<path class="st8" d="M517.2,378c0.7,1.3,0.3,2.9,0,3.8c-0.9,3.2-3.5,4.9-4.8,5.8c-1.6,1-7.4,4.8-11.5,1.9
						c-2-1.4-3.3-4.2-2.9-6.7c0.8-5,8-6.4,9.6-6.7C508.1,376,515.4,374.7,517.2,378z"/>
					<path class="st7" d="M547,376.1c-1.3,1.6-1.4,4.4,0,5.8c1.3,1.2,3.2,0.7,5.8,0c0.5-0.1,6.8-1.8,6.7-3.8
						c-0.1-1.9-5.4-2.8-5.8-2.9C551.4,374.7,548.6,374.3,547,376.1"/>
					<path class="st8" d="M547,376.1c-1.3,1.6-1.4,4.4,0,5.8c1.3,1.2,3.2,0.7,5.8,0c0.5-0.1,6.8-1.8,6.7-3.8
						c-0.1-1.9-5.4-2.8-5.8-2.9C551.4,374.7,548.6,374.3,547,376.1z"/>
					<path class="st7" d="M523,353.1c-5.5,0.7-9.3-6.2-9.6-6.7c-0.8-1.4-3.3-6.2-1-9.6c2.2-3.2,7.3-3.4,10.6-1.9
						c5.6,2.5,7.9,11,4.8,15.4C526.1,352.6,523.2,353,523,353.1"/>
					<path class="st8" d="M523,353.1c-5.5,0.7-9.3-6.2-9.6-6.7c-0.8-1.4-3.3-6.2-1-9.6c2.2-3.2,7.3-3.4,10.6-1.9
						c5.6,2.5,7.9,11,4.8,15.4C526.1,352.6,523.2,353,523,353.1z"/>
					<path class="st7" d="M504.8,361.7c-1.1,0.4-1.6,0.6-2.2,0.7c-1.5,0.2-3.3,0-4.5-0.7c-3-1.8-4.2-7.4-1.9-9.6
						c2.3-2.2,7.2-0.2,9.6,1.9c1.8,1.5,3.7,4.3,2.9,5.8C508.3,360.4,507.1,360.8,504.8,361.7"/>
					<path class="st8" d="M504.8,361.7c-1.1,0.4-1.6,0.6-2.2,0.7c-1.5,0.2-3.3,0-4.5-0.7c-3-1.8-4.2-7.4-1.9-9.6
						c2.3-2.2,7.2-0.2,9.6,1.9c1.8,1.5,3.7,4.3,2.9,5.8C508.3,360.4,507.1,360.8,504.8,361.7z"/>
					<path class="st7" d="M633.4,212c-1.1,0.6,0.2,5.3,1.9,8.6c2.4,4.5,6.6,8.4,7.7,7.7c1-0.6-0.7-5.2-1.9-7.7
						C638.7,215.9,634.6,211.3,633.4,212"/>
					<path class="st8" d="M633.4,212c-1.1,0.6,0.2,5.3,1.9,8.6c2.4,4.5,6.6,8.4,7.7,7.7c1-0.6-0.7-5.2-1.9-7.7
						C638.7,215.9,634.6,211.3,633.4,212z"/>
					<path class="st7" d="M641,233.1c1.6-0.7,5.9,4.2,7.7,9.6c1.5,4.4,1.5,10.1,0,10.6c-1.6,0.5-5.1-4.9-6.7-9.6
						C640.6,239.8,639.5,233.8,641,233.1"/>
					<path class="st8" d="M641,233.1c1.6-0.7,5.9,4.2,7.7,9.6c1.5,4.4,1.5,10.1,0,10.6c-1.6,0.5-5.1-4.9-6.7-9.6
						C640.6,239.8,639.5,233.8,641,233.1z"/>
					<path class="st7" d="M639.1,245.6c3.8-0.2,6.8,5.5,7.7,9.6c0.4,2,1.1,5.2-1,7.7c-2,2.4-5.7,3.1-8.6,1.9
						c-3.8-1.6-4.6-5.7-4.8-6.7c-0.6-3.2,0.5-5.7,1-6.7C633.8,250.3,635.9,245.8,639.1,245.6"/>
					<path class="st8" d="M639.1,245.6c3.8-0.2,6.8,5.5,7.7,9.6c0.4,2,1.1,5.2-1,7.7c-2,2.4-5.7,3.1-8.6,1.9
						c-3.8-1.6-4.6-5.7-4.8-6.7c-0.6-3.2,0.5-5.7,1-6.7C633.8,250.3,635.9,245.8,639.1,245.6z"/>
					<path class="st7" d="M635.3,234.1c2.1,1.2,1.3,6.4,0,9.6c-2,5.1-7.1,9.7-9.6,8.6c-1.9-0.8-1.9-4.7-1.9-5.8
						c0-4.5,2.9-7.6,3.8-8.6C629.2,236.3,633.2,232.9,635.3,234.1"/>
					<path class="st8" d="M635.3,234.1c2.1,1.2,1.3,6.4,0,9.6c-2,5.1-7.1,9.7-9.6,8.6c-1.9-0.8-1.9-4.7-1.9-5.8
						c0-4.5,2.9-7.6,3.8-8.6C629.2,236.3,633.2,232.9,635.3,234.1z"/>
					<path class="st7" d="M622.8,237c2.2,3.2-0.6,8.1-1,8.6c-2.1,3.6-6.3,5.9-10.6,5.8c-3.7-0.1-8.9-2.1-9.6-5.8
						c-0.8-4.3,5-8.2,8.6-9.6C613.8,234.6,620.4,233.5,622.8,237"/>
					<path class="st8" d="M622.8,237c2.2,3.2-0.6,8.1-1,8.6c-2.1,3.6-6.3,5.9-10.6,5.8c-3.7-0.1-8.9-2.1-9.6-5.8
						c-0.8-4.3,5-8.2,8.6-9.6C613.8,234.6,620.4,233.5,622.8,237z"/>
					<path class="st7" d="M639.1,229.3c-0.4-1.2-2.8-2-3.8-1c-1,1-0.3,3.5,1,3.8C637.5,232.5,639.5,230.6,639.1,229.3"/>
					<path class="st8" d="M639.1,229.3c-0.4-1.2-2.8-2-3.8-1c-1,1-0.3,3.5,1,3.8C637.5,232.5,639.5,230.6,639.1,229.3z"/>
					<path class="st7" d="M630.5,227.4c-5.3-1.5-9.1-4.4-9.6-4.8c-4.1-3.2-6.2-4.8-6.7-7.7c0-0.2-0.7-3.8,1-4.8
						c1.8-1.2,5.3,1.5,9.6,4.8c1.8,1.4,5.2,4.2,7.7,8.6c1.4,2.6,1.3,3.5,1,3.8C632.8,228,631.6,227.7,630.5,227.4"/>
					<path class="st8" d="M630.5,227.4c-5.3-1.5-9.1-4.4-9.6-4.8c-4.1-3.2-6.2-4.8-6.7-7.7c0-0.2-0.7-3.8,1-4.8
						c1.8-1.2,5.3,1.5,9.6,4.8c1.8,1.4,5.2,4.2,7.7,8.6c1.4,2.6,1.3,3.5,1,3.8C632.8,228,631.6,227.7,630.5,227.4z"/>
					<path class="st7" d="M607.5,228.3c-0.1,1,2.3,2.2,3.8,2.9c3.7,1.7,7,1.8,13.4,1.9c2.9,0,4.3-0.1,4.8-1c0.6-1-0.1-2.8-1-3.8
						c-2.1-2.5-6.1-2.3-12.5-1.9C612.3,226.6,607.7,227,607.5,228.3"/>
					<path class="st8" d="M607.5,228.3c-0.1,1,2.3,2.2,3.8,2.9c3.7,1.7,7,1.8,13.4,1.9c2.9,0,4.3-0.1,4.8-1c0.6-1-0.1-2.8-1-3.8
						c-2.1-2.5-6.1-2.3-12.5-1.9C612.3,226.6,607.7,227,607.5,228.3z"/>
					<path class="st7" d="M614.2,220.6c1.1-2.3-4.4-6.6-5.8-7.7c-2.5-1.9-4.6-3.6-6.7-2.9c-1.8,0.6-2.9,2.9-2.9,4.8
						c0.1,3.8,5,6,7.7,6.7C609.1,222.3,613.4,222.4,614.2,220.6"/>
					<path class="st8" d="M614.2,220.6c1.1-2.3-4.4-6.6-5.8-7.7c-2.5-1.9-4.6-3.6-6.7-2.9c-1.8,0.6-2.9,2.9-2.9,4.8
						c0.1,3.8,5,6,7.7,6.7C609.1,222.3,613.4,222.4,614.2,220.6z"/>
					<path class="st7" d="M628.6,211c-4.1,1.3-7.9-3-8.6-3.8c-2.6-2.9-5-8.3-2.9-10.6c1.9-2.1,6.9-0.7,9.6,1
						c2.9,1.7,6.9,5.7,5.8,9.6C631.9,209,630.3,210.5,628.6,211"/>
					<path class="st8" d="M628.6,211c-4.1,1.3-7.9-3-8.6-3.8c-2.6-2.9-5-8.3-2.9-10.6c1.9-2.1,6.9-0.7,9.6,1
						c2.9,1.7,6.9,5.7,5.8,9.6C631.9,209,630.3,210.5,628.6,211z"/>
					<path class="st7" d="M483.7,277.3c0.2,0.3,0.7,0.5,1.5,0.7c0,0,1.7,0.5,3.3,0.2c3.1-0.6,4.6-10.5,4.8-11.5
						c1.5-10.3,2.3-15.4-1-20.2c-0.4-0.6-4.2-6.2-8.6-5.8c-6.1,0.7-9.3,12.4-9.6,20.2c-0.2,5.8,1,13.9,3.8,14.4
						c1.8,0.3,4.4-2.6,4.8-5.8c0.3-2.6-0.8-5.1-2.9-6.7c0.6-2.2,1.3-4.5,1.9-6.7c1.6,1,3.2,1.9,4.8,2.9c2.2,5.1,1.8,8.4,1,10.6
						C486.2,273.1,482.7,275.9,483.7,277.3"/>
					<path class="st8" d="M483.7,277.3c0.2,0.3,0.7,0.5,1.5,0.7c0,0,1.7,0.5,3.3,0.2c3.1-0.6,4.6-10.5,4.8-11.5
						c1.5-10.3,2.3-15.4-1-20.2c-0.4-0.6-4.2-6.2-8.6-5.8c-6.1,0.7-9.3,12.4-9.6,20.2c-0.2,5.8,1,13.9,3.8,14.4
						c1.8,0.3,4.4-2.6,4.8-5.8c0.3-2.6-0.8-5.1-2.9-6.7c0.6-2.2,1.3-4.5,1.9-6.7c1.6,1,3.2,1.9,4.8,2.9c2.2,5.1,1.8,8.4,1,10.6
						C486.2,273.1,482.7,275.9,483.7,277.3z"/>
					<path class="st7" d="M471.2,277.3c0-0.5,0.5-11-7.7-16.3c-4.7-3-12.2-4.3-15.4-1c-4.4,4.6,1.1,16.7,7.7,23
						c2.4,2.3,7.4,6.2,9.6,4.8c1.2-0.8,1.4-3.1,1-4.8c-1-3.8-5.2-3.6-8.6-8.6c-1.2-1.7-2.8-4.8-1.9-5.8c1.5-1.6,9.1,3.5,9.6,3.8
						C468,274.2,470,276,471.2,277.3"/>
					<path class="st8" d="M471.2,277.3c0-0.5,0.5-11-7.7-16.3c-4.7-3-12.2-4.3-15.4-1c-4.4,4.6,1.1,16.7,7.7,23
						c2.4,2.3,7.4,6.2,9.6,4.8c1.2-0.8,1.4-3.1,1-4.8c-1-3.8-5.2-3.6-8.6-8.6c-1.2-1.7-2.8-4.8-1.9-5.8c1.5-1.6,9.1,3.5,9.6,3.8
						C468,274.2,470,276,471.2,277.3z"/>
					<path class="st7" d="M462.5,291.7c2,1.5,2.4,5.3,1,6.7c-1.5,1.5-4.1-1-8.6,0c-1.3,0.3-5.1,1.4-6.7,4.8c-1.3,2.9-0.8,6.9,1,7.7
						c1.4,0.6,2.8-1.3,8.6-4.8c3.9-2.3,5.8-3.5,6.7-2.9c1.7,1.1,0.5,7.3-2.9,11.5c-0.8,1-5.4,6.8-12.5,5.8c-4.2-0.6-8.3-3.6-9.6-7.7
						c-2.7-8.3,7.8-16,9.6-17.3C449.7,295.1,458.7,288.6,462.5,291.7"/>
					<path class="st8" d="M462.5,291.7c2,1.5,2.4,5.3,1,6.7c-1.5,1.5-4.1-1-8.6,0c-1.3,0.3-5.1,1.4-6.7,4.8c-1.3,2.9-0.8,6.9,1,7.7
						c1.4,0.6,2.8-1.3,8.6-4.8c3.9-2.3,5.8-3.5,6.7-2.9c1.7,1.1,0.5,7.3-2.9,11.5c-0.8,1-5.4,6.8-12.5,5.8c-4.2-0.6-8.3-3.6-9.6-7.7
						c-2.7-8.3,7.8-16,9.6-17.3C449.7,295.1,458.7,288.6,462.5,291.7z"/>
				</g>
				<g class="st3">
					<defs>
						<rect id="SVGID_11_" x="80.5" y="12.1" width="839" height="839"/>
					</defs>
					<clipPath id="SVGID_12_">
						<use xlink:href="#SVGID_11_"  style="overflow:visible;"/>
					</clipPath>
					<path class="st9" d="M455.8,393.4c-1.3,2,8.4,8,16.3,19.2c2.8,3.9,7,10.9,9.6,20.2c3.6,13.1,1.9,23.9,1,29.7
						c-1.7,10.3-5.2,18.7-8.6,25c-99.2-0.3-198.3-0.6-297.5-1v16.3H832v-15.4H528.8c-3.2-5.3-6.8-13.1-7.7-23
						c-0.9-9.6,1.2-16.9,2.9-23c2.7-9.5,6.4-16.3,9.6-22.1c4-7.2,8.3-13.3,12.5-19.2c1.9-2.7,5.3-7.4,9.6-14.4
						c1.2-2,2.2-3.7,2.9-4.8c-5.8,1.3-11.5,2.6-17.3,3.8c-6.1,7.7-12.2,15.4-18.2,23l-5.8-17.3l-11.5,2.9c0.4,1.7,1.1,4.4,1.9,7.7
						c2.3,8.9,2.9,9.7,2.9,12.5c-0.1,6-3,10.3-3.8,11.5c-1.7,2.3-3.5,3.9-4.8,4.8c-1.4-4.8-3.9-11.3-8.6-18.2
						c-5.9-8.7-12.7-14.2-17.3-17.3c-3.8,0-9.1-0.1-15.4-1C457.7,393,456.3,392.7,455.8,393.4"/>
					<path class="st10" d="M455.8,393.4c-1.3,2,8.4,8,16.3,19.2c2.8,3.9,7,10.9,9.6,20.2c3.6,13.1,1.9,23.9,1,29.7
						c-1.7,10.3-5.2,18.7-8.6,25c-99.2-0.3-198.3-0.6-297.5-1v16.3H832v-15.4H528.8c-3.2-5.3-6.8-13.1-7.7-23
						c-0.9-9.6,1.2-16.9,2.9-23c2.7-9.5,6.4-16.3,9.6-22.1c4-7.2,8.3-13.3,12.5-19.2c1.9-2.7,5.3-7.4,9.6-14.4
						c1.2-2,2.2-3.7,2.9-4.8c-5.8,1.3-11.5,2.6-17.3,3.8c-6.1,7.7-12.2,15.4-18.2,23l-5.8-17.3l-11.5,2.9c0.4,1.7,1.1,4.4,1.9,7.7
						c2.3,8.9,2.9,9.7,2.9,12.5c-0.1,6-3,10.3-3.8,11.5c-1.7,2.3-3.5,3.9-4.8,4.8c-1.4-4.8-3.9-11.3-8.6-18.2
						c-5.9-8.7-12.7-14.2-17.3-17.3c-3.8,0-9.1-0.1-15.4-1C457.7,393,456.3,392.7,455.8,393.4z"/>
					<polygon class="st9" points="832,511.4 832,513.3 832,516.2 176.6,516.2 176.6,511.4 352.2,511.4 827.2,511.4 830.1,511.4 
											"/>
					<polygon class="st10" points="832,511.4 832,513.3 832,516.2 176.6,516.2 176.6,511.4 352.2,511.4 827.2,511.4 830.1,511.4 
											"/>
					<path class="st9" d="M312.8,532.5v18.2v3.8c2.4,0.5,5.8,0.9,9.6,0c2.4-0.6,5.3-1.2,7.7-3.8c0.6-0.7,2.7-3.1,2.9-6.7
						c0.2-4.9-3.2-8.1-3.8-8.6c-3.1-2.7-6.7-2.9-7.7-2.9h-2.9c-0.5,4.3-0.5,6.6,0,6.7c0.2,0.1,0.5-0.3,1-1c0.3-0.1,2.8-0.6,4.8,1
						c1.9,1.5,1.9,3.9,1.9,4.8c0,0.5,0,4.3-2.9,5.8c-2.1,1.1-4.4,0.2-4.8,0v-9.6v-7.7H312.8z"/>
					<path class="st10" d="M312.8,532.5v18.2v3.8c2.4,0.5,5.8,0.9,9.6,0c2.4-0.6,5.3-1.2,7.7-3.8c0.6-0.7,2.7-3.1,2.9-6.7
						c0.2-4.9-3.2-8.1-3.8-8.6c-3.1-2.7-6.7-2.9-7.7-2.9h-2.9c-0.5,4.3-0.5,6.6,0,6.7c0.2,0.1,0.5-0.3,1-1c0.3-0.1,2.8-0.6,4.8,1
						c1.9,1.5,1.9,3.9,1.9,4.8c0,0.5,0,4.3-2.9,5.8c-2.1,1.1-4.4,0.2-4.8,0v-9.6v-7.7H312.8z"/>
					<path class="st9" d="M341.6,533.5c-0.9,2.3-2.9,8.9,0,15.4c0.8,1.7,2,4.3,4.8,5.8c3.5,1.8,7.7,1,10.6-1
						c2.2-1.5,3.3-3.6,3.8-4.8c3.2-6.7,0.9-13.9,0-16.3h-6.7c0.4,3.3,0.7,5.9,1,7.7c0.5,3.6,0.8,5.1,0,6.7c-0.1,0.2-1.5,2.9-3.8,2.9
						c-2.3,0-3.7-2.7-3.8-2.9c-0.7-1.4-0.6-2.5,0-7.7c0.6-5,0.7-6.1,0-6.7C346.8,532,345.3,531.7,341.6,533.5"/>
					<path class="st10" d="M341.6,533.5c-0.9,2.3-2.9,8.9,0,15.4c0.8,1.7,2,4.3,4.8,5.8c3.5,1.8,7.7,1,10.6-1
						c2.2-1.5,3.3-3.6,3.8-4.8c3.2-6.7,0.9-13.9,0-16.3h-6.7c0.4,3.3,0.7,5.9,1,7.7c0.5,3.6,0.8,5.1,0,6.7c-0.1,0.2-1.5,2.9-3.8,2.9
						c-2.3,0-3.7-2.7-3.8-2.9c-0.7-1.4-0.6-2.5,0-7.7c0.6-5,0.7-6.1,0-6.7C346.8,532,345.3,531.7,341.6,533.5z"/>
					<polygon class="st9" points="372.3,533.5 372.3,553.6 385.8,553.6 385.8,548.8 379.1,548.8 379.1,533.5 					"/>
					<polygon class="st10" points="372.3,533.5 372.3,553.6 385.8,553.6 385.8,548.8 379.1,548.8 379.1,533.5 					"/>
					<path class="st9" d="M405,537.3c3.9-0.1,7,3.2,6.7,6.7c-0.2,3.4-3.4,6-6.7,5.8c-3.8-0.3-6.6-4.1-5.8-7.7
						c0.7-2.8,3.5-4.9,6.7-4.8c0.5-2.5,0-4.4-1-4.8c-0.2-0.1-0.5-0.1-1,0c-6.2,0.7-10.8,5.9-10.6,11.5c0.2,6.5,6.7,10.7,12.5,10.6
						c5.3-0.1,10.7-4,11.5-9.6c0.6-4.1-1.5-8.3-4.8-10.6c-3.2-2.2-6.6-2-7.7-1.9V537.3z"/>
					<path class="st10" d="M405,537.3c3.9-0.1,7,3.2,6.7,6.7c-0.2,3.4-3.4,6-6.7,5.8c-3.8-0.3-6.6-4.1-5.8-7.7
						c0.7-2.8,3.5-4.9,6.7-4.8c0.5-2.5,0-4.4-1-4.8c-0.2-0.1-0.5-0.1-1,0c-6.2,0.7-10.8,5.9-10.6,11.5c0.2,6.5,6.7,10.7,12.5,10.6
						c5.3-0.1,10.7-4,11.5-9.6c0.6-4.1-1.5-8.3-4.8-10.6c-3.2-2.2-6.6-2-7.7-1.9V537.3z"/>
					<polygon class="st9" points="428,533.5 428,553.6 439.5,553.6 439.5,549.8 432.8,549.8 432.8,546 439.5,546 439.5,541.2 
						433.8,541.2 433.8,537.3 439.5,537.3 439.5,533.5 430.9,533.5 					"/>
					<polygon class="st10" points="428,533.5 428,553.6 439.5,553.6 439.5,549.8 432.8,549.8 432.8,546 439.5,546 439.5,541.2 
						433.8,541.2 433.8,537.3 439.5,537.3 439.5,533.5 430.9,533.5 					"/>
					<path class="st9" d="M458.7,538.3c-2.7-0.2-5.8,1.9-5.8,4.8c0,2.8,2.9,5.1,5.8,4.8c2.9-0.3,5.3-3,4.8-5.8
						C463.1,539.9,460.8,538.4,458.7,538.3"/>
					<path class="st10" d="M458.7,538.3c-2.7-0.2-5.8,1.9-5.8,4.8c0,2.8,2.9,5.1,5.8,4.8c2.9-0.3,5.3-3,4.8-5.8
						C463.1,539.9,460.8,538.4,458.7,538.3z"/>
					<path class="st9" d="M490.4,532.5v7.7c-1.7-1.9-4.6-2.3-6.7-1c-2.4,1.5-2.9,4.5-1.9,6.7c0.7,1.4,2.1,2.6,3.8,2.9
						c2.9,0.4,4.7-1.8,4.8-1.9v6.7c-1,0.5-4,1.8-7.7,1c-4.2-1-7.8-4.4-8.6-8.6c-1.2-6.1,3.6-11.7,8.6-13.4
						C486,531.4,488.9,532.1,490.4,532.5"/>
					<path class="st10" d="M490.4,532.5v7.7c-1.7-1.9-4.6-2.3-6.7-1c-2.4,1.5-2.9,4.5-1.9,6.7c0.7,1.4,2.1,2.6,3.8,2.9
						c2.9,0.4,4.7-1.8,4.8-1.9v6.7c-1,0.5-4,1.8-7.7,1c-4.2-1-7.8-4.4-8.6-8.6c-1.2-6.1,3.6-11.7,8.6-13.4
						C486,531.4,488.9,532.1,490.4,532.5z"/>
					<path class="st9" d="M512.4,531.6c-6.2,0.2-11.3,5.3-11.5,11.5c-0.3,6.6,5,12.2,11.5,12.5c6.8,0.3,12.6-5.4,12.5-12.5h-5.8
						c-0.1,3.7-3.2,6.7-6.7,6.7c-3.7,0-7-3.1-6.7-6.7c0.2-3.3,3.4-5.8,6.7-5.8c3.2,0,6.1,2.4,6.7,5.8h5.8
						C524.5,536.4,518.9,531.3,512.4,531.6"/>
					<path class="st10" d="M512.4,531.6c-6.2,0.2-11.3,5.3-11.5,11.5c-0.3,6.6,5,12.2,11.5,12.5c6.8,0.3,12.6-5.4,12.5-12.5h-5.8
						c-0.1,3.7-3.2,6.7-6.7,6.7c-3.7,0-7-3.1-6.7-6.7c0.2-3.3,3.4-5.8,6.7-5.8c3.2,0,6.1,2.4,6.7,5.8h5.8
						C524.5,536.4,518.9,531.3,512.4,531.6z"/>
					<path class="st9" d="M533.6,533.5v21.1h6.7c-0.3-2.2-0.6-4.5-1-6.7c1.6,2.2,3.2,4.5,4.8,6.7h6.7c-0.3-1-0.6-1.9-1-2.9l-4.8-4.8
						c2.8-1.1,4.7-3.8,4.8-6.7c0.1-3.2-1.9-5.6-3.8-6.7c-1.7-1-3.2-1-5.8-1C537.4,532.5,535.1,533,533.6,533.5"/>
					<path class="st10" d="M533.6,533.5v21.1h6.7c-0.3-2.2-0.6-4.5-1-6.7c1.6,2.2,3.2,4.5,4.8,6.7h6.7c-0.3-1-0.6-1.9-1-2.9
						l-4.8-4.8c2.8-1.1,4.7-3.8,4.8-6.7c0.1-3.2-1.9-5.6-3.8-6.7c-1.7-1-3.2-1-5.8-1C537.4,532.5,535.1,533,533.6,533.5z"/>
					<path class="st9" d="M560.4,532.5v22.1h6.7v-11.5l8.6,11.5h6.7v-22.1h-6.7V546c-3.2-4.5-6.4-9-9.6-13.4H560.4z"/>
					<path class="st10" d="M560.4,532.5v22.1h6.7v-11.5l8.6,11.5h6.7v-22.1h-6.7V546c-3.2-4.5-6.4-9-9.6-13.4H560.4z"/>
					<path class="st9" d="M590.2,532.5c2.6,7.4,5.1,14.7,7.7,22.1h5.8c1.3-3.5,2.6-7,3.8-10.6c1,3.5,1.9,7,2.9,10.6h6.7
						c2.2-7.4,4.5-14.7,6.7-22.1h-7.7c-1,4.5-1.9,9-2.9,13.4c-1.3-4.5-2.6-9-3.8-13.4h-4.8c-1.3,4.2-2.6,8.3-3.8,12.5
						c-1-4.2-1.9-8.3-2.9-12.5H590.2z"/>
					<path class="st10" d="M590.2,532.5c2.6,7.4,5.1,14.7,7.7,22.1h5.8c1.3-3.5,2.6-7,3.8-10.6c1,3.5,1.9,7,2.9,10.6h6.7
						c2.2-7.4,4.5-14.7,6.7-22.1h-7.7c-1,4.5-1.9,9-2.9,13.4c-1.3-4.5-2.6-9-3.8-13.4h-4.8c-1.3,4.2-2.6,8.3-3.8,12.5
						c-1-4.2-1.9-8.3-2.9-12.5H590.2z"/>
					<path class="st9" d="M628.6,553.6c2.6-6.7,5.1-13.4,7.7-20.2h6.7c2.2,6.7,4.5,13.4,6.7,20.2h-5.8v-3.8c-6.7-0.7-8.5-0.5-8.6,0
						c0,0.2,0,1,0,1v2.9H628.6z"/>
					<path class="st10" d="M628.6,553.6c2.6-6.7,5.1-13.4,7.7-20.2h6.7c2.2,6.7,4.5,13.4,6.7,20.2h-5.8v-3.8c-6.7-0.7-8.5-0.5-8.6,0
						c0,0.2,0,1,0,1v2.9H628.6z"/>
					<polygon class="st9" points="660.2,532.5 660.2,554.6 672.7,554.6 672.7,548.8 666,548.8 666,532.5 					"/>
					<polygon class="st10" points="660.2,532.5 660.2,554.6 672.7,554.6 672.7,548.8 666,548.8 666,532.5 					"/>
					<polygon class="st9" points="682.3,532.5 689,532.5 689,548.8 694.8,548.8 694.8,554.6 682.3,554.6 					"/>
					<polygon class="st10" points="682.3,532.5 689,532.5 689,548.8 694.8,548.8 694.8,554.6 682.3,554.6 					"/>
					<path class="st9" d="M171.8,793.5v6.7h57.8h598.6v-5.8C609.4,794.2,390.6,793.9,171.8,793.5"/>
					<path class="st10" d="M171.8,793.5v6.7h57.8h598.6v-5.8C609.4,794.2,390.6,793.9,171.8,793.5z"/>
					<path class="st9" d="M829.1,815.6V830c-218.5,0.3-437,0.6-655.4,1v-16.3C392.2,815,610.6,815.3,829.1,815.6"/>
					<path class="st10" d="M829.1,815.6V830c-218.5,0.3-437,0.6-655.4,1v-16.3C392.2,815,610.6,815.3,829.1,815.6z"/>
				</g>
				<g class="st3">
					<defs>
						<rect id="SVGID_13_" x="80.5" y="12.1" width="839" height="839"/>
					</defs>
					<clipPath id="SVGID_14_">
						<use xlink:href="#SVGID_13_"  style="overflow:visible;"/>
					</clipPath>
					<path class="st11" d="M248.5,581.5c-0.3,11.8-0.6,23.7-1,35.5c-0.7-1.4-5.9-10.8-17.3-13.4c-1.8-0.4-11.5-2.4-20.2,3.8
						c-7.1,5.2-8.9,12.6-9.6,15.4c-0.7,2.9-2.5,12,2.9,21.1c1.3,2.2,5.2,8.7,13.4,11.5c12.2,4.2,22.5-3.4,23-3.8
						c5.7-4.4,7.9-10.1,8.6-12.5v39.3c-4.7,2-12.8,4.8-23,4.8c-3.1,0-11.3-0.2-21.1-3.8c-5-1.8-12.9-4.9-20.2-12.5
						c-6.3-6.6-9.1-13.4-10.6-17.3c-0.9-2.4-3.4-9.1-3.8-18.2c-0.3-4.8-0.8-14.4,3.8-25c6.8-15.4,20-22.4,25-25
						c5-2.6,15.1-7.8,28.8-6.7C237.2,575.5,244.6,579.1,248.5,581.5"/>
					<path class="st12" d="M248.5,581.5c-0.3,11.8-0.6,23.7-1,35.5c-0.7-1.4-5.9-10.8-17.3-13.4c-1.8-0.4-11.5-2.4-20.2,3.8
						c-7.1,5.2-8.9,12.6-9.6,15.4c-0.7,2.9-2.5,12,2.9,21.1c1.3,2.2,5.2,8.7,13.4,11.5c12.2,4.2,22.5-3.4,23-3.8
						c5.7-4.4,7.9-10.1,8.6-12.5v39.3c-4.7,2-12.8,4.8-23,4.8c-3.1,0-11.3-0.2-21.1-3.8c-5-1.8-12.9-4.9-20.2-12.5
						c-6.3-6.6-9.1-13.4-10.6-17.3c-0.9-2.4-3.4-9.1-3.8-18.2c-0.3-4.8-0.8-14.4,3.8-25c6.8-15.4,20-22.4,25-25
						c5-2.6,15.1-7.8,28.8-6.7C237.2,575.5,244.6,579.1,248.5,581.5z"/>
					<path class="st11" d="M317.6,574.7c0.3,9.3,0.6,18.6,1,27.8c-14.5-0.1-26.6,11.6-26.9,25.9c-0.3,14.7,11.9,26.4,25.9,26.9
						c14.4,0.5,27.6-10.9,27.8-25.9c0.2-14.6-11.9-27-26.9-26.9C318.3,593.3,318,584,317.6,574.7c29.7,0.3,53.9,21.2,57.6,47
						c3.3,23.3-11,44.7-27.8,54.7c-12.5,7.5-24.7,7.7-28.8,7.7c-3.2,0-29.1-0.4-45.1-21.1c-8.3-10.8-10-22-10.6-25.9
						c-2.2-15.6,2.8-27.5,3.8-29.7c8.5-19.3,25.8-26.9,30.7-28.8C305.6,575.4,312.9,574.8,317.6,574.7"/>
					<path class="st12" d="M317.6,574.7c0.3,9.3,0.6,18.6,1,27.8c-14.5-0.1-26.6,11.6-26.9,25.9c-0.3,14.7,11.9,26.4,25.9,26.9
						c14.4,0.5,27.6-10.9,27.8-25.9c0.2-14.6-11.9-27-26.9-26.9C318.3,593.3,318,584,317.6,574.7c29.7,0.3,53.9,21.2,57.6,47
						c3.3,23.3-11,44.7-27.8,54.7c-12.5,7.5-24.7,7.7-28.8,7.7c-3.2,0-29.1-0.4-45.1-21.1c-8.3-10.8-10-22-10.6-25.9
						c-2.2-15.6,2.8-27.5,3.8-29.7c8.5-19.3,25.8-26.9,30.7-28.8C305.6,575.4,312.9,574.8,317.6,574.7z"/>
					<path class="st11" d="M385.8,579.5c-0.3,33.3-0.6,66.5-1,99.8h29.7v-36.5l25.9,37.4c10.6-0.3,21.1-0.6,31.7-1L440.5,639
						c1.5-0.5,16.1-5.7,20.2-20.2c2.6-9.3-0.7-17.3-1.9-20.2c-1.1-2.5-4.6-10.4-13.4-15.4c-5.4-3-10.6-3.7-13.4-3.8H385.8z"/>
					<path class="st12" d="M385.8,579.5c-0.3,33.3-0.6,66.5-1,99.8h29.7v-36.5l25.9,37.4c10.6-0.3,21.1-0.6,31.7-1L440.5,639
						c1.5-0.5,16.1-5.7,20.2-20.2c2.6-9.3-0.7-17.3-1.9-20.2c-1.1-2.5-4.6-10.4-13.4-15.4c-5.4-3-10.6-3.7-13.4-3.8H385.8z"/>
					<path class="st11" d="M483.7,579.5c0.3,33.3,0.6,66.5,1,99.8h27.8v-54.7c14.7,18.9,29.4,37.7,44.1,56.6h28.8V578.6h-30.7v56.6
						c-14.4-18.6-28.8-37.1-43.2-55.7H483.7z"/>
					<path class="st12" d="M483.7,579.5c0.3,33.3,0.6,66.5,1,99.8h27.8v-54.7c14.7,18.9,29.4,37.7,44.1,56.6h28.8V578.6h-30.7v56.6
						c-14.4-18.6-28.8-37.1-43.2-55.7H483.7z"/>
					<rect x="601.7" y="578.6" class="st11" width="28.8" height="101.7"/>
					<rect x="601.7" y="578.6" class="st12" width="28.8" height="101.7"/>
					<path class="st11" d="M716.8,584.3l-11.5,23c-4.3-5.8-11-8.8-17.3-7.7c-4.4,0.8-7.3,3.4-8.6,4.8c-0.3,2.7-0.3,6.4,1.9,8.6
						c2.5,2.5,6.5,1.9,9.6,1.9c10.7-0.1,20.5,6.6,25,11.5c9.5,10.4,6.9,25.8,6.7,26.9c-3.3,17.9-21.1,28.3-34.5,30.7
						c-10.4,1.9-19.4-0.8-23-1.9c-3.8-1.1-10.2-3.1-16.3-8.6c-1.3-1.1-2.2-2.1-2.9-2.9c4.2-7.7,8.3-15.4,12.5-23
						c2.9,3.3,8.7,8.8,17.3,10.6c3.5,0.7,10.7,2.2,14.4-1.9c1.8-2,2.5-5,1.9-7.7c-0.7-2.9-2.8-4.8-5.8-6.7
						c-8.7-5.5-13.8-3.4-21.1-6.7c-7.1-3.2-13.3-10.2-15.4-18.2c-2.6-10,2-18.6,3.8-22.1c6.8-12.7,18.9-17.1,22.1-18.2
						c2.1-0.7,11.9-3.9,24-1C708,577.8,713.8,581.8,716.8,584.3"/>
					<path class="st12" d="M716.8,584.3l-11.5,23c-4.3-5.8-11-8.8-17.3-7.7c-4.4,0.8-7.3,3.4-8.6,4.8c-0.3,2.7-0.3,6.4,1.9,8.6
						c2.5,2.5,6.5,1.9,9.6,1.9c10.7-0.1,20.5,6.6,25,11.5c9.5,10.4,6.9,25.8,6.7,26.9c-3.3,17.9-21.1,28.3-34.5,30.7
						c-10.4,1.9-19.4-0.8-23-1.9c-3.8-1.1-10.2-3.1-16.3-8.6c-1.3-1.1-2.2-2.1-2.9-2.9c4.2-7.7,8.3-15.4,12.5-23
						c2.9,3.3,8.7,8.8,17.3,10.6c3.5,0.7,10.7,2.2,14.4-1.9c1.8-2,2.5-5,1.9-7.7c-0.7-2.9-2.8-4.8-5.8-6.7
						c-8.7-5.5-13.8-3.4-21.1-6.7c-7.1-3.2-13.3-10.2-15.4-18.2c-2.6-10,2-18.6,3.8-22.1c6.8-12.7,18.9-17.1,22.1-18.2
						c2.1-0.7,11.9-3.9,24-1C708,577.8,713.8,581.8,716.8,584.3z"/>
					<path class="st11" d="M734.1,578.6v100.8H762V639h34.5v40.3h27.8c0.3-33.6,0.6-67.2,1-100.8h-28.8c-0.3,13.4-0.6,26.9-1,40.3
						H762v-40.3H734.1z"/>
					<path class="st12" d="M734.1,578.6v100.8H762V639h34.5v40.3h27.8c0.3-33.6,0.6-67.2,1-100.8h-28.8c-0.3,13.4-0.6,26.9-1,40.3
						H762v-40.3H734.1z"/>
					<path class="st11" d="M171.8,741.7c0,8.4,6,15.4,13.4,16.3c9,1.2,16.8-6.9,17.3-15.4c0.5-9.9-9-19-18.2-17.3
						C177.6,726.7,172.1,733.4,171.8,741.7"/>
					<path class="st12" d="M171.8,741.7c0,8.4,6,15.4,13.4,16.3c9,1.2,16.8-6.9,17.3-15.4c0.5-9.9-9-19-18.2-17.3
						C177.6,726.7,172.1,733.4,171.8,741.7z"/>
					<path class="st11" d="M262.9,722.5c-9.7,0.3-17.5,7.6-18.2,16.3c-0.9,10.4,8.6,19.7,19.2,19.2c10.2-0.5,18.7-10,17.3-20.2
						C280,729.5,272.3,722.7,262.9,722.5v-20.2c22.7-0.2,40.7,18.3,40.3,39.3c-0.4,21.3-19.7,37-39.3,37.4
						c-22.1,0.4-43.1-18.6-41.3-41.3c1.5-19.1,18.8-35.3,40.3-35.5V722.5z"/>
					<path class="st12" d="M262.9,722.5c-9.7,0.3-17.5,7.6-18.2,16.3c-0.9,10.4,8.6,19.7,19.2,19.2c10.2-0.5,18.7-10,17.3-20.2
						C280,729.5,272.3,722.7,262.9,722.5v-20.2c22.7-0.2,40.7,18.3,40.3,39.3c-0.4,21.3-19.7,37-39.3,37.4
						c-22.1,0.4-43.1-18.6-41.3-41.3c1.5-19.1,18.8-35.3,40.3-35.5V722.5z"/>
					<path class="st11" d="M311.9,705.3v70.1h19.2v-23c5.1,8,10.2,16,15.4,24h25c-8-9.9-16-19.8-24-29.7c1.2-0.2,6.6-1,10.6-5.8
						c3.3-4,3.7-8.3,3.8-10.6c0.8-10.3-6-17.5-6.7-18.2c-4.6-4.7-10.1-6.2-12.5-6.7H311.9z"/>
					<path class="st12" d="M311.9,705.3v70.1h19.2v-23c5.1,8,10.2,16,15.4,24h25c-8-9.9-16-19.8-24-29.7c1.2-0.2,6.6-1,10.6-5.8
						c3.3-4,3.7-8.3,3.8-10.6c0.8-10.3-6-17.5-6.7-18.2c-4.6-4.7-10.1-6.2-12.5-6.7H311.9z"/>
					<path class="st11" d="M424.2,706.2v26.9c-3.8-6.6-11-10.4-18.2-9.6c-5.9,0.7-11.9,4.4-14.4,10.6c-3.3,8.3,0.9,18.2,8.6,22.1
						c5.3,2.7,12,2.5,17.3-1c4.4-2.9,6.1-7,6.7-8.6v27.8c-3.7,1.5-10.2,3.4-18.2,2.9c-11.2-0.7-18.7-5.7-20.2-6.7
						c-2.5-1.7-7.8-5.4-11.5-12.5c-3.7-7.1-3.8-13.6-3.8-17.3c0-3.2,0-8.9,2.9-15.4c4.6-10.6,13.3-15.6,16.3-17.3
						c6.3-3.5,12.1-4.5,15.4-4.8C413.8,702.5,420.8,704.8,424.2,706.2"/>
					<path class="st12" d="M424.2,706.2v26.9c-3.8-6.6-11-10.4-18.2-9.6c-5.9,0.7-11.9,4.4-14.4,10.6c-3.3,8.3,0.9,18.2,8.6,22.1
						c5.3,2.7,12,2.5,17.3-1c4.4-2.9,6.1-7,6.7-8.6v27.8c-3.7,1.5-10.2,3.4-18.2,2.9c-11.2-0.7-18.7-5.7-20.2-6.7
						c-2.5-1.7-7.8-5.4-11.5-12.5c-3.7-7.1-3.8-13.6-3.8-17.3c0-3.2,0-8.9,2.9-15.4c4.6-10.6,13.3-15.6,16.3-17.3
						c6.3-3.5,12.1-4.5,15.4-4.8C413.8,702.5,420.8,704.8,424.2,706.2z"/>
					<polygon class="st11" points="436.6,705.3 436.6,775.3 455.8,775.3 455.8,747.5 478.9,747.5 478.9,775.3 499,775.3 499,705.3 
						478.9,705.3 478.9,731.2 455.8,731.2 455.8,705.3 					"/>
					<polygon class="st12" points="436.6,705.3 436.6,775.3 455.8,775.3 455.8,747.5 478.9,747.5 478.9,775.3 499,775.3 499,705.3 
						478.9,705.3 478.9,731.2 455.8,731.2 455.8,705.3 					"/>
					<path class="st11" d="M505.7,775.3c9.3-23.7,18.6-47.3,27.8-71h24l25.9,72h-22.1c-3-8.3-4.7-12.9-4.7-12.9
						c0,0-5.5-15.1-5.5-15.1s-6.4-17.5-7-19.1c-1.9,6.4-3.8,12.8-5.8,19.2h13.4c1.9,5.1,3.8,10.2,5.8,15.4h-24
						c-1.6,3.8-3.2,7.7-4.8,11.5H505.7z"/>
					<path class="st12" d="M505.7,775.3c9.3-23.7,18.6-47.3,27.8-71h24l25.9,72h-22.1c-3-8.3-4.7-12.9-4.7-12.9
						c0,0-5.5-15.1-5.5-15.1s-6.4-17.5-7-19.1c-1.9,6.4-3.8,12.8-5.8,19.2h13.4c1.9,5.1,3.8,10.2,5.8,15.4h-24
						c-1.6,3.8-3.2,7.7-4.8,11.5H505.7z"/>
					<path class="st11" d="M589.2,704.3v71h19.2v-54.7c6.4-0.6,11.2,3.3,11.5,6.7c0.3,3.7-4.4,8.9-11.5,8.6v14.4
						c5.4,8.3,10.9,16.6,16.3,25h24c-7.4-9.3-14.7-18.6-22.1-27.8c8.9-4,14.6-12.4,14.4-21.1c-0.3-11.3-10.5-21.7-24-22.1H589.2z"/>
					<path class="st12" d="M589.2,704.3v71h19.2v-54.7c6.4-0.6,11.2,3.3,11.5,6.7c0.3,3.7-4.4,8.9-11.5,8.6v14.4
						c5.4,8.3,10.9,16.6,16.3,25h24c-7.4-9.3-14.7-18.6-22.1-27.8c8.9-4,14.6-12.4,14.4-21.1c-0.3-11.3-10.5-21.7-24-22.1H589.2z"/>
					<path class="st11" d="M657.4,705.3v71h34.5c-2.2-6.1-4.5-12.2-6.7-18.2h-8.6v-35.5c10.8-1.8,20.7,5.6,22.1,15.4
						c1.2,8.6-4.4,17.4-13.4,20.2c2.2,6.1,4.5,12.2,6.7,18.2c17.4-5.8,28.4-22.4,26.9-39.3c-1.3-14.1-11.1-26.4-25-31.7H657.4z"/>
					<path class="st12" d="M657.4,705.3v71h34.5c-2.2-6.1-4.5-12.2-6.7-18.2h-8.6v-35.5c10.8-1.8,20.7,5.6,22.1,15.4
						c1.2,8.6-4.4,17.4-13.4,20.2c2.2,6.1,4.5,12.2,6.7,18.2c17.4-5.8,28.4-22.4,26.9-39.3c-1.3-14.1-11.1-26.4-25-31.7H657.4z"/>
					<path class="st11" d="M727.4,737.9c2.5,4.2,6.5,6.2,7.7,6.7c4.4,2.1,5.9,0.6,10.6,2.9c2.2,1.1,6.4,3.1,6.7,6.7
						c0.2,2.2-1.1,4.6-2.9,5.8c-3.1,2-7.1,0.4-10.6-1c-2.1-0.8-5.3-2.5-8.6-5.8c-2.9,5.1-5.8,10.2-8.6,15.4c1.4,0.8,3.3,1.8,5.8,2.9
						c3.7,1.6,9.6,4.2,16.3,4.8c4.2,0.4,12.9,1.1,20.2-4.8c7.3-5.9,8.4-14.5,8.6-16.3c0.1-1.2,1.2-13.4-5.8-18.2
						c-2-1.4-2.2-0.5-12.5-3.8c-4.9-1.6-7.1-2.5-8.6-4.8c-1.2-1.8-2.3-5-1-6.7c1.4-1.8,4.7-1.3,6.7-1c2.6,0.4,4.9,1.5,9.6,3.8
						c0.8,0.4,1.5,0.7,1.9,1c2.9-5.1,5.8-10.2,8.6-15.4c-4.1-2.4-11.6-5.9-21.1-5.8c-5.5,0.1-14.5,0.2-20.2,6.7
						c-4,4.6-4.5,10.3-4.8,14.4C725.2,729.1,724.8,733.5,727.4,737.9"/>
					<path class="st12" d="M727.4,737.9c2.5,4.2,6.5,6.2,7.7,6.7c4.4,2.1,5.9,0.6,10.6,2.9c2.2,1.1,6.4,3.1,6.7,6.7
						c0.2,2.2-1.1,4.6-2.9,5.8c-3.1,2-7.1,0.4-10.6-1c-2.1-0.8-5.3-2.5-8.6-5.8c-2.9,5.1-5.8,10.2-8.6,15.4c1.4,0.8,3.3,1.8,5.8,2.9
						c3.7,1.6,9.6,4.2,16.3,4.8c4.2,0.4,12.9,1.1,20.2-4.8c7.3-5.9,8.4-14.5,8.6-16.3c0.1-1.2,1.2-13.4-5.8-18.2
						c-2-1.4-2.2-0.5-12.5-3.8c-4.9-1.6-7.1-2.5-8.6-4.8c-1.2-1.8-2.3-5-1-6.7c1.4-1.8,4.7-1.3,6.7-1c2.6,0.4,4.9,1.5,9.6,3.8
						c0.8,0.4,1.5,0.7,1.9,1c2.9-5.1,5.8-10.2,8.6-15.4c-4.1-2.4-11.6-5.9-21.1-5.8c-5.5,0.1-14.5,0.2-20.2,6.7
						c-4,4.6-4.5,10.3-4.8,14.4C725.2,729.1,724.8,733.5,727.4,737.9z"/>
					<path class="st11" d="M803.2,733.1c2.7-3.3,7.4-5.7,12.5-4.8c6.2,1.1,9,6.4,9.6,7.7c0.6,1.1,3.1,6.8,0,12.5
						c-3.2,5.9-9.8,6.6-10.6,6.7c-4.8,0.4-9.8-1.7-12.5-5.8c-2-3.1-1.9-6.3-1.9-7.7C800.4,740.3,800.5,736.5,803.2,733.1"/>
					<path class="st12" d="M803.2,733.1c2.7-3.3,7.4-5.7,12.5-4.8c6.2,1.1,9,6.4,9.6,7.7c0.6,1.1,3.1,6.8,0,12.5
						c-3.2,5.9-9.8,6.6-10.6,6.7c-4.8,0.4-9.8-1.7-12.5-5.8c-2-3.1-1.9-6.3-1.9-7.7C800.4,740.3,800.5,736.5,803.2,733.1z"/>
				</g>
			</g>
		</g>
	</g>
</g>
<g id="рамки_и_львы">
	<path class="st13" d="M150.5,426.5c19.7,1.7,39.3,3.3,59,5c5.2-13,13-30.4,24-50c5-8.9,24-41.9,61-83c44.5-49.4,86.8-79.2,111-96
		c25.2-17.5,59.3-38.7,102-59c34.8,16.9,75.1,39.8,117,71c18.5,13.8,47.3,35.3,78,67c27.9,28.8,67.8,76.8,101,148
		c19.3-1.3,38.7-2.7,58-4c0,3.3,0,6.7,0,10c-30.5,2.8-116,10.4-204,14c-51.9,2.1-100.5,2.7-103.5,2.8c-15.4,0.2-31.9,0.3-49.5,0.2
		c-32.7-0.1-64-0.7-132-3c-35.4-1.2-79.3-2.8-130-5c3.4-2.6,6.9-5.2,10.3-7.8c13.8,0.4,34.5,1,59.7,1.8c97.1,3,102.5,3.7,125,4
		c76.3,1,160.9-0.5,206-2c29.5-1,68.6-2.5,115-5c5.1,5.9,8.1,8.6,9,8c0.7-0.5,0.1-3.1-2-8c-11.4-18.2-28.5-43-52-70
		c-41-46.9-79.7-75.4-104-93c-25.1-18.2-59.5-40.6-103-62c-46.7,22.9-83.6,47.4-111,68c0,0-58,43.6-105,98c-8.3,9.6-22.6,26.4-38,51
		c-4.3,6.9-7.7,12.8-10,17c-30.7-2-61.3-4-92-6C150.5,434.5,150.5,430.5,150.5,426.5z"/>
	<path class="st13" d="M251.5,436.5c21.1-31,49.8-67.1,88-103c60.1-56.5,120.9-91.1,166-112c71.2,34.2,118.7,68.8,150,96
		c2.6,2.3,4.9,4.3,5.4,4.7c48.8,43.3,79.8,83.3,99.6,113.3c-1.7,0-3.3,0-5,0c-21.6-31.5-52.1-69.5-94-107
		c-57.1-51.2-114-82.3-156-101c-44,19.9-103.9,53.4-163,109c-44.4,41.8-78.5,90.6-80.6,93.6c-1.9,2.7-3.4,4.9-4.4,6.4
		C255.5,436.5,253.5,436.5,251.5,436.5z"/>
	<path class="st13" d="M163.5,442.5c0,59.7,0,119.3,0,179c228.3,0.3,456.7,0.7,685,1c0-15.7,0-31.3,0-47c0-27.3,0-54.7,0-82
		c0-18,0-36,0-54c-51.7,4.6-114.8,9.1-187,12c-21.1,0.8-80.7,3-159,3c-84.4,0-198.2-2.6-336-13c0,1,0,2,0,3
		c104.1,8.1,216.4,13.1,336,13c121.9-0.1,236.2-5.4,342-14c0,58.3,0,116.7,0,175c-79.7,0-159.3,0-239,0c-71.7,0-143.3,0-215,0
		c-51.7,0-103.3,0-155,0c-23,0-46,0-69,0c0-57.3,0-114.7,0-172c0-1.7,0-3.3,0-5c-1,0-2,0-3,0C163.5,441.8,163.5,442.2,163.5,442.5z"
		/>
	<path class="st13" d="M150.5,438.5c0,16,0,32,0,48c-1.2,5-5.1,8.8-10,10c-5.2,1.3-10.7-0.7-14-5c1.7-0.7,3.3-1.3,5-2
		c-3.2-5.2-6.5-7.1-9-8c-3.3-1.2-5.5-0.5-9-2c-3.5-1.5-5.7-4.1-7-6c1.3,1.3,3.9,3.7,8,5c5.5,1.8,10.3,0.5,12,0c-0.6-2.1-0.3-2.8,0-3
		c0.9-0.6,3,2.5,6,3c2.7,0.4,5.2-1.4,7-3c-8.6-1.4-10.7-3.4-11-5c-0.2-1.1,0.5-1.7,3-8c1.2-2.9,1.6-4.3,1-5c-0.6-0.7-2.1-0.2-3,0
		c-2.3,0.6-5.8,0.8-11-1c-0.3-1-0.7-2-1-3c-6.7,0-13.3,0-20,0c0-0.3,0-0.7,0-1c6.7,0,13.3,0,20,0c0,0,0,0,0,0c1.5,0,2.5-3.5,3-5
		c0.4-1.4,0.9-3.4,1-6c-1.2,0-4.1,0.2-7,2c-2.1,1.3-3.4,3-4,4c-0.7-3.3-1.3-6.7-2-10c-1.7,3.3-3.3,6.7-5,10c-0.2-0.9-0.9-3.2-3-5
		c-1.7-1.5-4.8-3-6-2c-0.9,0.7-1,3.2,3,11c-0.5,1.2-0.9,2-1,2c-0.1,0,0-1,0-1c-1.7,0-3.3,0-5,0c0,4.2,0,8.4,0,12.6
		c0,0.1,0,0.2,0,0.4c-0.2,2.6-3.6,4.4-5,5c0.2,3.9,0.1,5.7,0,6.5c0,0.1,0,0.3,0,0.5c0.2,1.1,1.7,1.7,3,2c-1,3.6-1.6,6.7-2,9
		c-0.8,5.1-0.6,6.6,0,8c1,2.1,2.8,3.4,4,4c-0.5,2.6-0.9,6.1,0,10c0.2,1.1,1.3,6,3,6c1.6,0,2.8-4.4,3-5c-1.1,2-2.3,4.6-3,8
		c-1.2,5.5-0.6,10.2,0,13c1.3,0.7,1.8,1.4,2,2c1.5,4.4-9.1,11.6-16,15c-2.4,1.2-7.5,3.6-9,2c-0.6-0.7-0.3-1.6,0-4
		c0.7-5.8-0.8-6.6,0-10c0.5-2.4,1.2-1.8,5-8c3.3-5.4,4.1-7.9,6-8c1.6,0,2.7,1.6,3,2c1.9,2.8,0.3,6.4,0,7c-1.7,3.6-5.3,4.8-6,5
		c-1.2,2.3-1.7,4.4-1,5c0.8,0.7,3.3-0.5,6-3c1.2-0.8,4.3-2.9,6-7c0.2-0.4,2.7-6.9-1-13c-1.6-2.7-3.8-4.3-5-5c1.2-3.5,3.6-12,0-21
		c-1.2-3.1-3.1-7.8-8-10c-4.9-2.2-9.8-0.4-11,0c-5.7,2.1-8.4,6.8-9,8c-0.5,2.3,0.3,4.7,2,6c1.6,1.2,3.5,1.1,4,1c0.1,0.4,0.5,1.6,0,3
		c-0.7,2.1-2.7,2.9-3,3c0.4,0.3,3.9,3.1,8,2c3.8-1,6.7-4.8,6-7c-0.4-1.4-2.1-1.3-4-4c-1.2-1.8-1.1-2.6-1-3c0.2-1,1.1-1.8,2-2
		c1.6-0.3,3.8,1.6,5,5c1,4.7,2,9.3,3,14c-2.1-0.7-5.7-1.6-10-1c-2.5,0.3-5.5,0.7-8,3c-2.5,2.2-3.1,5-4,9c-1,4.4-1.9,8.5,0,13
		c1.5,3.6,4.2,5.8,6,7c1.7-2.3,3.3-4.7,5-7c-1-0.4-2.7-1.2-4-3c-2.3-3.2-2.6-8.7,1-12c2.9-2.7,7.4-3.2,11-1c-2.3,6.8-5,11.8-7,15
		c-3,4.9-4.6,6-6,10c-1.1,3.1-3.3,9.4,0,15c3.8,6.4,12.1,7,13,7c0,3,0,6,0,9c-1.1,0.2-2.9,0.4-5,0c-3.7-0.6-4.8-2.4-7-2
		c-2.3,0.4-3.6,2.6-5,5c-1.7,2.8-2.1,5.3-3,10c-1.2,6.8-0.6,8.8,0,10c0.5,0.9,1.3,2.5,3,3c2,0.5,3.7-0.8,4-1c-0.4,1.4-0.9,3.5-1,6
		c-0.1,3.3-0.3,6.9,2,10c0.3,0.4,2.5,3.3,6,4c2.3,0.5,4-0.3,6,1c1.1,0.7,1,1.2,2,2c2.7,2.3,6.9,1.4,9,1c4-0.8,6.6-2.8,8-4
		c2.3-1.9,3.8-3.1,4-5c0.3-2.7-2-5-4-7c-1.9-1.9-3.5-3.5-6-4c-3.3-0.7-5.8,0.9-10,0c-0.5-0.1-1.3-0.3-2-1c-0.8-0.8-0.9-1.8-1-4
		c-0.3-4.9-0.5-5.4,0-6c1.2-1.4,3.6-1.1,4-1c2.6,0.4,2.9,2.3,5,3c3.4,1.1,7.8-2.1,10-5c0.8-1.1,1.6-3.1,3-7c1.2-3.1,1.7-4.7,2-6
		c0.9-4.4,0.4-8.7,0-12c-0.3-2.6-0.6-3.6,0-5c1.1-2.6,4.1-3.7,5-4c3.4-1.3,9.5-5.1,21-16c-7.2-9-10.6-13.4-10.7-13.6l0,0
		c-0.1-0.3-0.2-0.4-0.3-0.4c4.3,4.3,8.7,8.7,13,13c1,1,2,2,3,3c0.3-0.7,0.7-1.3,1-2c2,2.3,4,4.7,6,7c1-1,2-2,3-3c3,4,6,8,9,12
		c0-6.3,0-12.7,0-19c-1.6,0.1-3.8,0.1-6-1c-4.6-2.2-7.3-7.7-7-14c4.3-3,8.7-6,13-9c0,30.3,0,60.7,0,91c-2.3,0-4.7,0-7,0
		c-0.2-0.9-0.8-2.3-2-3c-2.5-1.5-5.5,1.2-9,1c-2.2-0.1-5.3-1.3-9-7c0.2-0.6,1.1-3.8,4-5c0.3-0.1,2.7-1.1,4,0c1.1,1,0.3,2.6,1,3
		c1.4,0.8,8.8-5,8-11c-0.5-3.7-3.9-6.2-5-7c-3.3-2.4-5.2-1.6-7-4c-1.8-2.3-0.4-3.6-2-7c-1.2-2.6-3.2-4.1-7-7c-2.4-1.8-4.5-3.1-6-4
		c-4.5,2.7-7.9,4.8-10,6c-0.5,0.3-1.5,0.8-2,2c-0.5,1.3-0.1,2.5,0,3c0.5,1.8,1,4.7,1,10c0.4-0.1,2.9-0.6,5,1c2.2,1.7,2.6,4.9,2,6.9
		c0,0,0,0.1,0,0.1c-1.3,4.2-5.5,5.2-7,9c-0.1,0.4-1.1,2.9,0,5c0.9,1.8,2.8,2.4,4,3c2.4,1.1,5.4,3.5,8,9c1.3-0.3,2.7-0.7,4-1
		c-0.8,2.5-0.5,4.1,0,5c0.6,1.1,1.1,0.9,3,3c1.6,1.8,1.8,2.5,3,3c0.1,0,2.2,1,3,0c0.5-0.7,0.1-1.8,0-2c0.2,0.5,0.5,1.2,1,2
		c0.4,0.7,1.8,3,4,4c3.6,1.7,9-0.2,10-3c0.6-1.8-0.5-3.8,0-4c0.4-0.2,1.3,1,2,2c0.8,2.4,1.5,3,2,3c0.7,0,1-0.9,2-1
		c0.8-0.1,1.5,0.5,2,1c0,6,0,12,0,18c53.7,0,107.3,0,161,0c60.3,0,120.7,0,181,0c3.7,3.7,7.3,7.3,11,11c3.3-3.7,6.7-7.3,10-11
		c18.3,0,36.7,0,55,0c64,0,128,0,192,0c34.3,0,68.7,0,103,0c0-6.7,0-13.3,0-20c2,0.3,4,0.7,6,1c1.3-1.3,2.7-2.7,4-4
		c-0.7,1.7-1.3,3.3-2,5c1.3,0.5,3.4,1.2,6,1c5.6-0.3,9.1-4,10-5c0.3,1,0.7,2,1,3c3.9-3,5.4-5.9,6-8c0.6-2.2,0.6-4.4,2-5
		c1.4-0.6,2.3,1.3,4,1c2.4-0.4,2.1-4.1,6-7c1.5-1.1,3-2,3-2c2.1-1.3,2.6-1.3,3-2c0.7-1.2,0-2.8-1-5c-0.4-0.8-0.9-1.9-3-5
		c-2.3-3.5-2.8-3.8-3-5c-0.1-0.4-0.6-2.9,1-5c1-1.4,2.5-1.8,3-2c2-0.6,2.9,0.4,4,0c2.9-1.1,4.1-10.2,0-16c-1.6-2.3-3.8-3.6-4.5-4
		c-2.2-1.3-4.3-1.8-5.5-2c-10.6,4.2-14,8.6-15,12c-0.5,1.8-1,5.3-4,8c-1.7,1.5-2.6,1.4-4,3c-2.5,3-2.1,6.9-2,8c0.5,4.1,3.3,8.3,5,8
		c0.6-0.1,1.4-0.9,2-4c0.3,1.1,0.9,2.6,2,4c1.9,2.4,3.7,2.5,4,4c0.4,1.9-2.2,4.1-4,5c-3.9,2-8.1,0.4-9,0c-2,0-4,0-6,0
		c-1,1.3-2,2.7-3,4c-2.3,0.3-4.7,0.7-7,1c0-16.7,0-33.3,0-50c1.2,0.1,3.1,0.1,5-1c5.3-3.1,4.9-12,7-12c1.6,0,2.5,5.1,4,5
		c1.5-0.1,1.4-5,4-6c1.3-0.5,2.9,0.3,4,1c8.6-10.7,13-16,13-16c0,0-3.6,4.7-11,14c2.3,2.1,6,5.1,11,8c8.1,4.7,11.1,4.1,14,8
		c3,4.1,3,9.3,3,16c0,4.1-0.5,7.6-1,10c0.6,1.4,2.6,5.9,6,7c0.5,0.2,1.4,0.4,2,0c1.3-0.9,0.7-4,1-4c0.3,0,0.1,3.1,2,5
		c0.1,0.1,1.1,0.8,3,2c1.3,0.9,1.6,1,2,1c1,0,1.2-0.9,3-2c1-0.6,2-1.2,3-1c1,0.2,1.6,1.3,2,2c1.4,2.6,1.5,6.1,0,9
		c-0.4,0.9-1.5,3-3,3c-1.1,0-1.3-1.2-3-2c-2.2-1-4.5-0.2-5,0c-1.4,0.5-2.2,1.3-3,2c-4,3.5-6.2,2.9-8,5c-1.3,1.5-2.4,4.3-1,10
		c1.9,2.6,5,3.3,7,2c1.9-1.2,2-3.7,2-4c-0.3,0.7-0.8,2.5,0,4c1.2,2.2,4.8,2.4,7,2c5.1-1,8.3-6.5,9-6c0.3,0.2-0.4,1,0,2
		c0.5,1.4,2.6,2,4,2c4.7,0,7.9-7.7,8-8c2.3-5.6,0.7-10.9,0-13c2,2,3.3,2.2,4,2c3.1-0.9,3.3-10.5,1-18c-1.2-3.7-2.8-9-7-10
		c-3-0.7-5.9,1.1-7,2c-1.7-0.7-3.3-1.3-5-2c0-3,0-6,0-9c2.3,1.2,4.1,1.1,5,1c4.2-0.5,7.8-4.5,9-10c0-4.3,0-8.7,0-13
		c1.2-2,2.6-4.4,4-7c2.5-4.7,2.8-6.1,3-7c0.6-3.7-0.5-6.7-1-8c-2.7-7.1-9.3-10.2-11-11c0,3,0,6,0,9c0.7,0.5,3.4,2.4,4,6
		c0.7,3.8-1.3,7.8-5,10c-3-4.7-6-9.3-9-14c0.2-1,0.6-1.6,1-2c1.7-1.8,5.4-1.9,9,0c0-3,0-6,0-9c-1.5-0.3-4-0.7-7,0
		c-2.2,0.5-3.9,1.3-5,2c0-3,0-6,0-9c1.7-2.7,3.3-5.3,5-8c0.1-1.4,0.9-2.6,2-3c1.8-0.7,4,0.9,4,2c0,0.7-0.8,0.7-2,2
		c-1.4,1.6-1.9,3.4-2,4c-0.1,0.5-0.4,2,0,4c0.3,1.5,0.7,3.2,2,4c0.9,0.6,2.3,0.4,5,0c2.4-0.3,5-1,5-1c-2.2-0.7-3.8-2.2-4-4
		c-0.2-1.8,1.3-3.3,2-4c2.2-2.2,4.1-1.6,5-3c1.3-2.1-1-6.5-4-9c-4-3.4-10.2-4-15-2c-6.9,2.9-9,10.3-10,14c-1.8,6.6-0.7,12.2,0,15
		c-1,1.4-2.4,3.5-4,6c-1.8,2.8-2.7,4.2-3,5c-1.1,3-1.2,7.3,1,11c0.4,0.7,2.4,3.9,6,5c0,0,2.9,0.8,5.8,0.1c0,0,0,0,0,0
		c0,0,0.2,0,0.2-0.1c0.1,0-0.2-0.9-1-2c-1.4-1.8-2.7-1.8-4-3c-2-1.9-2-4.9-2-6c0-2.4,0.9-3.9,2-6c0.2-0.4,0.6-1,1-1
		c0.5,0.1,0.8,1.2,1,2c0.3,1,1.2,2.3,3,5c3.2,4.8,4.2,4.7,6,8c1.2,2.3,1.8,4.2,2,5c0.5,2,1.2,5.9,0,11c-1.2,1.6-3.1,2.4-5,2
		c-1.8-0.3-1.8-2-4-4c-2.5-2.2-3.6-1.4-8-4c-3-1.8-4.5-3.5-5-4c-2.7-3-3-5.3-3-6c0-0.4,0-0.8,0-1c0.7,0.3,1.3,0.7,2,1
		c0-5.3,0-10.7,0-16c-1-2-2-4-3-6l3,2c0.7-0.6,3.3-3,4-7c0.6-3.4-0.5-6-1-7c1.3-0.3,2.7-0.7,4-1c0.4-2.5,0.6-5.9,0-10
		c-0.6-4.3-1.9-7.7-3-10c0.9-0.1,2.9-0.5,4-2c1.8-2.5-0.1-6.2-1-8c-1.9-3.8-5-5.9-7-7c2.8,0.3,3.8-0.7,4-1c1.8-2.1-0.3-7.6-4-9
		c-1.6-0.6-3.2-0.3-4,0c-6.3,0-12.7,0-19,0c0-0.3,0-0.7,0-1c6.3,0,12.7,0,19,0c-0.2-0.5-0.3-1.3,0-2c0.6-1.2,1.9-0.8,3-2
		c0.7-0.7,0.8-2.7,1.1-6.6c0-0.1,0-0.2-0.1-0.4c-0.5-1.1-4.7-1.1-7,1c-2.4,2.1-2.1,5.5-2,6c-1.3-3.2-2.6-6.4-3.9-9.6
		c0-0.2-0.1-0.4-0.1-0.4c-0.4-0.1-1.4,2.6-3,8c-0.3,0.5-0.6,1-1,1c-0.6-0.1-0.8-1.4-1-2c-0.5-1.4-2.5-2.7-9-3c-0.1,1.2-0.1,3.5,1,6
		c0.6,1.3,1.4,2.3,2,3c0.2,1.3,0.1,2.3,0,3c-0.2,1.9-1,4-1,4c-1.1,0.1-2.9,0.1-5,0c-4.6-0.3-7-1.2-8,0c-0.3,0.4-0.6,1.2,0,3
		c1.6,2,2,3.7,2,5c0,1.8-0.7,3.5,0,4c0.6,0.4,1.6-0.4,2,0c0.3,0.3,0,0.9,0,1c-0.5,1.2-2.1,1.8-3,2c-4.8,1.3-8.5-0.1-9,1
		c-0.2,0.4,0,1.2,2,3c1.6,1.5,3,1.9,4,2c2,0.1,3.5-0.9,5,0c0.6,0.4,0.4,0.6,1,1c1.4,0.9,2.9-0.6,6-1c2.5-0.4,2.8,0.4,6,0
		c0.9-0.1,2.2-0.4,3.6-1.1c0.7-0.4,1.1-0.7,1.4-0.9c1.6-1.2,2.5-2.8,3-4c0,2-0.6,3.3-1,4c-2.1,3.3-7.3,4.6-13,3
		c-0.2,1.2-0.7,3.1-2,5c-2,3.1-4.8,4.5-6,5c0.7,0.7,1.3,1.3,2,2c0.4,1.1,0.6,2.4,0,3c-0.7,0.8-2.2,0.1-4,0c-2.9-0.1-6.2,1.4-7,3
		c-1.4,2.6,2.1,8.1,9,13c-3.3,5.3-6.7,10.7-10,16c-1.7,2-3.3,4-5,6c-2,0-4,0-6,0c0-9,0-18,0-27c0.7,0.9,1.8,2.3,3,4
		c2.7,3.8,3.8,6.2,5,6c1.1-0.2,1.5-2.1,2-2c0.5,0.1-0.1,2.1,1,4c0.6,1.1,1.9,2.2,3,2c1-0.2,1.3-1.5,2-3c0.7-1.6,1.9-3.7,4-6
		c-3.4-2.6-5.6-5.1-7-7c-1.6-2.2-2.3-3.5-2-5c0.2-1.3,1.1-2.3,1.8-2.8c0.1,0,0.2-0.1,0.2-0.2c0.2-0.7-4-2.2-7-4
		c-1.9-1.2-4.5-3.2-7-7c0-15.3,0-30.7,0-46c-3.7,0.3-7.3,0.7-11,1c0,12,0,24,0,36c0,29.7,0,59.3,0,89c0,20,0,40,0,60
		c-56.3,0-112.7,0-169,0c-57.3,0-114.7,0-172,0c-53,0-106,0-159,0c-36.7,0-73.3,0-110,0c-27,0-54,0-81,0c0.3-61.1,0.7-122.3,1-183.4
		c0-0.9,0-1.7,0-2.6C157.2,438.5,153.8,438.5,150.5,438.5z"/>
</g>
<g id="тень_названия_сорта">
	<path class="st14" d="M218.5,540.5c1.3,1.7,2.7,3.3,4,5c-1,1.3-2,2.7-3,4c0,13,0,26,0,39c1.7,1.7,3.3,3.3,5,5c1,0,2,0,3,0
		c0,2,0,4,0,6c-16.3,0-32.7,0-49,0c0-1.3,0-2.7,0-4c15.3,0,30.7,0,46,0c0-0.3,0-0.7,0-1c-2-2-4-4-6-6c-1.3,0-2,0-2,0l0,0l-2-3l0,0
		c0,0,0-14,0-40C215.8,543.8,217.2,542.2,218.5,540.5z"/>
	<path class="st14" d="M223.5,498.5c1.5-0.3,2.9-0.2,4,0c0,1.7,0,3.3,0,5c-0.3-0.1-2.9-0.6-5,1c-1.4,1.1-1.8,2.5-2,3c0,6,0,12,0,18
		c-1.7,2-3.3,4-5,6c0-8.7,0-17.3,0-26C215.8,504.7,218.3,499.6,223.5,498.5z"/>
	<path class="st14" d="M281.5,587.5c-0.7,0.3-4.4-5.6-7-11c-3.5-7.1-3.5-9.9-6-16c-2.7-6.5-2.9-3.9-11-18c-4-7-6.8-12.5-13-19
		c-0.8-0.9-1.5-1.5-2-2c3.9-4.4,10.1-10.2,19-15c5.5-3,10.7-4.8,15-6c0.7-0.3,1.3-0.7,2-1c0-0.3,0-0.7,0-1c1.3,0,2.7,0,4,0
		c0,1.3,0,2.7,0,4c-2.4,0.4-5.9,1.3-10,3c-1.2,0.5-2.1,0.9-13,8c-5.4,3.5-8.2,5.3-11,9c-0.9,1.2-1.6,2.3-2,3c2.6,2.2,6.2,5.5,10,10
		c2.9,3.5,7.4,9.5,15,26C276,571.3,282.5,587,281.5,587.5z"/>
	<path class="st14" d="M288.5,593.5c1,0,2,0,3,0c0,1.7,0,3.3,0,5c-18,0-36,0-54,0c0-1,0-2,0-3c17,0,34,0,51,0
		C288.5,594.8,288.5,594.2,288.5,593.5z"/>
	<path class="st14" d="M336.5,508.5c1.7,0,3.3,0,5,0c0,1.7,0,3.3,0,5c-2.3,1-4.7,2-7,3c-0.3,2-0.7,4-1,6c0,15.3,0,30.7,0,46
		c0,5,0,10,0,15c-2-1-4-2-6-3c0-21.3,0-42.7,0-64C330.5,513.8,333.5,511.2,336.5,508.5z"/>
	<path class="st14" d="M374.5,560.5c2,0,4,0,6,0c-4,13.3-8,26.7-12,40c-1,0-2,0-3,0c-23-0.3-46-0.6-69-1c0-1.3,0-2.7,0-4
		c20.7,0,41.3,0,62,0c2.3,1,4.7,2,7,3c0,0.9,0,2,0,2s0-3.8,0-4C365.5,593,367.3,583.8,374.5,560.5z"/>
	<path class="st14" d="M416.5,500.5c2.5-1.1,5.9-2.5,10-4c6.4-2.4,8.6-2.9,11-5c1.7-1.5,3.8-4.1,5-9c3,2.4,4.2,6.4,3,10
		c-1.3,3.7-5,6.2-9,6c-5.8,0.1-9.6,1.6-12,3c-1.9,1.1-4.2,2.8-6,2C417.3,503,416.8,501.6,416.5,500.5z"/>
	<path class="st14" d="M414.5,529.5c1,2,2,4,3,6c-1.3,4.3-2.7,8.7-4,13c-1.7,0-3.3,0-5,0C410.5,542.2,412.5,535.8,414.5,529.5z"/>
	<path class="st14" d="M403.5,560.5c0.8-0.4,3.3-1.1,8,2c-1.7,1.9-3.4,4.2-5,7c-4.4,7.7-5.7,15.2-6,20c-1.3-0.7-3-1.9-4-4
		c-1.3-2.9-0.1-5.2,2-12C401.5,563.8,401.2,561.5,403.5,560.5z"/>
	<path class="st14" d="M376.5,595.5c0,1.3,0,2.7,0,4c9.7,0,19.3,0,29,0c0.3-1.7,0.7-3.3,1-5c-1-0.3-2-0.7-3-1c-0.3,0.7-0.7,1.3-1,2
		C393.8,595.5,385.2,595.5,376.5,595.5z"/>
	<path class="st14" d="M445.5,508.5c0.3-0.1,2.5-1.1,4,0c1.4,1,1.1,3.2,1,4c-0.3,2.7-2.3,4.5-3,5c0,1,0,2,0,3c7.7,23,15.3,46,23,69
		c-1.3,0-2.7,0-4,0c-8.3-24.7-16.7-49.3-25-74C441.5,515.1,441.9,510.1,445.5,508.5z"/>
	<path class="st14" d="M431.5,595.5c0,1.3,0,2.7,0,4c15.7,0,31.3,0,47,0c0-2,0-4,0-6c-1.7,0-3.3,0-5,0c0,0.7,0,1.3,0,2
		C459.5,595.5,445.5,595.5,431.5,595.5z"/>
	<path class="st14" d="M481.5,561.5c1.7,0,3.3,0,5,0c-0.1,2.5,0.3,5.8,2,9c3.2,5.8,9.4,8.2,9,9c-0.3,0.5-2.9,0-5-1
		C484.6,574.9,482.2,564.8,481.5,561.5z"/>
	<path class="st14" d="M483.5,593.5c0,2.3,0,4.7,0,7c1.3-0.6,3.4-1.5,6-2c8.8-1.8,15.1,1.4,21,3c16.2,4.4,31.3-2.7,34-4
		c4.3-2,13.1-6.3,18-16c1.5-2.9,4.3-8.6,3-16c-1.2-6.9-5.3-11.4-7-13c0.9,2.6,1.9,6.4,2,11c0.1,2.9,0.3,9.5-3,16
		c-4.9,9.6-14.4,13.2-19,15c-8,3.1-15,3-19,3c-6.7,0-8.2-1.2-20-2c-1.5-0.1-5.1-0.3-10-1C486.9,594.1,484.9,593.8,483.5,593.5z"/>
	<path class="st14" d="M560.5,535.5c0,0.3-0.1,1.8,1,3c1.1,1.1,2.9,1.6,4,1c1.7-0.9,0.6-3.6,2-7c1.5-3.4,4.6-5.2,8-7
		c1.9-1,4.9-2.4,9-3c0-2,0-4,0-6c-2.1,0-9.4,0.4-16,6C562.8,527.4,561,533.3,560.5,535.5z"/>
	<path class="st14" d="M623.5,519.5c0.1-0.7-3.2-1.7-6-2c-1.6-0.2-3-0.1-4,0c0,7.7,0,15.3,0,23c0,14.7,0,29.3,0,44
		c0.3,1.1,1.1,3.2,3,5c1.1,1,2.2,1.6,3,2c-0.7-2-1.3-4-2-6c0-21.7,0-43.3,0-65C622.7,520.3,623.5,519.8,623.5,519.5z"/>
	<path class="st14" d="M579.5,594.5c16.3,0,32.7,0,49,0c0,1.7,0,3.3,0,5c-16.3,0-32.7,0-49,0C579.5,597.8,579.5,596.2,579.5,594.5z"
		/>
	<path class="st14" d="M718.5,507.5c1.7,0,3.3,0,5,0c2,11,4,22,6,33c-1.7,0-3.3,0-5,0c0-1,0-2,0-3s0-2,0-3
		C722.5,525.5,720.5,516.5,718.5,507.5z"/>
	<path class="st14" d="M703.5,518.5c0.2-1.3-5.7-4.6-12-4c-1.3,0.1-7.2,0.7-10,5c-1.3,2-1.3,3.9-1,14l0,0l0,0c1.3,0.8,3,1.7,4,1
		c2.1-1.4-2.3-7.9,0-12C687.9,516.5,703.1,520.5,703.5,518.5z"/>
	<path class="st14" d="M705.5,526.5c1,0,2,0,3,0c2.3,11.3,4.7,22.7,7,34c-1.7,0.7-3.3,1.3-5,2c-0.3-1.3-0.7-2.7-1-4
		C708.2,547.8,706.8,537.2,705.5,526.5z"/>
	<path class="st14" d="M697.5,545.5c0-0.9-5.3-2-10-2c-3.3,0-6.1,0.5-8,1c0,12,0,24,0,36c1.3,1,2.7,2,4,3c0-8.7,0-17.3,0-26
		c0-3.3,0-6.7,0-10C694.9,546.8,697.5,546.1,697.5,545.5z"/>
	<path class="st14" d="M648.5,595.5c0,1.3,0,2.7,0,4c23.3-0.3,46.7-0.7,70-1c-0.3-1.3-0.7-2.7-1-4
		C694.5,594.8,671.5,595.2,648.5,595.5z"/>
	<path class="st14" d="M731.5,563.5c1.7,0.7,3.3,1.3,5,2c-4,12-8,24-12,36c-1.3-1.7-2.7-3.3-4-5
		C724.2,585.5,727.8,574.5,731.5,563.5z"/>
	<path class="st14" d="M769.5,540.5c1.7-0.7,3.3-1.3,5-2c0.3-8,0.7-16,1-24c1-0.5,5.2-2.5,10-1c2.4,0.8,4.1,2.1,5,3
		c-0.4-0.6-4.6-6.8-12-7c-4.6-0.1-7.9,2.2-9,3C769.5,521.8,769.5,531.2,769.5,540.5z"/>
	<path class="st14" d="M777.5,554.5c0.5-0.6-1.4-3.4-3.8-3.9c-0.1,0-0.2,0-0.2-0.1c-1.7-0.3-3.1,0.4-4,1c0,12,0,24,0,36
		c1.7,1,3.3,2,5,3c-0.3-12.3-0.7-24.7-1-37C776.2,554.7,777.3,554.8,777.5,554.5z"/>
	<path class="st14" d="M778.5,592.5c1.3,0.3,2.7,0.7,4,1c0,1.7,0,3.3,0,5c-15.7,0-31.3,0-47,0c0-1,0-2,0-3c14,0,28,0,42,0
		C777.8,594.5,778.2,593.5,778.5,592.5z"/>
	<path class="st14" d="M808.5,543.5c-1.7-1.7-3.3-3.3-5-5c2.2-0.6,11.9-3.7,17-13c1-1.9,3.9-7.3,3-14c-0.2-1.7-0.7-3-1-4
		c1.4,1.5,5.8,7,5,14c-0.5,4-2.5,6.7-5,10C820.1,534.6,815.8,539.4,808.5,543.5z"/>
	<path class="st14" d="M793.5,595.5c0,1.3,0,2.7,0,4c16,0,32,0,48,0c0.3-2,0.7-4,1-6c-1.3-0.3-2.7-0.7-4-1c0,1,0,2,0,3
		C823.5,595.5,808.5,595.5,793.5,595.5z"/>
	<path class="st14" d="M813.5,547.5c4.5,7.8,6.8,14.4,8,19c1.4,5.2,2.3,11.3,7,18c0.4,0.6,3.9,5.6,5,5c1.5-0.8-2.3-12-6-20
		C823.1,560.1,817.9,552.8,813.5,547.5z"/>
</g>
<g id="название_сорта">
	<path class="st15" d="M175.5,494.5c0,2,0,4,0,6c2,1.7,4,3.3,6,5c0,27,0,54,0,81c-2.3,1.7-4.7,3.3-7,5c0,1,0,2,0,3
		c16.3,0,32.7,0,49,0c0-1,0-2,0-3c-1.8,0.5-3.1,0.3-4,0c-4.4-1.7-6.6-9.7-5-20c0-8.7,0-17.3,0-26c1.7-1,3.3-2,5-3
		c4.8,5.1,11.1,13.1,16,24c3.2,7.1,5,13.7,6,19c-0.1,0.5-0.8,2.7-3,4c-1.7,1-3.4,1-4,1c0,1.3,0,2.7,0,4c17.3,0,34.7,0,52,0
		c0-1.3,0-2.7,0-4c-1.6,0.5-3.9,1-6,0c-3.3-1.6-4-5.9-5-10c-1.4-6.2-4-12-6-18c-3.4-10.2-7.8-17.2-12-24c-5.8-9.3-10.6-14.5-13-17
		c-0.8-0.8-1.5-1.5-2-2c3.3-3.7,8.5-8.7,16-13c6.9-4,13.4-6,18-7c0-1.3,0-2.7,0-4c-14.7-0.3-29.3-0.7-44-1c0,1.3,0,2.7,0,4
		c1.2,0.3,7.4,2.1,8,6c0.4,2.5-1.8,4.8-3,6c-8.2,8.3-19.3,17.8-23,21c0-9,0-18,0-27c1.3-1.7,2.7-3.3,4-5c1,0,2,0,3,0
		c0.3-1.7,0.7-3.3,1-5C206.8,494.5,191.2,494.5,175.5,494.5z"/>
	<path class="st15" d="M293.5,506.5c0,1,0,2,0,3c2,1.7,4,3.3,6,5c0,24,0,48,0,72c-2,1.3-4,2.7-6,4c0,1,0,2,0,3c21.7,0,43.3,0,65,0
		c1,1.7,2,3.3,3,5c4.3-12.7,8.7-25.3,13-38c-1-1-2-2-3-3c-2.1,5.2-5.7,12-12,18c-3.4,3.2-7.4,7.1-14,9c-3.5,1-11.7,3.8-16,0
		c-2.9-2.6-2.4-6.7-2-16c0.4-9.3-0.2-18.7,0-28c0.2-6.3,0.3-15.5,0-27c2.7-1.7,5.3-3.3,8-5c0-0.7,0-1.3,0-2
		C321.5,506.5,307.5,506.5,293.5,506.5z"/>
	<path class="st15" d="M371.5,595.5c0-1.7,0-3.3,0-5c1.7-0.3,3.3-0.7,5-1c10-23.7,20-47.3,30-71c0-2.7,0-5.3,0-8
		c-1.2,0.5-1.9,0.1-2,0c-1-0.6-1.3-2.8,0-5c13.3,0,26.7,0,40,0c0,2,0,4,0,6c-1.3,0-2.7,0-4,0c1.3,4.6,2.6,9.3,4,14
		c5.4,18.2,11.5,35.2,18,51c1.4,3.1,2.8,6.4,4,10c0.4,1,0.7,2,1,3c2,0.7,4,1.3,6,2c0,1.3,0,2.7,0,4c-15.3,0-30.7,0-46,0
		c0-1.7,0-3.3,0-5c0.9,0,2.5,0,4-1c3.1-2,3-6.3,3-7c-0.1-3.1-1.9-6.4-9-12c-4.4-3.5-11-8-20-12c0.7-3,1.3-6,2-9
		c1.7-0.3,5.6-0.8,10,1c3.6,1.5,5.9,3.7,7,5c-3-10-6-20-9-30c-2.3,7.3-4.6,14.6-7,22c-4.3,13.4-8.6,26.8-13,40c0.7,1,1.3,2,2,3
		c1.7,0,3.3,0,5,0c0,1.7,0,3.3,0,5C392.2,595.5,381.8,595.5,371.5,595.5z"/>
	<path class="st15" d="M548.5,504.5c0.7,9.3,1.3,18.7,2,28c-0.7,0.1-1.7,0.2-3,0c-7-1.1-8.2-9-15-14c-5.6-4.1-14.7-6-20-2
		c-3.8,2.8-6,8.9-4,13c0.9,1.8,2.5,3.2,7,5c9.2,3.8,13.2,2.6,21,5c4.4,1.3,10.8,3.3,16,9c6,6.6,6.9,14.4,7,16c1,11.2-5.4,19.2-7,21
		c-6.2,7.2-14.1,8.9-24,11c-3.3,0.7-16.7,3.3-33-1c-3.8-1-6.9-2.1-9-3c-2.3,1.7-4.7,3.3-7,5c-0.3-13.3-0.7-26.7-1-40
		c0.3,2.8,1.5,10.9,8,18c8,8.7,18.2,9.8,21,10c3.4,0.3,12.8,1.1,19-5c0.8-0.8,5-4.9,4-9c-0.8-3.2-4.2-4.9-10-7
		c-16.5-6.2-19.2-3.9-26-8c-1.1-0.7-11.2-6.9-14-19c-0.5-2.3-2-8.8,1-16c3.1-7.5,9-11.2,12-13c1.3-0.8,10.6-6.3,22-5
		c9.1,1.1,16,4,16,4c2.4,1,4.3,2.1,7,2C542.8,509.4,546.2,506.8,548.5,504.5z"/>
	<path class="st15" d="M516.5,499.5c7.7-4.3,15.3-8.7,23-13c-1-2.3-2-4.7-3-7c-6,2.3-12,4.7-18,7c-7.3-2.3-14.7-4.7-22-7
		c-1.3,2.3-2.7,4.7-4,7C500.5,490.8,508.5,495.2,516.5,499.5z"/>
	<path class="st15" d="M410.5,495.5c1.7,1.7,3.3,3.3,5,5c13.2-6.7,19.7-9.2,23-10c0.3-0.1,1.2-0.3,2-1c3.1-2.7,3.2-10.6-1-14
		c-4.4-3.6-11.4-0.7-13,0c-0.1,0-1.1,0.4-2,1C417.9,480.4,412.1,492,410.5,495.5z"/>
	<path class="st15" d="M559.5,535.5c-1.4-0.2-1.7-8.7,0-17c1.3-6.1,3.4-10.9,5-14c1,0.3,2,0.7,3,1c21.3,0,42.7,0,64,0
		c1-0.3,2-0.7,3-1c2,10.3,4,20.7,6,31c-2.4-3.2-6-7.2-11-11c-6.4-4.9-12.6-7.5-17-9c0,24,0,48,0,72c2.3,1,4.7,2,7,3c1.3,0,2.7,0,4,0
		c0,1.7,0,3.3,0,5c-16.3,0-32.7,0-49,0c0-1.7,0-3.3,0-5c2.9,0.9,6,0.1,8-2c2.8-2.9,2.1-6.7,2-7c0-22,0-44,0-66
		c-5.6,0.2-12.2,1.4-17,6C561.3,527.3,560.9,535.7,559.5,535.5z"/>
	<path class="st15" d="M643.5,506.5c0,1,0,2,0,3c2.3,1.3,4.7,2.7,7,4c0,24.7,0,49.3,0,74c-0.1,0.3-0.9,2.3-3,3c-1.4,0.5-2.6,0.1-3,0
		c0,1.3,0,2.7,0,4c25.3,0,50.7,0,76,0c2-5.4,4-11.1,6-17c1.8-5.5,3.5-10.8,5-16c-1.7,0-3.3,0-5,0c-1.6,2.9-3.8,6.4-7,10
		c-5,5.5-10.2,9-14,11c-2.3,0.9-6.6,2.3-12,2c-7-0.4-11.9-3.5-14-5c0-12.3,0-24.7,0-37c1.6-0.4,9.9-2.1,18,3c7,4.4,9.4,11.1,10,13
		c1,0,2,0,3,0c-1.7-11.3-3.3-22.7-5-34c-1.7,0-3.3,0-5,0c0.3,0.9,1.5,4.1,0,7c-0.5,0.9-1.6,2.5-6,4c-2.8,0.9-7.9,2.2-15,1
		c0-5.3,0-10.7,0-16c1.3-1.7,2.7-3.3,4-5c3.2-0.5,11.3-1.2,20,3c11.3,5.4,15.9,15.4,17,18c0.7,0,1.3,0,2,0c-1.7-10.3-3.3-20.7-5-31
		c-2.3,0.3-5.8,0.8-10,1c-5.8,0.3-9.9,0.1-13,0c0,0,0,0-21,0C663.5,506.5,653.5,506.5,643.5,506.5z"/>
	<path class="st15" d="M731.5,499.5c0,1.3,0,2.7,0,4c2.3,1.7,4.7,3.3,7,5c0,26,0,52,0,78c-1,1.3-2,2.7-3,4c-1.7,0-3.3,0-5,0
		c0,1.7,0,3.3,0,5c15.7,0,31.3,0,47,0c0-1.7,0-3.3,0-5c-1.3,0-2.7,0-4,0c-1.7-1.7-3.3-3.3-5-5c0-11.7,0-23.3,0-35
		c2.3-0.3,4.7-0.7,7-1c3.3,5.7,6.7,11.3,10,17c2.7,5,5.3,10,8,15c0.3,2.3,0.7,4.7,1,7c-0.2,0.4-0.8,1.4-2,2c-1.9,0.9-3.7,0.1-4,0
		c0,1.7,0,3.3,0,5c16.7,0,33.3,0,50,0c0-1.7,0-3.3,0-5c-1,0-2,0-3,0c-1.4-0.7-3.3-2-5-4c-2.7-3.2-3.3-6.4-4-9c0,0-2.2-8.8-7-18
		c-2.7-5.3-5.7-9-8-12c-1.7-2.1-4.2-5.3-8-9c-3-2.8-7.2-6.5-13-10c-1.7,2.1-4.9,5.5-10,8c-4.4,2.2-8.5,2.8-11,3c0-9.3,0-18.7,0-28
		c3.2-1.2,10-3.3,17-1c2,0.6,4.4,1.5,6,4c1.8,2.8,1.2,6,1,7c-0.2,0.9-0.6,1.9-1,3c-0.6,1.6-1.3,2.9-2,4c4.3,3.3,8.7,6.7,13,10
		c5.3-3.3,9.3-6.6,12-9c3.7-3.4,5.6-5.1,7-8c0.6-1.3,4-8.4,0-15c-3.8-6.3-11.2-6.9-12-7C784.2,499.5,757.8,499.5,731.5,499.5z"/>
	<rect x="367" y="686" class="st16" width="435" height="123.3"/>
	<text transform="matrix(1 0 0 1 367 743.0938)" class="st17 st18 st19">TMAVE</text>
</g>
<g id="монахс_пивком">
	<path class="st20" d="M443.5,439.5c-1-3,0.6-4.5,0-7c-0.3-1.2-1.5-2.4-4-5c-2.8-2.9-4.2-3.7-4-4c0.3-0.5,4.8,0.7,8,4
		c2.6,2.6,1.1,4,4,8c0.5,0.7,1.8,2.5,2,5c0,0.4,0,0.8,0,1c11,0,22,0,33,0c-0.7-1.3-1.3-2.7-2-4c-0.7,0.6-2.5,1.9-5,2
		c-1.1,0.1-3,0.1-4-1c-1-1.1-0.2-2.3-1-6c-0.3-1.2-0.4-2-1-3c-0.9-1.6-2.1-2.5-3-3c-0.4-1.7-1-5.8,1-10c0.6-1.2,1.3-2.2,2-3
		c0.3,3.7,0.7,7.3,1,11c0.5,0.7,1.3,1.7,2,3c0.5,1,0.8,1.4,1,2c0.9,2.8-0.9,4.5,0,6c0.7,1.2,2.7,1.6,4,1c1.7-0.8,2.7-3.9,1-7
		c0.4-0.4,1-1.1,1-2c0-2.3-4-2.6-6-6c-0.5-0.8-0.3-0.9-1-9c-0.4-5.2-0.6-5.9,0-7c1.1-2.2,3.1-3,3-5c-0.1-1.1-0.7-2-1-2
		c-0.4,0.1,0,1.8-1,3c-0.9,1.2-3,1.8-4,1c-1-0.8-0.6-2.8,0-4c1-2,3-2.2,3-3c0-0.7-1.6-1.6-6-2c-10.5-1-19.3,2.4-23,4
		c-5.2,2.3-8.3,3.7-10,7c-0.9,1.7-1.8,4.7-2,8c-0.1,1.2,0,2.3,0,3c-1.3,0-2.7,0-4,0c-0.4-1.7-0.8-4.6,0-8c1.2-5.5,4.6-8.8,6-10
		c-3,0-6,0-9,0c-0.3-1.3-0.7-2.7-1-4c4.6-0.6,9.2-1.2,14-2c5.9-0.9,11.5-1.9,17-3c-0.3-1.2-0.3-1.9,0-2c0.3-0.1,1,0.5,2,2
		c2.6,0.9,5.2,1.1,6,0c1-1.3-0.2-4.9-4-8c2,0.7,4,1.3,6,2c-0.3-2.7-0.7-5.3-1-8c1-5.7-0.9-11.2-5-14c-2.7-1.8-5.5-2-7-2
		c0.4-1.5,1.2-6-1-11c-2.6-6-7.7-8.4-9-9c-1.3,2-2.7,4-4,6c1.7,1.7,3.3,3.3,5,5c-2,1.3-4,2.7-6,4c-1.4-1.9-2.6-2-3-2
		c-2.6,0-5.4,4.9-4,8c1,2.2,3.8,3,4.3,3.1c1.5,0.4,3,0.2,3.3,0.2c0.1,0,0.7-0.1,1.4-0.3c3-0.9,4.4-3.3,5-3c0.8,0.4-0.5,4.2-1,7
		c-0.6,3.4-0.4,8.4,3,15c0.7,0.7,1.2,1.5,1,2c-0.5,1-4.5,0.9-7-1c-4.4-3.3-4.3-11.6-2-17c0.3-0.8,0.7-1.5,1-2c-2.9,0.5-5.5,0-7-1
		c-0.9-0.5-2-1.2-2.7-2.6c-0.1-0.3-0.2-0.4-0.3-0.4c-0.4,0-1,3.5-2,18c-1-3-2.5-9.3-1-17c2-9.8,7.7-15.9,10-18c0.7,0.7,1.3,1.3,2,2
		c1-2.3,2-4.7,3-7c-2-1.3-4-2.7-6-4c-4.6,5.2-10.5,13.6-13,25c-1.4,6.3-1.2,11.1-1,18c0.2,9.1,0.4,22.3,0,39c0,3,0.4,10,5,17
		c3,4.6,6.6,7.5,9,9c3.3,0,6.7,0,10,0C444.2,441.1,443.8,440.4,443.5,439.5z"/>
	<path class="st20" d="M468.5,370.5c2.7-2.1,6.7-5.4,11-10c7.3-7.8,7.4-10.7,12-13c7-3.4,15.8-1.1,21,2c3,1.8,5.7,4.9,11,11
		c3.5,4,6.2,7.6,8,10c0,7.7,0,15.3,0,23c1.3,0.5,3.4,1.3,6,2c3.3,0.9,4.6,0.9,6,2c1.1,0.8,2.5,2.5,3,6c-3.6-0.2-6.2,0.4-8,1
		c-1,0.4-1.7,0.7-3,1c-2.4,0.5-4.5,0.3-6,0c-0.6-5.6-0.9-10-1-13c-0.3-7.3-0.2-11-2-16c-1-2.7-2.2-4.7-3-6c0.8,5.1,1.5,9.8,2,14
		c1.1,8.7,1.3,12.5,0,17c-0.6,2.2-1.4,3.9-2,5c-0.7,0-1.3,0-2,0c1-3.1,1.9-7.1,2-12c0.1-10.4-3.8-18.2-6-22c1.8,4.2,3.8,10.9,3,19
		c-0.9,8.8-4.8,15.1-5,15c-0.2-0.1,3.8-7.1,1-11c-1-1.4-3.3-2.6-8-5c-0.8-0.4-1.5-0.8-2-1c0-0.7,0-1.3,0-2c2,0,4,0,6,0
		c0-1.9,0-3.8,0-5.6c0-0.1,0-0.1,0-0.2c0-0.1,0-0.1,0-0.2c0.5-0.6,1.6-2,2-4c0.4-1.7,0.2-3.2,0-4c-2.7,0-5.3,0-8,0c0-1.3,0-2.7,0-4
		c-2.3,0-4.7,0-7,0c0,6,0,12,0,18c-0.3,0.7-0.7,1.3-1,2c-4.3-1.3-7.2-0.8-9,0c-3.8,1.6-5.4,5.3-9,5c-1.1-0.1-2-0.5-3-1
		c-1.7-0.8-2.8-1.9-5-4c-0.9-0.9-1.7-1.7-2-2C467,383.7,468.3,372.2,468.5,370.5z"/>
	<path class="st20" d="M478.5,397.5c-0.5,0.5-1.7,1.8-2,11c-0.2,6.3-0.3,9.6,1,12c1.9,3.5,5.2,5.2,7,6c-0.5,1.2-1,2.9-1,5
		c0,5.2,3,8.8,4,10c0.4,0.4,0.8,0.8,1,1c2.8-2.5,3.3-4,3-5c-0.2-0.8-0.8-1-1-2c-0.3-1.5,0.8-3.1,2-4c2.2-1.5,5.4-0.9,7,1
		c0.6,0.7,0.9,1.5,1,2c0,0.3-0.6,2.9-3,4c-1.9,0.9-4.3,0.5-6-1c-0.3,1.7-0.7,3.3-1,5c4,0,8,0,12,0c0.8-0.2,4.7-1.5,6-5
		c0.6-1.6,0.3-2.9,0-5c-0.5-3-0.9-5.7-3-7c-1.8-1.1-4.1-0.6-7,0c-1.7,0.4-2.7,0.8-5,1c-1.2,0.1-2,0.2-3,0c-2.2-0.3-5.4-1.7-6-4
		c-0.3-1,0.2-1.3,0-3c-0.2-1.5-0.7-2.5-1-3c-2-4.4,1.3-8.7-1-11c-1.1-1.1-2.6-0.8-3-2c-0.4-1.2,0.6-2.5,1-3c0.8-1.1,2-1.9,5-3
		c4.1-1.5,6.1-2.3,9-2c1.7,0.2,3.1,0.6,4,1c-1,1-2,2-3,3c0.9,0.1,2.3,0.1,4,0c1.9-0.1,3.8-0.2,6-1c1-0.3,2.4-0.9,4-2
		c0.3,0.4,1.6,2.4,1,5c-0.5,2.3-2.3,3.5-3,4c-3.4,2.3-7.3,1.2-8,1c-1,0-2,0-3,0c4,0.3,8,0.7,12,1c0.2,0.6,0.5,1.8,0,3
		c-0.7,1.9-2.7,2.5-4,3c-2.9,1-5.6,0.4-7,0c0,0.7,0,1.3,0,2c5.1-3.3,9.5-4.5,11-3c1.2,1.2,0.4,4.2-1,6c-1.9,2.4-5.5,3.3-9,2
		c5.1,0.1,6.7,1,7,2c0.3,0.9-0.3,1.8,0,2c0.4,0.2,2-1.2,3-3c2.1-3.7,0.2-6.1,2-10c0.9-2.1,1.5-1.5,3-4c1.1-1.8,3.9-6.6,2-11
		c-1.8-4.2-6.8-5.9-10-6c-0.4,0-0.8,0-1,0c-1.8-2.1-1.5-4.9,0-6c1-0.8,2.6-0.7,4,0c0.7,0,1.3,0,2,0c-1-2.9-0.6-4.3,0-5
		c0.3-0.4,0.6-0.5,1-1c0.9-1.4,0.8-3.6,0-4c-0.7-0.4-1.8,0.8-3,1c0,0-0.7,0.1-1.3,0.4c-0.1,0-0.1,0.1-0.1,0.1s-0.4,0.2-0.6,0.5
		c-0.3,0.3-0.3,1.1,0,2c0.5,0.5,0.5,1.5,0,2s-1.5,0.5-2,0c0-3,0-6,0-9c-1,0-2,0-3,0c0,6,0,12,0,18c-0.6,0.8-1.6,1.7-3,2
		c-2,0.4-3-0.9-5-1c-2.5-0.1-3.2,1.9-7,4C482,397,480.5,395.5,478.5,397.5z"/>
	<path class="st20" d="M467.5,366.5c2.6-3,4.7-5.4,6-7c4.1-4.8,5.4-6.5,8-9c2.4-2.3,3.7-3.6,6-5c1.5-0.9,4.2-2.5,8-3
		c2.1-0.3,3.8-0.2,5,0c-1.4-0.8-3.5-1.8-6-3c-6-2.8-14.3-6.7-25-9c-4.2-0.9-9.9-1.8-17-2c0.3-1.7,0.7-3.3,1-5c7.3,1.3,13.4,2.8,18,4
		c12.9,3.5,17.4,6,19,7c4.6,2.8,7.9,5.8,10,8c-0.3-2-1-5-3-8c-0.7-1.1-2-2.8-10-8c-6.5-4.2-9.7-6.4-12-7c-3-0.8-5.6-0.9-9-3
		c-0.4-0.2-2.5-1.5-4-4c-1.1-1.7-1-2.6-1-3c0.1-1.2,0.8-2.4,2-3c1.1-0.5,2.6-0.6,3,0c0.4,0.6-0.9,1.3-1,3c-0.1,1.6,0.8,2.8,1,3
		c1.2,1.6,3.2,1.9,4,2c1.9,0.3,5.3,1.6,12,4c4.5,1.6,7.1,2.6,10,5c3,2.5,2.8,3.7,6,6c0,0,2.7,1.9,4,4c0.7,1.1,0.9,1.8,0.9,1.8
		c0.1,0.1,0.1,0.2,0.1,0.2c0.7,0.8,5.6-2.2,7-3c4.1-2.5,6.2-3.7,8-6c1.2-1.5,1.9-2.8,3-5c1.2-2.3,1.8-3.5,2-5c0.4-2.5,0.1-5.7-1-6
		c-0.8-0.2-1.4,1.3-4,4c-0.7,0.7-0.7,0.7-6,5c-1.6,1.4-3.3,2.6-5,4c-2.6,2.1-4.1,3.5-5,3c-0.3-0.2-0.3-0.5-1-2c-0.4-0.8-0.7-1.5-1-2
		c-1.4,0.2-4.1,0.3-7-1c-2.9-1.3-4.5-3.2-6-5c-1.2-1.4-2.8-3.7-4-7c0.3,2.2-0.2,3.7-1,4c-0.7,0.2-1.6-0.6-2-1c-2-1.9-2-4.8-2-6
		c0.8,2.3,0.2,4.4-1,5c-0.8,0.4-1.8,0.1-2,0c-1.2-0.4-1.8-1.5-2-2c-1.1-2.2-0.2-4.6,0-5c0.6-1.4,1.1-1.2,2-3c0.5-0.9,1.1-2.3,1-4
		c0-0.6-0.1-1.8-1-3c-0.2-0.3-0.8-1.1-1.9-1.6c-0.6-0.3-1.1-0.3-1.1-0.4c0-0.3,3.1,0.3,4-1c0.8-1.2-0.2-3.9-2-5
		c-1.4-0.8-2.8-0.4-3-1c-0.2-0.6,0.8-1.6,2-2c1.5-0.5,2.6,0.5,3,0c0.5-0.6-1.5-2.4-1-4c0.4-1.2,2.1-1.5,2-2c-0.2-0.6-3,0.3-4-1
		c-0.6-0.8-0.3-2,0-3c0.3-1,0.4-1.7,1-2c1-0.5,2,0.9,4,1c0.3,0,1.2,0,3-1c2.7-1.4,4.2-3.2,5-4c2.5-2.5,5.6-3.2,9-4
		c1.7-0.4,10.4-2.4,18,3c4.1,2.9,6.1,6.7,7,9c1.8,0,3.6,0,5.4,0c0.2,0,0.4,0,0.6,0c-0.9-2.6-2.9-7-7-11c-0.5-0.4-9.8-9.2-23-8
		c-7.9,0.7-13.7,4.7-17,7c-2.2,1.5-3.8,2.9-5,4c-1.3,0.3-2.7,0.7-4,1c-0.2,0.5-0.5,1.2-1,2c-0.7,1.2-1.1,1.5-1,2c0.1,1.1,2,1.3,2,2
		c0,0.8-2.7,0.8-3,2c-0.3,0.9,0.9,2,1,2c1.9,1.6,4.9,0.5,5,1c0.1,0.3-1.2,0.7-3,2c-0.7,0.6-1.4,1.1-2,2c-0.2,0.3-1,1.5-1,3
		c-0.1,2.2,1.5,2.5,2,5c0.5,2.6-0.9,3.9,0,5c1.1,1.2,3.3,0,4,1c0.6,0.9-0.4,3-2,4c-2.2,1.3-3.9-0.8-7,0c-2.8,0.7-5.5,3.3-6,6
		c-0.4,2.1,0.7,2.8,0,5c-0.1,0.4-0.4,1.3-3,4c-3.4,3.6-4.7,4.1-5,6c-0.2,1.6,0.6,2.3,0,3c-1,1.1-3.2-0.8-6,0c-2.4,0.7-2.1,2.6-6,5
		c-2,1.2-2.8,1.2-3,2c-0.2,1,0.9,2.8,7,6c1.7,0,3.3,0,5,0c3.2,2.4,7.2,6,11,11C463.4,355.9,466,362.1,467.5,366.5z"/>
	<path class="st20" d="M529.5,282.5c1.5,2.1,3.1,2.7,3,4c-0.1,1.3-1.9,1.1-3,3c-1.1,1.9,0.1,2.9-1,5c-0.8,1.4-2.3,2.7-4,3
		c-1.6,0.3-2.2-0.5-3,0c-1.3,0.8-0.7,3.1-1,6c0,0-0.2,2.2-2,7c-2.7,7.1-13.3,13.1-15,14c2.7-2.9,4.7-5.3,6-7c2.2-2.9,1.9-2.9,3-4
		c1.3-1.2,2.8-2.2,3-4c0.1-0.4,0-0.8,0-1c-0.5,1.3-1.4,2.1-2,2c-0.7-0.2-0.9-1.6-1-2c-0.3-2.2,0.8-4.9,2-5c0.9-0.1,1.3,1.2,2,1
		c0.8-0.2,0.9-2.2,1-3c0.1-2.1,0.4-5.1,1-9c-0.7,0.2-1.8,0.5-3,1c-1.8,0.8-2.5,1.3-3,1c-0.8-0.5-0.7-2.7,0-3c0.4-0.2,0.7,0.2,1,0
		c0.4-0.3,0.6-1.4,0-2c-0.6-0.6-1.8-0.4-2,0c-0.2,0.4,0.6,0.9,1,2c0.4,1.1,0.2,2.2,0,3c-1.7-0.3-3.3-0.7-5-1c-0.3,3-0.7,6-1,9
		c-1.3-0.3-2.7-0.7-4-1c0.3-0.7,0.7-1.7,1-3c1-4.2-0.2-5.9,1-9c0.5-1.2,1.2-3.2,3-4c2.8-1.3,7,0.6,8,1c1.6,0.7,2.4,1.4,3,1
		c0.7-0.5,0-2,0-4c0-1.4,0.3-3.5,2-6c2.3,0,4.7,0,7,0C527.7,278.9,528.2,280.7,529.5,282.5z"/>
	<path class="st20" d="M491.5,316.5c0.5,0.8,1.4,2.1,3,3c4.2,2.5,8.8,0.1,9,0c4.1-2.2,4.9-6.5,5-7c-0.7,0.9-3.3,4-8,5
		C496.1,318.5,492.6,317,491.5,316.5z"/>
	<path class="st20" d="M486.5,306.5c0-1,0-2,0-3c2.6-2.7,5.2-4.2,7-5c3.2-1.5,4.4-1.2,5-1c2,0.7,3.5,2.9,3,4c-0.3,0.7-1.5,0.9-2,1
		c-0.1,0-0.8,0.1-1.7,0c-1.2-0.2-2.3-0.8-2.3-1c0.1-0.3,4.8,0.6,9,3c2.5,1.4,3,2.3,3,3c0.1,1.2-1,2.1-2,3c-1.5,1.3-3.8,3.3-7,3
		c-2.3-0.2-5.2-1.6-6-4c-0.1-0.5-0.5-1.6,0-2c1.3-1.2,6.5,4.5,9,3c0.9-0.6,1.5-2.1,1-3c-0.7-1.3-3.2-1-12-1
		C488.8,306.5,487.3,306.5,486.5,306.5z"/>
	<path class="st20" d="M483.5,287.5c1,0.3,2.9,0.6,5,0c0.9-0.3,2.1-0.7,2-1c-0.1-0.6-5.8,1-7-1c-0.4-0.6-0.3-1.5,0-2
		c1.4-2.9,9.5-3.9,14,0c1.8,1.6,2.6,3.6,3,5c-1.7,1.5-4.4,3.3-8,4c-2.2,0.4-6.1,1.2-8-1C483.4,290.2,483.4,288.5,483.5,287.5z"/>
	<path class="st20" d="M503.5,337.5c-1.1,1.3-1.4,3.6,0,5c1.4,1.4,3.7,1.1,5,0c1.8-1.5,1.8-4.7,0-6C507,335.5,504.7,336,503.5,337.5
		z"/>
	<path class="st20" d="M511.5,335.5c-0.3,3-0.7,6-1,9c1.3,0.7,3,1.7,5,3c2.5,1.6,5.3,3.4,8,6c1.9,1.8,4.6,4.7,7,9c0-8.3,0-16.7,0-25
		c-3.4-4.4-5.4-6.4-6-6c-0.3,0.2-0.3,0.8,0,2c-2-1-4-2-6-3C516.2,332.2,513.8,333.8,511.5,335.5z"/>
	<path class="st20" d="M514.5,415.5c-2.4-0.4-6.3,4.5-6,9c0.2,2.2,1.2,2.8,2,5c0.9,2.5,1.3,6.3-1,12c2-0.3,4-0.7,6-1
		c-2.2-3.6-1.3-7.6,1-9c2-1.2,4.6-0.2,5,0c-0.7,3.3-1.3,6.7-2,10c7.3,0,14.7,0,22,0c1.4-4.4,1.6-8,0-9c-0.6-0.3-1.5-0.4-2,0
		c-1.3,1.1,1.1,5,0,6c-0.5,0.4-1.6,0.4-4-1c0.3-2,0.7-4,1-6c-0.9,0.3-3,0.9-5,0c-3.4-1.6-3.9-6.3-4-7c-0.4-3.7,1.2-5.5,0-7
		c-1-1.2-3.1-1.3-5-1c1.2,1.4,1.6,3.3,1,5c-0.6,1.5-2.1,3.1-4,3c-1.2-0.1-2.5-0.9-3-2c-0.8-1.7,0.8-3,0-5
		C516.2,416.8,515.5,415.7,514.5,415.5z"/>
	<path class="st20" d="M530.5,412.5c-0.3,1.3-0.5,3.5,0,6c0.5,2.4,1.2,5.7,4,7c2.2,1,5.1,0.7,7-1c2.7-2.4,2.4-6.5,1-9
		C540.5,412,535.4,410.5,530.5,412.5z"/>
	<path class="st20" d="M533.5,390.5c0-17.7,0-35.3,0-53c-0.8-1.1-2-2.6-4-4c-3.9-2.7-6.8-2.1-8-4c-0.9-1.3-1-4,3-10
		c-0.9,4.3,0.4,6.3,1,7c0.6,0.7,0.9,0.7,5,3c2.1,1.2,3.9,2.2,4,2c0.2-0.3-3.2-2-3-4c0.1-1.7,2.6-1.9,3-4c0.3-1.8-1.4-2.4-1-4
		c0.5-2.1,3.9-2.3,4-4c0.1-1.2-1.5-1.6-2-3c-1.1-3.1,4.4-7.5,5-8c4.9-4,14.4-8.2,20-4c1.7,1.3,2.6,3,3,4c1.7,0,3.3,0,5,0
		c0.7,2,1.3,4,2,6c4.7,0,9.3,0,14,0c-0.5,3.8-0.5,7.4,1,8c0.8,0.3,1.5-0.3,2,0c0.8,0.5,0.2,3.4-4,12c-3.7-0.8-4.8-2-5-3
		c-0.4-1.8,1.7-2.7,2-6c0.1-1.8-0.4-3.3-1-5c-0.6-1.8-1.4-3.1-2-4c-3.7,0-7.3,0-11,0c-0.3-3.5-1.1-4.7-2-5c-1-0.4-1.9,0.5-3,0
		c-1-0.5-0.7-1.4-2-3c-0.4-0.5-1.8-2.3-3-2c-1,0.2-0.9,1.6-2,2c-1.2,0.4-1.9-1-4-1c-1,0-1.7,0.4-3,1c-1.5,0.7-2.4,1.2-3,2
		c-1.6,2.2,0.3,5-1,6c-1.1,0.9-2.9-0.9-4,0c-1,0.8-0.4,3.2,0,5c0.4,1.6,0.7,2,1,3c0.8,2.9-0.4,5.6-1,7c-0.9,2.3-1.3,7.2-2,17
		c-0.5,6.4-0.2,10.7,0,16c0.3,7.2,0.5,17.6,0,31c1.3-0.3,2.7-0.7,4-1c-0.3-19.3-0.7-38.7-1-58c0-1.2,0.3-3,1-5c0.9-2.3,2.1-4,3-5
		c10.7,0,21.3,0,32,0c0.3,2.3,0.7,4.7,1,7c3.2,0.9,7.8,2.8,11,7c6,7.9,4.7,21.2-4,32c-2-2.3-4-4.7-6-7c1.3-0.4,3.2-1.2,5-3
		c3.7-3.7,4.4-9.5,3-14c-1.9-6-7-8.5-8-9c0,9.7,0,19.3,0,29c0,0,1.6,0.9,1.6,1c0.1,0.1,8.3,5,8.4,5c2.1,2.8,5.5,8.3,7,16
		c1.7,8.6,0,15.6-1,19c-0.7-9-3.1-15.7-5-20c-2.2-4.9-4.6-10.3-9-11c-2.7-0.5-5.1,1.1-6,0c-0.9-1.1,0.6-3.8,2-6c0-11.7,0-23.3,0-35
		c1.5-0.9,2.1-1.6,2-2c-0.2-0.7-2.9-0.7-8,0c-0.6,4.5-0.6,6.8,0,7c0.5,0.1,1.5-1.5,3-5c0,11.7,0,23.3,0,35c0.8-0.2,1.7-0.4,2,0
		c0.7,0.8-0.7,3.7-3,5c-2.6,1.5-5.5,0.2-6,0c3.3,3.7,6.7,7.3,10,11c-0.6,0.8-1.6,1.8-3,2c-3,0.5-4.1-3-8-4c-4.7-1.3-7.7,2.7-11,1
		c-1.9-1-2.7-3.4-3-5c1.3-4,2.7-8,4-12c1.4-16.5,0.9-23.3,0-26c-0.2-0.5-1-2.7,0-4c0.7-0.9,2-1,3-1c0,2,0,4,0,6c0.7,0,1.3,0,2,0
		c0,3.7,0,7.3,0,11c1.3,0,2.7,0,4,0c0-6,0-12,0-18c1,0,2,0,3,0c-5,0-10,0-15,0c1.5-1.5,1.3-3.9,0-5c-1-0.9-2.7-0.9-4,0
		c-1.1,1.8-1.1,3.8,0,5c0.7,0.7,1.5,0.9,2,1c0,0.7,0,1.4,0,2.1c0,12.3,0,24.6,0,36.9c0-12.3,0-24.7,0-37c-2,0-4,0-6,0
		c0,16,0,32,0,48c-0.7,2.7-1.3,5.3-2,8C539.5,392.5,536.5,391.5,533.5,390.5z"/>
	<path class="st20" d="M545.5,410.5c0,10.3,0,20.7,0,31c4.3,0,8.7,0,13,0c-0.7-4.3-1.7-9-3-14c-1.2-4.7-2.6-9-4-13
		c1,0.7,2.3,1.4,4,2c2,0.7,3.7,0.9,5,1c-1.1,0.8-2.5,2.1-3,4c-0.8,2.8,0.9,5.1,2,8c1,2.6,1.8,6.5,1,12c10.7,0,21.3,0,32,0
		c-0.2-0.8-0.5-1.9,0-3c0.5-1.2,1.7-1.8,2-2c3.4-2,4.1-10.7,4-15c-0.1-5.3-1.5-9.8-3-13c-1.8,9.2-1.6,14.6-1,18c0.2,1,0.9,4.7-1,8
		c-0.5,0.9-1.5,2.2-2,2c-0.7-0.2-0.3-2.7,0-5c0.1-0.6,1-8.2,1-14c0-4.8-0.7-9-1-11c-0.3-1.7-0.5-2.9-1-6c-0.6-4.1-0.8-5.7-1-7
		c-0.1-0.9-2.4-14.4-9-16c-1.7-0.4-3.2,0-7-1c-1.3-0.3-2.3-0.7-3-1c1.8,1.6,4.3,4,7,7c4,4.5,6.9,7.7,9,12c2.4,5,2.6,10.7,3,22
		c0.2,5.9,0.1,10.8,0,14c-1.3,0-2.7,0-4,0c1.1-8.3,1.2-15.1,1-20c-0.3-7.8-1.3-11-2-13c-2.6-6.9-7-11-7-11c0,0,2.9,3.2,2,5
		c-0.7,1.5-4,2-4,2l0,0c-4.5-1.5-5-1-5-1c-0.9,0.8,0.8,3.2,0,4c-1,1-4.6-1.5-5-1c-0.2,0.3,1,1.1,2,3c0.6,1.1,1.7,3,1,4
		c-0.4,0.5-1.9,0.7-5,1c-0.5,0-0.5,0.1-0.9,0.1c-1.4,0.1-3.1,0.4-5.1,0.9c-0.6-0.6-1.1-1.3-1-2c0.3-2,5.1-2.7,5-3
		c-0.1-0.3-5.1,1.6-9,0c-3.3-1.4-5-4.9-6-8c1.3,0.7,3.4,1.5,6,2c2.3,0.4,4,0.7,6,0c3-1.1,4.5-3.9,5-5c-0.5,0.2-4.1,1.9-8,0
		c-3.8-1.8-4.9-5.5-5-6c-0.1,2.2-0.6,4.3-2,5c-1.2,0.6-2.1-0.5-3,0c-2.1,1.2-1.3,10.3,4,16c1,1.1,2.3,2,5,4c3.9,2.9,5.9,4.3,8,5
		c0.8,0.2,7.8,2.4,13-2c2.8-2.4,3.7-5.6,4-7c3.3,2.7,3.1,4.6,3,5c-0.4,2-3,3-8,5c-2.5,1-4.6,1.6-6,2c1.4,3.3,2.9,7.4,4,12
		c1.1,4.4,1.7,8.5,2,12c-1.3,0-2.7,0-4,0c0-4.8-0.9-10.9-4-17c-1.6-3.1-3.3-6.4-7-9C553.9,409.7,547.7,410.2,545.5,410.5z"/>
</g>
</svg>
